<?xml version="1.0" standalone="no"?>
<!DOCTYPE svg PUBLIC "-//W3C//DTD SVG 1.1//EN" "http://www.w3.org/Graphics/SVG/1.1/DTD/svg11.dtd" >
<svg>
<metadata>
Created by FontForge 20090914 at Sat Nov  5 08:42:04 2016
 By www-data
Copyright (c) 2011 TypeSETit, LLC (typesetit@att.net),with Reserved Font Name "Playball"
</metadata>
<defs>
<font id="Playball-Regular" horiz-adv-x="449" >
  <font-face 
    font-family="Playball"
    font-weight="400"
    font-stretch="normal"
    units-per-em="1000"
    panose-1="2 0 0 0 0 0 0 0 0 0"
    ascent="800"
    descent="-200"
    x-height="390"
    cap-height="698.002"
    bbox="-328.002 -300.003 1252 948.994"
    underline-thickness="50"
    underline-position="-50"
    unicode-range="U+0002-U+2122"
  />
<missing-glyph horiz-adv-x="0" 
 />
    <glyph glyph-name=".notdef" horiz-adv-x="0" 
 />
    <glyph glyph-name="NULL" horiz-adv-x="0" 
 />
    <glyph glyph-name="NULL" horiz-adv-x="0" 
 />
    <glyph glyph-name="uni0002" horiz-adv-x="0" 
 />
    <glyph glyph-name="space" unicode=" " horiz-adv-x="300" 
 />
    <glyph glyph-name="exclam" unicode="!" horiz-adv-x="351" 
d="M332 654l58 -4c5.33301 0 9 0.333008 11 1c-36.667 -52.667 -81.667 -130.167 -135 -232.5s-83.666 -164.5 -90.999 -186.5l-41 -8c11.333 25.333 35.166 90.333 71.499 195l74.5 211c6 16 23.333 24 52 24zM159 49c-7.33301 -1.33301 -18.167 -9.00098 -32.5 -23.001
s-23.833 -25.333 -28.5 -34c-32.667 10.667 -49 24.334 -49 41.001c0 12 7.16699 23.667 21.5 35s30.833 17 49.5 17c27.333 0 41 -8.33301 41 -25c0 -2 -0.666992 -5.66699 -2 -11z" />
    <glyph glyph-name="quotedbl" unicode="&#x22;" horiz-adv-x="373" 
d="M358 690c0 -0.666992 -6.83203 -9.83301 -20.499 -27.5s-34 -46.834 -61 -87.501s-43.5 -67 -49.5 -79c-2 -2.66699 -8.66699 -4 -20 -4s-17 1 -17 3c3.33301 4.66699 29.333 69.334 78 194.001c3.33301 8 19.166 12 47.499 12s42.5 -3.66699 42.5 -11zM220.001 691.001
c0 -1.33301 -6.83301 -11 -20.5 -29s-34.167 -47.333 -61.5 -88s-43.666 -66.667 -48.999 -78c-0.666992 -2.66699 -6.83398 -4 -18.501 -4s-17.5 1 -17.5 3c3.33301 5.33301 29.333 70 78 194c3.33301 8 19 12 47 12s42 -3.33301 42 -10z" />
    <glyph glyph-name="numbersign" unicode="#" horiz-adv-x="781" 
d="M173 34.5c-12.667 17.667 -18.832 28.667 -18.499 33s0.5 6.83301 0.5 7.5l45 116h-138c-0.666992 0 -1 1.66699 -1 5s6.16699 14.166 18.5 32.499s21.5 27.5 27.5 27.5h118l57 147h-149c-0.666992 0 -1 1.66699 -1 5s6.16699 14.166 18.5 32.499s21.833 27.5 28.5 27.5
h128l53 137c0 0.666992 0.333008 1 1 1c4 0 12.167 -8.83301 24.5 -26.5s18.5 -30.5 18.5 -38.5v-2l-27 -71h157l53 137c0 0.666992 0.333008 1 1 1c3.33301 0 11.333 -8.83301 24 -26.5s19 -30.5 19 -38.5v-2l-28 -71h145c0.666992 0 1 -1.66699 1 -5
s-6.16699 -14.166 -18.5 -32.499s-21.833 -27.5 -28.5 -27.5h-124l-57 -147h155c0.666992 0 1 -1.66699 1 -5s-6.16699 -14.166 -18.5 -32.499s-21.833 -27.5 -28.5 -27.5h-134l-70 -182l-1 -1c-4 0 -12.333 8.83301 -25 26.5s-18.834 28.667 -18.501 33
s0.5 6.83301 0.5 7.5l45 116h-158l-70 -182l-1 -1c-4 0 -12.333 8.83301 -25 26.5zM452.002 256l56 147h-157l-56 -147h157z" />
    <glyph glyph-name="dollar" unicode="$" horiz-adv-x="455" 
d="M445 559c4.66699 -7.33301 6.99902 -16.832 6.99902 -28.499s-3.5 -21.834 -10.5 -30.501s-17.167 -13 -30.5 -13h-6c0 24.667 -15 45.334 -45 62.001l-56 -147l19 -13c56.667 -39.333 85 -81.333 85 -126s-21.5 -85.667 -64.5 -123s-95.833 -56 -158.5 -56h-4l-55 -142
c-0.666992 -2 -8.16699 -3 -22.5 -3s-21.5 2.66699 -21.5 8l55 142c-27.333 6 -49.5 17 -66.5 33s-25.5 35.833 -25.5 59.5s6.16699 44.667 18.5 63s28.833 27.5 49.5 27.5c4.66699 0 8.33398 -0.333008 11.001 -1c-14.667 -10.667 -22 -24 -22 -40s5 -31.167 15 -45.5
s25 -24.833 45 -31.5l74 193c-49.333 44 -74 83.167 -74 117.5s15.167 65.166 45.5 92.499s72.5 42 126.5 44l38 98c1.33301 2 9 3 23 3s21 -2.33301 21 -7v-1l-37 -96c32 -6 54 -19 66 -39zM268.999 431.001l50 131h-8c-20 0 -37.167 -6.16699 -51.5 -18.5
s-21.5 -29.333 -21.5 -51s10.333 -42.167 31 -61.5zM287.999 306.001l-17 12l-65 -168c35.333 2 64 12.167 86 30.5s33 39.333 33 63s-12.333 44.5 -37 62.5z" />
    <glyph glyph-name="percent" unicode="%" horiz-adv-x="670" 
d="M577 672c-20.667 -30.667 -49 -59.6689 -85 -87.002l-332 -585c-1.33301 -3.33301 -11 -5 -29 -5s-27 1.33301 -27 4v1l328 575c-9.33301 -2.66699 -18.666 -4 -27.999 -4c-27.333 0 -49.333 8.33301 -66 25c0.666992 -5.33301 1 -14 1 -26
c0 -47.333 -14.833 -92.5 -44.5 -135.5s-68.5 -64.5 -116.5 -64.5c-30.667 0 -53.667 10.5 -69 31.5s-23 47.833 -23 80.5c0 48.667 15 93.834 45 135.501s68.333 62.5 115 62.5c30 0 54.167 -11.333 72.5 -34s38.666 -34 60.999 -34s44.833 7.16699 67.5 21.5
s40 31.5 52 51.5c6.66699 11.333 22 17 46 17s36 -6.66699 36 -20c0 -1.33301 -1.33301 -4.66602 -4 -9.99902zM586 145.998c-10 -40.667 -28.832 -76.001 -56.499 -106.001s-58.834 -45 -93.501 -45s-59.667 10.5 -75 31.5s-23 48.167 -23 81.5
c0 48.667 15 93.834 45 135.501s68.333 62.5 115 62.5c32 0 55.667 -10.5 71 -31.5s23 -47.5 23 -79.5c0 -16.667 -2 -33 -6 -49zM246.501 447.997c15 16.667 26.501 36.832 34.501 60.499s12 45.5 12 65.5c0 41.333 -14 62 -42 62c-22.667 0 -43.667 -16 -63 -48
s-29 -66 -29 -102c0 -19.333 3.66699 -34.666 11 -45.999s18.166 -17 32.499 -17s29 8.33301 44 25zM499.002 73.9951c15.333 16.667 26.833 36.667 34.5 60s11.5 45 11.5 65c0 41.333 -14 62 -42 62c-22.667 0 -43.667 -16 -63 -48s-29 -67.333 -29 -106s13.667 -58 41 -58
c16 0 31.667 8.33301 47 25z" />
    <glyph glyph-name="ampersand" unicode="&#x26;" horiz-adv-x="789" 
d="M387 339l-43.999 7c-60.667 0 -112.334 -23.167 -155.001 -69.5s-64 -92.833 -64 -139.5c0 -36.667 12 -67.334 36 -92.001s57.667 -37 101 -37c71.333 0 128.333 19 171 57s64 77.667 64 119s-18.333 62 -55 62c-11.333 0 -21.333 -7 -30 -21
s-13.334 -26.333 -14.001 -37c-10.667 12.667 -16 27.167 -16 43.5s9.16699 32.833 27.5 49.5s42.166 29.667 71.499 39l151 46c67.333 20 105.333 40.333 114 61c2 -4 3 -10.333 3 -19c0 -29.333 -10 -52 -30 -68s-43.333 -26.333 -70 -31
c-95.333 -16.667 -158.666 -33 -189.999 -49c14.667 4 26 6 34 6c23.333 0 41.5 -7.33301 54.5 -22s19.5 -32.334 19.5 -53.001c0 -45.333 -19.167 -85.833 -57.5 -121.5s-81.666 -61.5 -129.999 -77.5s-89.5 -24 -123.5 -24s-63.5 2.33301 -88.5 7
s-49.5 12.334 -73.5 23.001s-43.333 26.167 -58 46.5s-22 44.5 -22 72.5c0 68 28 126 84 174s120 73.667 192 77c-24 12 -42.833 28 -56.5 48s-20.5 41.333 -20.5 64c0 40.667 14.667 76.5 44 107.5s63.833 53.333 103.5 67s78.834 20.5 117.501 20.5
s70.834 -9.5 96.501 -28.5s38.5 -41.667 38.5 -68s-8.66699 -48 -26 -65s-36.333 -25.5 -57 -25.5c-8.66699 0 -15 1.66699 -19 5c30 16.667 45 40.667 45 72c0 39.333 -26.333 59 -79 59s-97.334 -17 -134.001 -51s-55 -70 -55 -108c0 -28 8.66699 -49.333 26 -64
s36.666 -22.667 57.999 -24h20c18 0 27 -3.66699 27 -11c0 -5.33301 -3.5 -11.166 -10.5 -17.499s-13.833 -9.5 -20.5 -9.5z" />
    <glyph glyph-name="quotesingle" unicode="'" horiz-adv-x="143" 
d="M256 650c-18.667 -43.333 -43.832 -87.167 -75.499 -131.5s-55.834 -66.5 -72.501 -66.5c-4.66699 0 -9.33398 1.33301 -14.001 4c40.667 60.667 66.334 126 77.001 196c0.666992 8.66699 15 13 43 13s42 -4.33301 42 -13v-2z" />
    <glyph glyph-name="parenleft" unicode="(" horiz-adv-x="620" 
d="M612 706l-8 -27.002c-78 -19.333 -152.5 -58 -223.5 -116s-128.667 -127.167 -173 -207.5s-66.5 -161.166 -66.5 -242.499s31.667 -122 95 -122c11.333 0 22.333 0.666992 33 2l-7 -30c-28 -10.667 -61 -16 -99 -16s-66.333 14.333 -85 43s-28 64.334 -28 107.001
c0 64.667 16.5 131.667 49.5 201s75.833 131.833 128.5 187.5s113.167 103.5 181.5 143.5s135.833 65.667 202.5 77z" />
    <glyph glyph-name="parenright" unicode=")" horiz-adv-x="574" 
d="M563 557c0 -112.667 -44 -224.333 -132 -335c-57.333 -72 -124.333 -132.5 -201 -181.5s-153 -79.833 -229 -92.5l8 27c120 30.667 227 102.167 321 214.5s141 228.833 141 349.5c0 82.667 -31.333 124 -94 124c-12.667 0 -23.667 -0.666992 -33 -2l7 30
c28 10.667 61 16 99 16s66.333 -14.5 85 -43.5s28 -64.5 28 -106.5z" />
    <glyph glyph-name="asterisk" unicode="*" horiz-adv-x="652" 
d="M598 586l24 -74l-269 -99l-1 -3l210 -96l-69 -75l-165 143l-7 -3l-43 -240h-91l102 240l-4 3l-253 -143l-24 74l269 96l1 4l-210 98l69 74l166 -144l6 2l44 243h90l-102 -243l4 -2z" />
    <glyph glyph-name="plus" unicode="+" horiz-adv-x="722" 
d="M108 376l238 -8c36.667 91.333 62.334 160 77.001 206c2 8 15.667 16.667 41 26s41.333 14 48 14s10 -0.333008 10 -1v-1l-110 -244c150.667 1.33301 246.667 3 288 5c0.666992 0 1 -0.666992 1 -2c0 -6 -8.33301 -18 -25 -36s-29.334 -27 -38.001 -27l-248 9
c-18.667 -38 -37.5 -82.333 -56.5 -133s-31.167 -87.334 -36.5 -110.001c-2 -8 -15.833 -16.667 -41.5 -26s-41.834 -14 -48.501 -14s-10 0.333008 -10 1v1c34 62.667 77 156.667 129 282c-125.333 0 -203.5 -1.16699 -234.5 -3.5s-46.5 -3.16602 -46.5 -2.49902
c0 6 8.33301 18.167 25 36.5s29.334 27.5 38.001 27.5z" />
    <glyph glyph-name="comma" unicode="," horiz-adv-x="271" 
d="M246 64c-18.667 -43.333 -43.832 -87.167 -75.499 -131.5s-55.834 -66.5 -72.501 -66.5c-4.66699 0 -9.33398 1.33301 -14.001 4c40.667 60.667 66.334 126 77.001 196c0.666992 8.66699 15 13 43 13s42 -4.33301 42 -13v-2z" />
    <glyph glyph-name="hyphen" unicode="-" horiz-adv-x="490" 
d="M200 288h279c0.666992 0 1 -1.66699 1 -5s-6.16699 -14.166 -18.5 -32.499s-21.833 -27.5 -28.5 -27.5h-279c-0.666992 0 -1 1.66699 -1 5s6.33301 14.166 19 32.499s22 27.5 28 27.5z" />
    <glyph glyph-name="period" unicode="." horiz-adv-x="271" 
d="M222 49c-7.33301 -1.33301 -18.167 -9.00098 -32.5 -23.001s-23.833 -25.333 -28.5 -34c-32.667 10.667 -49 24.334 -49 41.001c0 12 7.16699 23.667 21.5 35s30.833 17 49.5 17c27.333 0 41 -8.33301 41 -25c0 -2 -0.666992 -5.66699 -2 -11z" />
    <glyph glyph-name="slash" unicode="/" horiz-adv-x="455" 
d="M678 694l-556 -752c-1.33301 -2 -10.333 -3 -27 -3s-25 2.33301 -25 7v1l556 752c2 2 11.167 3 27.5 3s24.5 -2.33301 24.5 -7v-1z" />
    <glyph glyph-name="zero" unicode="0" horiz-adv-x="610" 
d="M596 340c-28 -95.333 -76.666 -177.833 -145.999 -247.5s-149 -104.5 -239 -104.5c-62 0 -108.5 21 -139.5 63s-46.5 96.333 -46.5 163c0 86.667 23.667 172.667 71 258c51.333 92 116 156.333 194 193c43.333 20 88.666 30 135.999 30
c63.333 0 110.833 -20.5 142.5 -61.5s47.5 -94.167 47.5 -159.5c0 -43.333 -6.66699 -88 -20 -134zM392.501 108.5c41.667 48.333 73.501 106.333 95.501 174s33 129.167 33 184.5s-11 100 -33 134s-55.333 51 -100 51s-87.5 -23 -128.5 -69s-72.833 -102 -95.5 -168
s-34 -129 -34 -189s10.667 -106.667 32 -140s54.666 -50 99.999 -50s88.833 24.167 130.5 72.5z" />
    <glyph glyph-name="one" unicode="1" horiz-adv-x="349" 
d="M264 708h126.001c-36 -83.333 -83.5 -209.833 -142.5 -379.5s-93.167 -279.167 -102.5 -328.5h-121c21.333 48 84.666 212 189.999 492l52 140l-142 -132h-35z" />
    <glyph glyph-name="two" unicode="2" horiz-adv-x="568" 
d="M600 547c-14 -88 -85.3369 -164.999 -214.004 -230.999l-105 -54c-25.333 -13.333 -57.166 -33.333 -95.499 -60s-62.5 -49.334 -72.5 -68.001h9c25.333 0 55.5 -5.83301 90.5 -17.5s75.333 -21.167 121 -28.5s77.834 -11 96.501 -11c66 0 99.333 24.333 100 73h27
c-1.33301 -46.667 -16.333 -86.167 -45 -118.5s-67.667 -48.5 -117 -48.5s-90.333 12.333 -123 37c-7.33301 7.33301 -21.166 17.666 -41.499 30.999s-34.166 21.666 -41.499 24.999c-19.333 10 -35.5 15 -48.5 15s-22.833 -5.33301 -29.5 -16s-10.334 -22.5 -11.001 -35.5
s-4.16699 -24.833 -10.5 -35.5s-14.833 -16 -25.5 -16c-22.667 0 -34 12.667 -34 38c0 65.333 36 129 108 191c33.333 28.667 68 56.334 104 83.001c99.333 73.333 170 137 212 191c24.667 32 37 63.333 37 94s-8.5 54.667 -25.5 72s-43 26 -78 26
s-69.167 -17.167 -102.5 -51.5s-50 -70.166 -50 -107.499c0 -10.667 1.33301 -20 4 -28c-15.333 -10.667 -29.833 -16 -43.5 -16s-24.667 5 -33 15s-12.5 24 -12.5 42c0 32 9.33301 60.167 28 84.5s42 43.166 70 56.499c56 25.333 110.667 38 164 38
c34 0 64.333 -3.83301 91 -11.5s49.834 -22.5 69.501 -44.5s29.5 -50.333 29.5 -85c0 -5.33301 -0.666992 -14.666 -2 -27.999z" />
    <glyph glyph-name="three" unicode="3" horiz-adv-x="600" 
d="M389 380c53.333 -8.66699 94.0029 -28.1699 122.003 -58.5029s42 -66.5 42 -108.5s-16.333 -81.167 -49 -117.5s-72.834 -63.5 -120.501 -81.5s-93.834 -27 -138.501 -27s-82.5 4.5 -113.5 13.5s-57.333 24.833 -79 47.5s-32.5 49.334 -32.5 80.001s8.66699 57.5 26 80.5
s39.333 34.5 66 34.5c12.667 0 25.667 -3.33301 39 -10c-25.333 -36.667 -38 -72 -38 -106s12.667 -60.5 38 -79.5s58 -28.5 98 -28.5c51.333 0 95.166 18 131.499 54s54.5 77.333 54.5 124s-14.167 84.834 -42.5 114.501s-63.833 44.5 -106.5 44.5
c-25.333 0 -51.333 -6 -78 -18c-4 -2 -8.83301 -3 -14.5 -3s-10.667 2.83301 -15 8.5s-6.5 13.167 -6.5 22.5s4.66699 17.833 14 25.5s25.166 11.5 47.499 11.5s45.833 -5.66699 70.5 -17c50 12.667 91.5 37.5 124.5 74.5s49.5 78.5 49.5 124.5
c0 30.667 -9.33301 55.834 -28 75.501s-47.667 29.5 -87 29.5s-73.5 -15.5 -102.5 -46.5s-43.5 -66.5 -43.5 -106.5c0 -12.667 2 -25.667 6 -39c-8.66699 -3.33301 -18.167 -5 -28.5 -5s-20.333 6 -30 18s-14.5 28.333 -14.5 49c0 34 13.333 63.333 40 88
c49.333 46 116 69 200 69c135.333 0 203 -46.333 203 -139c0 -40.667 -18.167 -79.5 -54.5 -116.5s-86.166 -64.167 -149.499 -81.5z" />
    <glyph glyph-name="four" unicode="4" horiz-adv-x="687" 
d="M648 269c-33.333 -34.667 -83.001 -52.0039 -149.001 -52.0039c-11.333 0 -23.666 1 -36.999 3c-30.667 -95.333 -52.334 -168.666 -65.001 -219.999h-119c16 36 46 113.667 90 233c-20 4.66699 -46.333 11.667 -79 21c-73.333 22 -123.666 33 -150.999 33
s-47 -4.66699 -59 -14s-18.333 -19.666 -19 -30.999c-0.666992 -30 -10.334 -45 -29.001 -45c-7.33301 0 -13.666 3.66699 -18.999 11s-8 17.666 -8 30.999c0 30 14.333 52.333 43 67l469 402h124c-48.667 -115.333 -100 -254.666 -154 -417.999
c91.333 6.66699 137 34.334 137 83.001c0 11.333 -3 21 -9 29c7.33301 5.33301 16.333 8 27 8s20.5 -6.83301 29.5 -20.5s13.5 -27.5 13.5 -41.5c0 -27.333 -12 -53.666 -36 -78.999zM526.999 658.996l-402 -339c49.333 -2.66699 93.833 -7.5 133.5 -14.5
s83.5 -11.5 131.5 -13.5z" />
    <glyph glyph-name="five" unicode="5" horiz-adv-x="583" 
d="M122 415c0 14 42.666 111.666 127.999 292.999h190c18 0 40 0.666992 66 2l40 3c18 0 30.5 -2 37.5 -6s10.5 -14.167 10.5 -30.5s-7.33301 -41.166 -22 -74.499l-28 -72h-20l5 17c8 20.667 7.66699 39.667 -1 57c-4.66699 11.333 -19.334 21.333 -44.001 30
c-15.333 6 -56.666 9 -123.999 9h-5h-80c-42.667 -91.333 -72.334 -157 -89.001 -197c42 13.333 81 20 117 20c74.667 0 135 -19.333 181 -58s69 -86.667 69 -144c0 -46 -10.167 -87.167 -30.5 -123.5s-47.166 -64.833 -80.499 -85.5c-68 -42 -141.667 -63 -221 -63
c-58 0 -107 13.5 -147 40.5s-60 67.167 -60 120.5c0 31.333 9.16699 59.666 27.5 84.999s41.833 38 70.5 38c16.667 0 31.667 -4.66699 45 -14c-30 -32.667 -45 -70.834 -45 -114.501s12.333 -75.5 37 -95.5s56.334 -30 95.001 -30c50.667 0 94.5 21.333 131.5 64
s55.5 92.834 55.5 150.501s-18 103.334 -54 137.001s-80.333 50.5 -133 50.5c-14 0 -34 -3.33301 -60 -10s-42.833 -10 -50.5 -10s-11.5 3.66699 -11.5 11z" />
    <glyph glyph-name="six" unicode="6" horiz-adv-x="583" 
d="M589 588c0 -28 -7.00098 -46.3311 -21.001 -54.998s-26.333 -13 -37 -13c-19.333 0 -33.666 11 -42.999 33c17.333 11.333 26 28.666 26 51.999s-7.33301 40.666 -22 51.999s-34.334 17 -59.001 17c-52 0 -102 -26.167 -150 -78.5s-86.667 -120.166 -116 -203.499
c52 42.667 116.333 64 193 64c58 0 103.5 -16.167 136.5 -48.5s49.5 -74.833 49.5 -127.5c0 -90 -31 -160.167 -93 -210.5s-132.667 -75.5 -212 -75.5s-134.166 17.5 -164.499 52.5s-45.5 82.667 -45.5 143s10 120.666 30 180.999s47 116 81 167s76.667 93 128 126
s101.833 49.5 151.5 49.5s90 -10.333 121 -31s46.5 -52 46.5 -94zM309.999 413.002c-58.667 -2.66699 -102.999 -26.667 -132.999 -72s-45 -100.666 -45 -165.999c0 -42.667 9.66699 -77.834 29 -105.501s47.666 -41.5 84.999 -41.5c55.333 0 101.5 24.333 138.5 73
s55.5 102 55.5 160c0 44.667 -11.333 81.167 -34 109.5s-54.667 42.5 -96 42.5z" />
    <glyph glyph-name="seven" unicode="7" horiz-adv-x="539" 
d="M165 713l111 -4.99902h253c10 0 15 -7.33301 15 -22s-6.16699 -30 -18.5 -46l-75 -95l-90.5 -115c-67.333 -87.333 -114 -154.666 -140 -201.999s-39 -86 -39 -116c0 -13.333 3.33301 -24.833 10 -34.5s15.167 -14.5 25.5 -14.5s18.833 1 25.5 3
c-6 -26.667 -18.833 -46.167 -38.5 -58.5s-41.167 -18.5 -64.5 -18.5s-43.666 7.83301 -60.999 23.5s-26 38.167 -26 67.5s9.83301 62.5 29.5 99.5s44 72 73 105s60.667 66.833 95 101.5l94.5 94c68.667 64.667 103 111.334 103 140.001
c0 2.66699 -0.666992 7.33398 -2 14.001h-212c-34 0 -61 -4.83301 -81 -14.5s-33.167 -21.334 -39.5 -35.001s-11 -27.334 -14 -41.001s-7 -25.334 -12 -35.001s-12.167 -14.334 -21.5 -14.001s-14 2.5 -14 6.5c0 1.33301 1 4.33301 3 9s4.5 13 7.5 25s6.16699 26 9.5 42
c13.333 64.667 25.666 103.5 36.999 116.5s30.333 19.5 57 19.5z" />
    <glyph glyph-name="eight" unicode="8" horiz-adv-x="587" 
d="M440 394c66.667 -38 100.002 -90.165 100.002 -156.498s-32.167 -124.333 -96.5 -174s-137.833 -74.5 -220.5 -74.5c-62.667 0 -114.834 16.167 -156.501 48.5s-62.5 73.666 -62.5 123.999s20 96.666 60 138.999s92.667 74.166 158 95.499
c-48.667 32.667 -73 73.667 -73 123c0 58 23 106 69 144s108.667 57 188 57c59.333 0 106.666 -13.167 141.999 -39.5s53 -61.166 53 -104.499c0 -81.333 -53.667 -142 -161 -182zM490.502 651.002c-27.667 22 -60.667 33 -99 33s-73.833 -11.667 -106.5 -35
s-49 -50 -49 -80s15.167 -58.833 45.5 -86.5s65.166 -46.167 104.499 -55.5c94.667 36 143.334 84.333 146.001 145c0 30.667 -13.833 57 -41.5 79zM284.002 343.002c-120.667 -48 -180.999 -111.332 -180.999 -189.999c0 -34 13.167 -62.167 39.5 -84.5
s63.166 -33.5 110.499 -33.5s91.666 15 132.999 45s62 72.667 62 128c0 40 -17.333 70.667 -52 92c-25.333 15.333 -62.666 29.666 -111.999 42.999z" />
    <glyph glyph-name="nine" unicode="9" horiz-adv-x="614" 
d="M467 126c-74 -92.667 -169.665 -139.002 -286.998 -139.002c-106.667 0 -160 40 -160 120c0 22 6.66699 42 20 60s31.333 27 54 27c12.667 0 25 -3 37 -9c-13.333 -19.333 -20 -45 -20 -77s8.16699 -54.833 24.5 -68.5s37.666 -20.5 63.999 -20.5s52.5 7.33301 78.5 22
c46.667 26 83.167 59.333 109.5 100s53.166 97 80.499 169c-52.667 -38 -110.834 -57 -174.501 -57s-115.167 18.833 -154.5 56.5s-59 86.167 -59 145.5c0 81.333 26.833 144.833 80.5 190.5s120.167 68.5 199.5 68.5c157.333 0 236 -72.333 236 -217
c0 -61.333 -12.167 -126.666 -36.5 -195.999s-55.166 -127.666 -92.499 -174.999zM458.002 630.998c-23.333 31.333 -58.333 46.833 -105 46.5s-86.5 -22.5 -119.5 -66.5s-49.5 -91.167 -49.5 -141.5s13 -92 39 -125s59.667 -49.5 101 -49.5s74.833 10.333 100.5 31
s43.5 46.5 53.5 77.5s15 68.833 15 113.5s-11.667 82.667 -35 114z" />
    <glyph glyph-name="colon" unicode=":" horiz-adv-x="284" 
d="M222 49c-7.33301 -1.33301 -18.167 -9.00098 -32.5 -23.001s-23.833 -25.333 -28.5 -34c-32.667 10.667 -49 24.334 -49 41.001c0 12 7.16699 23.667 21.5 35s30.833 17 49.5 17c27.333 0 41 -8.33301 41 -25c0 -2 -0.666992 -5.66699 -2 -11zM325.999 353.999
c-7.33301 -1.33301 -18.167 -9.00098 -32.5 -23.001s-23.833 -25.333 -28.5 -34c-32.667 10.667 -49 24.334 -49 41.001c0 12 7.16699 23.667 21.5 35s30.833 17 49.5 17c27.333 0 41 -8.33301 41 -25c0 -2 -0.666992 -5.66699 -2 -11z" />
    <glyph glyph-name="semicolon" unicode=";" horiz-adv-x="342" 
d="M353 337c-7.33301 -1.33301 -18.167 -9.00098 -32.5 -23.001s-23.833 -25.333 -28.5 -34c-32.667 10.667 -49 24.334 -49 41.001c0 12 7.16699 23.667 21.5 35s30.833 17 49.5 17c27.333 0 41 -8.33301 41 -25c0 -2 -0.666992 -5.66699 -2 -11zM245.999 63.999
c-18.667 -43.333 -43.832 -87.167 -75.499 -131.5s-55.834 -66.5 -72.501 -66.5c-4.66699 0 -9.33398 1.33301 -14.001 4c40.667 60.667 66.334 126 77.001 196c0.666992 8.66699 15 13 43 13s42 -4.33301 42 -13v-2z" />
    <glyph glyph-name="less" unicode="&#x3c;" horiz-adv-x="479" 
d="M457 577c0.666992 0.666992 1.66797 1.00293 3.00098 1.00293s2 -3.5 2 -10.5s-5 -17.5 -15 -31.5c-18.667 -22 -65.667 -59.667 -141 -113s-136 -94 -182 -122c125.333 -89.333 204.666 -163 237.999 -221c0.666992 -1.33301 1 -3.33301 1 -6
c0 -9.33301 -7.66699 -20.5 -23 -33.5s-27 -19.5 -35 -19.5c-1.33301 0 -2.33301 0.333008 -3 1c-88 99.333 -171.667 177.666 -251 234.999c-16.667 11.333 -25 20.666 -25 27.999s10 16.666 30 27.999c138 78 271.667 166 401 264z" />
    <glyph glyph-name="equal" unicode="=" horiz-adv-x="531" 
d="M194 425h319c0.666992 0 1 -1.66699 1 -5s-5.83301 -13 -17.5 -29s-20.5 -24 -26.5 -24h-319c-0.666992 0 -1 1.66699 -1 5s5.66699 13 17 29s20.333 24 27 24zM140 238h319c0.666992 0 1 -1.66699 1 -5s-5.83301 -13 -17.5 -29s-20.5 -24 -26.5 -24h-319
c-0.666992 0 -1 1.66699 -1 5s5.66699 13 17 29s20.333 24 27 24z" />
    <glyph glyph-name="greater" unicode="&#x3e;" horiz-adv-x="479" 
d="M492 342c16.667 -11.333 24.999 -20.834 24.999 -28.501s-10 -17.167 -30 -28.5c-141.333 -80 -275 -167.667 -401 -263c-1.33301 -1.33301 -2.66602 -2 -3.99902 -2s-2 1.66699 -2 5c0 14 5.33301 26.333 16 37c18 22 63.833 59 137.5 111s135.5 93.667 185.5 125
c-46 32 -92.5 68.833 -139.5 110.5s-79.833 78.5 -98.5 110.5c-1.33301 2.66699 -2 4.66699 -2 6c0 9.33301 7.83301 20.5 23.5 33.5s27.5 19.5 35.5 19.5c1.33301 0 2.33301 -0.333008 3 -1c88 -99.333 171.667 -177.666 251 -234.999z" />
    <glyph glyph-name="question" unicode="?" horiz-adv-x="551" 
d="M211 235l0.999023 -13.998c0 -8 -4.16699 -14.833 -12.5 -20.5s-16.833 -8.5 -25.5 -8.5c-15.333 0 -23 9 -23 27c0 36 21.667 70.333 65 103l24 16c86.667 55.333 146 105.666 178 150.999c14.667 21.333 22 43.666 22 66.999s-7.83301 43.333 -23.5 60
s-36.5 25 -62.5 25c-18.667 0 -43.334 -8.33301 -74.001 -25c-15.333 -8.66699 -28.666 -21.667 -39.999 -39s-17 -34.5 -17 -51.5s2.33301 -30.167 7 -39.5c-9.33301 -5.33301 -20.166 -8 -32.499 -8s-24 6 -35 18s-16.5 28 -16.5 48c0 30 13.333 55.333 40 76
c46.667 36.667 106.667 55 180 55c125.333 0 188 -39.667 188 -119c0 -46 -14.5 -80.667 -43.5 -104s-67.833 -45 -116.5 -65c-50 -22 -87.667 -40.667 -113 -56c-46.667 -30 -70 -62 -70 -96zM194.999 49.002c-7.33301 -1.33301 -18.167 -9.00098 -32.5 -23.001
s-23.833 -25.333 -28.5 -34c-32.667 10.667 -49 24.334 -49 41.001c0 12 7.16699 23.667 21.5 35s30.833 17 49.5 17c27.333 0 41 -8.33301 41 -25c0 -2 -0.666992 -5.66699 -2 -11z" />
    <glyph glyph-name="at" unicode="@" horiz-adv-x="917" 
d="M812 190c-20 -30.667 -49.165 -56.3359 -87.498 -77.0029s-74.5 -31 -108.5 -31s-60.667 9 -80 27s-29 45.667 -29 83c0 22.667 4 49 12 79c-62.667 -99.333 -118.334 -149 -167.001 -149c-19.333 0 -35.833 8.33301 -49.5 25s-20.5 39 -20.5 67
c0 72.667 22.667 141.167 68 205.5s100.666 96.5 165.999 96.5c22 0 39.167 -5.16699 51.5 -15.5s23.166 -29.166 32.499 -56.499c11.333 22.667 21.833 38 31.5 46s25.5 12 47.5 12h56c-35.333 -28 -69 -81 -101 -159s-48 -135 -48 -171c0 -43.333 16 -65 48 -65
c47.333 0 87.666 29.5 120.999 88.5s50 120.167 50 183.5c0 78.667 -23.667 145.5 -71 200.5s-114.333 82.5 -201 82.5c-69.333 0 -132.5 -19.667 -189.5 -59s-100.833 -89.5 -131.5 -150.5s-46 -120.833 -46 -179.5s8.33301 -107.667 25 -147s39 -70 67 -92
c56 -44 121.667 -66 197 -66s149.833 18.833 223.5 56.5s124.5 79.5 152.5 125.5c2 4 4.33301 6 7 6s4 -5.66699 4 -17c0 -29.333 -9.83301 -56.166 -29.5 -80.499s-44.167 -43.833 -73.5 -58.5s-62.666 -27.334 -99.999 -38.001c-66 -18 -131.333 -27 -196 -27
c-105.333 0 -190.833 25.5 -256.5 76.5s-98.5 128.833 -98.5 233.5c0 54 10.333 106.833 31 158.5s49.5 98.334 86.5 140.001s83.833 75.167 140.5 100.5s118 38 184 38c104.667 0 188.334 -28 251.001 -84s94 -125.667 94 -209c0 -67.333 -21 -133.666 -63 -198.999z
M574.002 392.998l22.001 43.001c-2 13.333 -8.83301 23.666 -20.5 30.999s-25.167 11 -40.5 11c-48 0 -87.333 -24.833 -118 -74.5s-46 -99.167 -46 -148.5c0 -20 3.33301 -35.667 10 -47s15 -17 25 -17c21.333 0 49.166 23 83.499 69s62.5 90.333 84.5 133z" />
    <glyph glyph-name="A" unicode="A" horiz-adv-x="750" 
d="M468 698l224 0.00195312c-16.667 -16.667 -45.667 -29.334 -87 -38.001s-88 -15.5 -140 -20.5s-86 -9.16699 -102 -12.5c-71.333 -16.667 -107 -59.334 -107 -128.001c-20.667 21.333 -31 44.333 -31 69c0 86.667 81 130 243 130zM743 698.002h72.001
c-30.667 -29.333 -61.834 -109.5 -93.501 -240.5s-47.5 -232.167 -47.5 -303.5c0 -50.667 9.33301 -85.667 28 -105c8 -8.66699 18 -13 30 -13s24.667 4.33301 38 13l6 -9c-9.33301 -13.333 -26 -24.833 -50 -34.5s-47.667 -14.5 -71 -14.5
c-34.667 0 -58.334 12.333 -71.001 37s-20 57.667 -22 99c0 34 4.33301 78 13 132h-229c-99.333 -105.333 -177.333 -191.666 -234 -258.999h-100c62.667 57.333 160 151.333 292 282c170 169.333 281.667 286.666 335 351.999c13.333 16 23.333 27.167 30 33.5
s16.834 13 30.501 20s28.167 10.5 43.5 10.5zM640.001 557.002c-76 -71.333 -159.333 -154 -250 -248h192c12 66 31.333 148.667 58 248z" />
    <glyph glyph-name="B" unicode="B" horiz-adv-x="580" 
d="M614 548c-7.33301 -71.333 -51.998 -124.667 -133.998 -160c-19.333 -8 -39 -14 -59 -18c104 -19.333 156 -68.666 156 -147.999c0 -67.333 -35.833 -124 -107.5 -170s-160.5 -69 -266.5 -69c-52 0 -95.333 8.16699 -130 24.5s-52 43.5 -52 81.5
c0 46.667 24.667 128 74 244s95 215 137 297c6.66699 13.333 11.667 22.666 15 27.999l-36 -5c-52 -7.33301 -99.833 -19.666 -143.5 -36.999s-73.167 -39 -88.5 -65c-0.666992 -2 -2.33398 -3 -5.00098 -3s-4 1.83301 -4 5.5s0.333008 6.16699 1 7.5
c25.333 69.333 71.666 111.666 138.999 126.999c30.667 6.66699 71.667 10 123 10h197c60.667 0 106.5 -13 137.5 -39s46.5 -58.667 46.5 -98v-13zM510.002 573.999c-6 58.667 -52.334 90.002 -139.001 94.002c-31.333 -40.667 -72.666 -117 -123.999 -229
s-84 -192.833 -98 -242.5s-21 -87.334 -21 -113.001s7.33301 -42.334 22 -50.001s39 -11.5 73 -11.5c63.333 0 118.666 17.167 165.999 51.5s71 85.5 71 153.5c0 33.333 -8.16699 62 -24.5 86s-40.166 38 -71.499 42c-41.333 -11.333 -81.333 -17 -120 -17
c-11.333 0 -17 2.33301 -17 7c0 15.333 10.333 25.833 31 31.5s40.334 8.5 59.001 8.5s37 -1.33301 55 -4c43.333 13.333 77.166 37.333 101.499 72s36.5 70.667 36.5 108v13z" />
    <glyph glyph-name="C" unicode="C" horiz-adv-x="680" 
d="M716 556c-10.667 -27.333 -30.4961 -50.332 -59.4961 -68.999s-59.167 -28 -90.5 -28c-14.667 0 -26.667 3.16699 -36 9.5s-14 14.5 -14 24.5s4 20.667 12 32c7.33301 -2.66699 15.666 -4 24.999 -4c26 0 50 9 72 27s33 39.667 33 65c0 38.667 -25.667 58 -77 58
c-68 0 -134.333 -23.333 -199 -70s-116.834 -107.167 -156.501 -181.5s-59.5 -149.833 -59.5 -226.5c0 -118.667 54 -178 162 -178c67.333 0 138.666 26 213.999 78s125.333 108.333 150 169c12.667 -8.66699 19 -20.334 19 -35.001c0 -30 -21.333 -67.167 -64 -111.5
s-96.334 -79.666 -161.001 -105.999s-130.667 -39.5 -198 -39.5c-156.667 0 -235 73 -235 219c0 55.333 12.333 113.166 37 173.499s58 116.333 100 168s94.5 94.167 157.5 127.5s125.167 50 186.5 50s108.333 -10.5 141 -31.5s49 -47.833 49 -80.5
c0 -12 -2.66699 -25.333 -8 -40z" />
    <glyph glyph-name="D" unicode="D" horiz-adv-x="710" 
d="M723 358c-12.667 -78.667 -42.3281 -147 -88.9951 -205s-103.334 -101.333 -170.001 -130s-139 -43 -217 -43c-144.667 0 -217 37 -217 111c0 80 70.667 259.667 212 539c6.66699 13.333 11.667 22.666 15 27.999c-52.667 -4 -106.334 -15.667 -161.001 -35
s-90.334 -43.333 -107.001 -72c-0.666992 -2 -2.33398 -3 -5.00098 -3s-4 1.83301 -4 5.5s0.333008 6.16699 1 7.5c25.333 69.333 71.666 111.666 138.999 126.999c30.667 6.66699 71.667 10 123 10h205c94.667 0 165 -25.667 211 -77s69 -116.666 69 -195.999
c0 -19.333 -1.66699 -41.666 -5 -66.999zM618.006 350c7.33301 30.667 10.998 59.999 10.998 87.999c0 64.667 -19 118.334 -57 161.001c-21.333 23.333 -50.5 40.5 -87.5 51.5s-71.5 16.5 -103.5 16.5c-32 -42 -70.167 -111.167 -114.5 -207.5
s-80.166 -187.166 -107.499 -272.499c-14 -42 -21 -75.833 -21 -101.5s6.66699 -42.5 20 -50.5s37 -12 71 -12c92.667 0 175.334 31.167 248.001 93.5s119.667 140.166 141 233.499z" />
    <glyph glyph-name="E" unicode="E" horiz-adv-x="570" 
d="M441 698l109.004 5.00391c20.667 0 32.167 -4.16699 34.5 -12.5s3.5 -14.5 3.5 -18.5c0 -23.333 -8.16699 -52.833 -24.5 -88.5s-28 -53.5 -35 -53.5s-10.5 2.66699 -10.5 8l8 60c0 20.667 -8.33301 37 -25 49s-36.667 18 -60 18s-40.666 -1.66699 -51.999 -5
s-20.333 -10.333 -27 -21c-48.667 -72.667 -93 -155.334 -133 -248.001h261l1 -1c0 -4.66699 -4.66699 -13.834 -14 -27.501s-17 -20.5 -23 -20.5h-247c-18 -44 -35.667 -93.333 -53 -148s-26 -90.834 -26 -108.501s5.33301 -30.667 16 -39s28.667 -12.5 54 -12.5
c194.667 0 310 38 346 114c1.33301 2 3.83301 3 7.5 3s5.5 -2 5.5 -6s-0.666992 -9.33301 -2 -16c-18.667 -58 -46.334 -94.667 -83.001 -110c-19.333 -8 -37.5 -13.167 -54.5 -15.5s-38.833 -3.5 -65.5 -3.5h-302c-20.667 0 -31 15.667 -31 47c0 54 29.667 152.333 89 295
h-55c-5.33301 0 -8 1.66699 -8 5c0 6.66699 6.33301 15.667 19 27s23 17 31 17h34c61.333 147.333 105.666 237 132.999 269c-62.667 -8 -119.834 -21.333 -171.501 -40s-85.5 -41.667 -101.5 -69c-0.666992 -2 -2.33398 -3 -5.00098 -3s-4 1.83301 -4 5.5
s0.333008 6.16699 1 7.5c25.333 69.333 71.666 111.666 138.999 126.999c30.667 6.66699 71.667 10 123 10h198z" />
    <glyph glyph-name="F" unicode="F" horiz-adv-x="380" 
d="M471 698l109 5.00195c20.667 0 32.167 -4.16699 34.5 -12.5s3.5 -14.5 3.5 -18.5c0 -23.333 -8.16699 -52.833 -24.5 -88.5s-28 -53.5 -35 -53.5s-10.5 2.66699 -10.5 8l8 60c0 20 -9.5 36.167 -28.5 48.5s-40.167 18.5 -63.5 18.5s-40.5 -1.66699 -51.5 -5
s-20.167 -10.333 -27.5 -21c-31.333 -44.667 -72.666 -127.334 -123.999 -248.001h222l1 -1c0 -4.66699 -4.66699 -13.834 -14 -27.501s-17 -20.5 -23 -20.5h-207c-64.667 -157.333 -97 -264 -97 -320c0 -10 1.33301 -17.333 4 -22h-129c18 76 58 190 120 342h-55
c-5.33301 0 -8 1.66699 -8 5c0 6.66699 6.33301 15.667 19 27s23 17 31 17h34c56.667 134 100.334 223.667 131.001 269c-150.667 -21.333 -241 -57.666 -271 -108.999c-0.666992 -2 -2.33398 -3 -5.00098 -3s-4 1.83301 -4 5.5s0.333008 6.16699 1 7.5
c25.333 69.333 71.666 111.666 138.999 126.999c30.667 6.66699 71.667 10 123 10h198z" />
    <glyph glyph-name="G" unicode="G" horiz-adv-x="740" 
d="M792 313c-4.66699 -24 -12.667 -41.668 -24 -53.001s-26.666 -18.666 -45.999 -21.999c-68 -184 -201 -276 -399 -276c-87.333 0 -154.5 20.5 -201.5 61.5s-70.5 98.5 -70.5 172.5c0 56 13 114.167 39 174.5s60.5 115.5 103.5 165.5s95.833 91.167 158.5 123.5
s124 48.5 184 48.5s106.333 -10.5 139 -31.5s49 -48.667 49 -83s-16.333 -65.333 -49 -93s-69 -41.5 -109 -41.5c-14.667 0 -26.667 3.16699 -36 9.5s-14 14.5 -14 24.5s4 20.667 12 32c7.33301 -2.66699 15.666 -4 24.999 -4c26 0 50 9 72 27s33 39.667 33 65
c0 38.667 -25.167 58 -75.5 58s-100.5 -15.167 -150.5 -45.5s-93.667 -69 -131 -116s-67.833 -100.5 -91.5 -160.5s-35.5 -118.667 -35.5 -176s14.667 -99.666 44 -126.999s68.333 -41 117 -41c70 0 136 21.5 198 64.5s98.333 98.167 109 165.5
c-119.333 0 -191 -1.66699 -215 -5l12.5 23c5 9.33301 14 21.666 27 36.999s23.833 23 32.5 23h293z" />
    <glyph glyph-name="H" unicode="H" horiz-adv-x="680" 
d="M793 698l63.998 0.000976562c-33.333 -26 -75 -92.667 -125 -200c-90 -191.333 -135 -325.666 -135 -402.999c0 -39.333 12.333 -59 37 -59c10.667 0 23.667 4.33301 39 13h1c2 0 3 -2 3 -6c0 -12.667 -16.833 -24.5 -50.5 -35.5s-60.834 -16.5 -81.501 -16.5
c-40.667 0 -61 21.667 -61 65c0 56.667 27 152 81 286h-283c-22 -51.333 -44 -109.5 -66 -174.5s-33 -113.5 -33 -145.5c0 -10 1.33301 -17.333 4 -22h-129c18.667 80.667 58 192.667 118 336c80 190.667 131.667 299 155 325
c-56.667 -1.33301 -114.167 -12.833 -172.5 -34.5s-92.166 -47.5 -101.499 -77.5c-0.666992 -2 -2 -3 -4 -3c-6 0 -9 4.33301 -9 13c0 1.33301 0.666992 4.66602 2 9.99902c12.667 36.667 31 65 55 85s47.5 32.333 70.5 37s51.5 7 85.5 7h226
c-45.333 -34.667 -105.666 -137 -180.999 -307h283c62.667 146.667 107 239 133 277c4.66699 7.33301 13.334 14.166 26.001 20.499s29 9.5 49 9.5z" />
    <glyph glyph-name="I" unicode="I" horiz-adv-x="280" 
d="M237 698l225.999 0.00195312c-46 -35.333 -109.333 -144.666 -190 -327.999c-20.667 -46.667 -44.167 -107.834 -70.5 -183.501s-39.5 -130.834 -39.5 -165.501c0 -9.33301 1.33301 -16.333 4 -21h-129c18.667 80.667 58 192.667 118 336c80 190.667 131.667 299 155 325
c-56.667 -1.33301 -114.167 -12.833 -172.5 -34.5s-92.166 -47.5 -101.499 -77.5c-0.666992 -2 -2 -3 -4 -3c-6 0 -9 4.33301 -9 13c0 1.33301 0.666992 4.66602 2 9.99902c12.667 36.667 31 65 55 85s47.5 32.333 70.5 37s51.5 7 85.5 7z" />
    <glyph glyph-name="J" unicode="J" horiz-adv-x="390" 
d="M-39 -3l-1.00195 -5.99707c0 -18.667 4.83301 -32.5 14.5 -41.5s21.5 -13.5 35.5 -13.5c80.667 0 178.667 142.667 294 428c2 5.33301 6.5 16.666 13.5 33.999s19.5 44 37.5 80s40.167 72.167 66.5 108.5s49.5 58.166 69.5 65.499c-19.333 5.33301 -53.666 8 -102.999 8
s-104.5 -10.667 -165.5 -32s-96.5 -47.666 -106.5 -78.999c-1.33301 -2 -2.66602 -3 -3.99902 -3c-6 0 -9 4.33301 -9 13c0 1.33301 0.666992 4.66602 2 9.99902c12.667 36.667 31 65 55 85s47.5 32.333 70.5 37s51.5 7 85.5 7h47l225 -1
c-39.333 -30 -66.666 -53 -81.999 -69s-31.333 -40.5 -48 -73.5s-32.334 -69.833 -47.001 -110.5s-27 -76.667 -37 -108l-27.5 -84c-8.33301 -24.667 -19.666 -55.334 -33.999 -92.001s-28.333 -69 -42 -97s-30.167 -57.333 -49.5 -88s-39 -56 -59 -76
c-44.667 -46 -92.334 -69 -143.001 -69c-31.333 0 -56.5 8.83301 -75.5 26.5s-28.5 41.167 -28.5 70.5c0 14 3.66699 28.667 11 44s19 24 35 26z" />
    <glyph glyph-name="K" unicode="K" horiz-adv-x="640" 
d="M871 687c-42.667 0 -112.84 -30.6689 -210.507 -92.002s-185.167 -127 -262.5 -197c22 -73.333 61.667 -150.666 119 -231.999s107.333 -136 150 -164c-10 -2 -26 -3 -48 -3l-85 3c-18.667 0 -43.667 21.5 -75 64.5s-59.166 90.833 -83.499 143.5
s-39.166 94.334 -44.499 125.001c-38 -38 -70 -75.667 -96 -113c-10.667 -15.333 -23.167 -45.833 -37.5 -91.5s-21.5 -77.667 -21.5 -96s1.33301 -29.833 4 -34.5h-129c21.333 82 58.833 193.5 112.5 334.5s101.834 241.833 144.501 302.5
c0 0.666992 5.66699 8.66699 17 24c-56.667 -1.33301 -114.167 -12.833 -172.5 -34.5s-92.166 -47.5 -101.499 -77.5c-0.666992 -2 -2 -3 -4 -3c-5.33301 0 -8 4.33301 -8 13c0 1.33301 2.66699 10.333 8 27s15.5 34 30.5 52s32.5 31.333 52.5 40
c32.667 13.333 73.334 20 122.001 20h226c-33.333 -25.333 -72.666 -81.333 -117.999 -168s-82.333 -166 -111 -238c27.333 38.667 63.833 81.5 109.5 128.5s94.667 92 147 135s106.333 78.833 162 107.5s104.334 43 146.001 43s62.5 -4.66699 62.5 -14
c0 -3.33301 -1.66699 -5 -5 -5z" />
    <glyph glyph-name="L" unicode="L" horiz-adv-x="570" 
d="M564 129c-18.667 -58 -45.999 -94.667 -81.999 -110c-19.333 -8 -37.5 -13.167 -54.5 -15.5s-38.833 -3.5 -65.5 -3.5h-303c-26.667 0 -40 18.667 -40 56c0 95.333 79.667 286.666 239 573.999c12 19.333 18.333 29.666 19 30.999
c-56.667 -1.33301 -114.167 -12.833 -172.5 -34.5s-92.166 -47.5 -101.499 -77.5c-0.666992 -2 -2 -3 -4 -3c-6 0 -9 4.33301 -9 13c0 1.33301 2.83301 10.333 8.5 27s16.167 34 31.5 52s32.666 31.333 51.999 40c32.667 13.333 73 20 121 20h227
c-27.333 -20.667 -62.5 -69.667 -105.5 -147s-85 -162.166 -126 -254.499s-61.5 -158.166 -61.5 -197.499c0 -43.333 23.667 -65 71 -65c193.333 0 308.666 38 345.999 114c1.33301 2 3 3 5 3c4.66699 0 7 -3.33301 7 -10c0 -1.33301 -0.666992 -5.33301 -2 -12z" />
    <glyph glyph-name="M" unicode="M" horiz-adv-x="840" 
d="M966 698l61.998 0.000976562c-30 -23.333 -75.333 -95.333 -136 -216c-90 -181.333 -135 -311.666 -135 -390.999c0 -36.667 11.667 -55 35 -55c10.667 0 23.667 4.33301 39 13h1c2 0 3 -1.66699 3 -5c0 -12.667 -16.833 -24.667 -50.5 -36s-61.167 -17 -82.5 -17
c-44.667 0 -67 24.333 -67 73c0 84.667 68 255.667 204 513c-26.667 -25.333 -44.667 -43.333 -54 -54c-64 -71.333 -159.333 -189.333 -286 -354c-26.667 -34 -45 -55.333 -55 -64s-23.167 -13 -39.5 -13s-35.166 5 -56.499 15c16.667 21.333 25 86.166 25 194.499
s-6.66699 206.833 -20 295.5c-24 -44.667 -67.333 -144 -130 -298s-94 -250.667 -94 -290c0 -4.66699 0.333008 -7.66699 1 -9h-92c38 97.333 92.333 225.666 163 384.999s113.667 254 129 284c-60.667 0 -119.834 -12 -177.501 -36s-91.5 -52 -101.5 -84
c-0.666992 -2 -2 -3 -4 -3c-5.33301 0 -8 4.33301 -8 13c0 1.33301 2.66699 10.333 8 27s15.5 34 30.5 52s32.5 31.333 52.5 40c32.667 13.333 73 20 121 20h127c20 0 35.833 -3.33301 47.5 -10s19.834 -22.5 24.501 -47.5s9.16699 -82.667 13.5 -173
s6.5 -153.833 6.5 -190.5s-0.666992 -61.667 -2 -75l370 449c26.667 31.333 69.334 47 128.001 47z" />
    <glyph glyph-name="N" unicode="N" horiz-adv-x="640" 
d="M858 697c-26.667 -17.333 -64.167 -73.334 -112.5 -168.001s-91.333 -193.5 -129 -296.5s-56.5 -174.5 -56.5 -214.5c0 -8.66699 0.666992 -14.667 2 -18h-63c-2 38.667 -8.83301 72.5 -20.5 101.5l-26.5 65l-31 71.5l-39 90
c-34.667 80.667 -54.334 149.334 -59.001 206.001c-44 -98 -87.333 -201.667 -130 -311s-64 -180.666 -64 -213.999c0 -4.66699 0.333008 -7.66699 1 -9h-92c38 97.333 92.333 225.666 163 384.999s113.667 254 129 284c-60.667 0 -119.834 -12 -177.501 -36
s-91.5 -52 -101.5 -84c-0.666992 -2 -2 -3 -4 -3c-5.33301 0 -8 4.33301 -8 13c0 1.33301 2.66699 10.333 8 27s15.5 34 30.5 52s32.5 31.333 52.5 40c32.667 13.333 73 20 121 20h169c-9.33301 -15.333 -14 -34 -14 -56c0 -49.333 19 -118.666 57 -207.999
c34.667 -83.333 55.167 -136.5 61.5 -159.5s10.333 -38.167 12 -45.5s2.83398 -16 3.50098 -26s1.33398 -16.333 2.00098 -19c8.66699 21.333 83 192.666 223 513.999c1.33301 3.33301 7.5 5 18.5 5s25.5 -1 43.5 -3s28.333 -3 31 -3z" />
    <glyph glyph-name="O" unicode="O" horiz-adv-x="763" 
d="M778 303c-44 -100 -106.833 -180.834 -188.5 -242.501s-174.5 -92.5 -278.5 -92.5c-165.333 0 -248 73 -248 219c0 66 13.833 130.833 41.5 194.5s64.167 119.334 109.5 167.001s99 86.167 161 115.5s125.333 44 190 44c84.667 0 148.167 -20.833 190.5 -62.5
s63.5 -93.667 63.5 -156s-13.667 -124.5 -41 -186.5zM736 498.999c0 108.667 -48.667 163 -146 163c-70.667 0 -138.167 -24.333 -202.5 -73s-115 -109.667 -152 -183s-55.5 -146.666 -55.5 -219.999c0 -52.667 11.667 -95.334 35 -128.001s60.5 -49 111.5 -49
s102.167 15.333 153.5 46s95.333 69.834 132 117.501s66.5 100.667 89.5 159s34.5 114.166 34.5 167.499z" />
    <glyph glyph-name="P" unicode="P" horiz-adv-x="490" 
d="M664 548c-4 -44 -18.001 -82.499 -42.001 -115.499s-54.667 -58.5 -92 -76.5c-71.333 -36 -154 -54 -248 -54c-16.667 0 -32 1 -46 3c-55.333 -140 -83 -234.333 -83 -283c0 -10 1.33301 -17.333 4 -22h-129c18.667 80.667 58 192.667 118 336
c80 190.667 131.667 299 155 325c-56.667 -1.33301 -114.167 -12.833 -172.5 -34.5s-92.166 -47.5 -101.499 -77.5c-0.666992 -2 -2 -3 -4 -3c-6 0 -9 4.33301 -9 13c0 1.33301 0.666992 4.66602 2 9.99902c12.667 36.667 31 65 55 85s47.5 32.333 70.5 37s51.5 7 85.5 7
h253c60.667 0 106.5 -13 137.5 -39s46.5 -58.667 46.5 -98v-13zM397.499 346.001c47.667 16.667 86.833 42.168 117.5 76.501s46 75.166 46 122.499c0 76 -46 117 -138 123c-44 -54.667 -97.333 -154 -160 -298l-21 -49h12c48 0 95.833 8.33301 143.5 25z" />
    <glyph glyph-name="Q" unicode="Q" horiz-adv-x="763" 
d="M798 303c-53.333 -120.667 -129.999 -210.668 -229.999 -270.001c5.33301 -12 11.166 -32.167 17.499 -60.5l17.5 -75.5c5.33301 -22 14.166 -41.833 26.499 -59.5s26.333 -26.5 42 -26.5s28.834 5.33301 39.501 16c5.33301 -10.667 8 -20.667 8 -30
c0 -22 -9.5 -40.333 -28.5 -55s-41.167 -22 -66.5 -22s-46.5 6.16699 -63.5 18.5s-29.333 30 -37 53s-13.167 44.833 -16.5 65.5s-6.16602 46 -8.49902 76s-4.5 51.333 -6.5 64c-50.667 -19.333 -104.334 -29 -161.001 -29c-165.333 0 -248 73 -248 219
c0 66 13.833 130.833 41.5 194.5s64.167 119.334 109.5 167.001s99 86.167 161 115.5s125.333 44 190 44c85.333 0 149 -20.833 191 -62.5s63 -93.667 63 -156s-13.667 -124.5 -41 -186.5zM756.001 498.999c0 108.667 -46.668 163.001 -140.001 163.001
c-52 0 -103.667 -15 -155 -45s-95.666 -68.333 -132.999 -115s-67.5 -98.834 -90.5 -156.501s-34.5 -112.5 -34.5 -164.5s11.5 -93.5 34.5 -124.5s57.833 -46.5 104.5 -46.5s93 11.333 139 34c-6.66699 18 -16 31.667 -28 41s-24.333 14 -37 14l-27 -4c-6 0 -9 2 -9 6
c0 8.66699 6.5 15.167 19.5 19.5s26.5 6.5 40.5 6.5c37.333 0 70 -15.667 98 -47c64.667 48.667 117.167 112.5 157.5 191.5s60.5 154.833 60.5 227.5z" />
    <glyph glyph-name="R" unicode="R" horiz-adv-x="610" 
d="M645 562c0 -39.333 -11.668 -73.9971 -35.001 -103.997c-41.333 -54.667 -105 -90 -191 -106l-32 -6c33.333 -116 103.333 -230.667 210 -344c-10 -2 -25.333 -3 -46 -3l-77 3c-26.667 0 -54.834 26.167 -84.501 78.5s-53.167 105.666 -70.5 159.999s-26 90.5 -26 108.5
c0 10 4.66699 15.333 14 16c156.667 19.333 237.334 80.666 242.001 183.999c0 36.667 -10.833 65 -32.5 85s-57.167 31.333 -106.5 34c-52 -70 -109.667 -182 -173 -336c-62.667 -156.667 -94 -260 -94 -310c0 -10 1.33301 -17.333 4 -22h-129
c18.667 80.667 58 192.667 118 336c80 190.667 131.667 299 155 325c-56.667 -1.33301 -114.167 -12.833 -172.5 -34.5s-92.166 -47.5 -101.499 -77.5c-0.666992 -2 -2 -3 -4 -3c-6 0 -9 4.33301 -9 13c0 1.33301 0.666992 4.66602 2 9.99902c12.667 36.667 31 65 55 85
s47.5 32.333 70.5 37s51.5 7 85.5 7h243c61.333 0 107.5 -12.833 138.5 -38.5s46.5 -58.167 46.5 -97.5z" />
    <glyph glyph-name="S" unicode="S" horiz-adv-x="523" 
d="M571 686c26.667 -20 40 -44.1719 40 -72.5049s-9.5 -54.666 -28.5 -78.999s-45.5 -36.5 -79.5 -36.5s-51 14.333 -51 43c0 2.66699 0.666992 8 2 16c18 0 33.667 7 47 21s20 29.333 20 46s-8 30.334 -24 41.001s-35.333 16 -58 16c-38.667 0 -70.667 -11.667 -96 -35
s-38 -50.666 -38 -81.999c0 -16.667 6 -35 18 -55s23.5 -35.833 34.5 -47.5s29 -29 54 -52s39.833 -36.833 44.5 -41.5c50.667 -50.667 76 -105.834 76 -165.501s-27 -111.667 -81 -156s-118.667 -66.5 -194 -66.5c-61.333 0 -110.833 10 -148.5 30s-56.5 51.333 -56.5 94
c0 23.333 7.66699 44.666 23 63.999s37.166 29 65.499 29s47.5 -10 57.5 -30c-23.333 -18.667 -35 -41.167 -35 -67.5s8.83301 -46.666 26.5 -60.999s40.834 -21.5 69.501 -21.5c40 0 75.167 14.333 105.5 43s45.5 64.834 45.5 108.501s-28.667 95.834 -86 156.501
c-0.666992 1.33301 -12.334 13.833 -35.001 37.5s-41.5 47.834 -56.5 72.501s-22.5 54 -22.5 88c0 58 22.667 104.667 68 140s98.833 53 160.5 53s105.834 -10 132.501 -30z" />
    <glyph glyph-name="T" unicode="T" horiz-adv-x="400" 
d="M605 627l-141 6c-6.66699 0 -28.667 -39.833 -66 -119.5s-69.666 -156.834 -96.999 -231.501s-41 -128.5 -41 -161.5s10.5 -49.5 31.5 -49.5s47.5 21.667 79.5 65c3.33301 4 6.66602 6 9.99902 6s5 -3 5 -9s-4.5 -17 -13.5 -33s-20.833 -33.167 -35.5 -51.5
s-33.667 -34.666 -57 -48.999s-47.333 -21.5 -72 -21.5c-36.667 0 -55 25.333 -55 76c0 62.667 31.667 169.334 95 320.001c45.333 106 87 194 125 264h-13l-103 2c-57.333 0 -107.333 -7.33301 -150 -22c-23.333 -8 -41.833 -19.833 -55.5 -35.5s-20.5 -34.5 -20.5 -56.5
l8 -42c0 -6.66699 -3.33301 -10 -10 -10c-8.66699 0 -15.667 8.5 -21 25.5s-8 31.833 -8 44.5c-0 31.333 7.33301 58 22 80s34.667 38.667 60 50c48 21.333 101 32 159 32s123.667 -3.5 197 -10.5s140 -10.5 200 -10.5s99 9.33301 117 28c2 -4.66699 3 -9.33398 3 -14.001
c0 -22 -14 -39.5 -42 -52.5s-65 -19.5 -111 -19.5z" />
    <glyph glyph-name="U" unicode="U" horiz-adv-x="710" 
d="M308 630c12 19.333 18.3359 29.667 19.0029 31c-56.667 -1.33301 -114.167 -12.833 -172.5 -34.5s-92.166 -47.5 -101.499 -77.5c-0.666992 -2 -2 -3 -4 -3c-6 0 -9 4.33301 -9 13c0 1.33301 2.83301 10.333 8.5 27s16.167 34 31.5 52s32.666 31.333 51.999 40
c32.667 13.333 73 20 121 20h227c-30.667 -23.333 -68.5 -77.333 -113.5 -162s-80.5 -159.334 -106.5 -224.001c-36.667 -84.667 -55 -148.5 -55 -191.5s17 -64.5 51 -64.5c28.667 0 65.667 20.5 111 61.5s90 91.167 134 150.5c86.667 118 147.667 209.833 183 275.5
s62.666 107.834 81.999 126.501s40.666 28 63.999 28h62c-31.333 -24 -77 -96 -137 -216c-90 -181.333 -135 -311.666 -135 -390.999c0 -36.667 11.667 -55 35 -55c11.333 0 24.666 4.33301 39.999 13h1c2 0 3 -2 3 -6c0 -12.667 -16.667 -24.334 -50 -35.001
s-60.333 -16 -81 -16c-42.667 0 -64 24.667 -64 74c0 24.667 8.66699 64.167 26 118.5s39.333 110.5 66 168.5c-99.333 -148 -173.333 -243.667 -222 -287c-54 -48.667 -104 -73 -150 -73c-76.667 0 -115 37 -115 111c0 54.667 20.167 132.5 60.5 233.5
s86.5 198.5 138.5 292.5z" />
    <glyph glyph-name="V" unicode="V" horiz-adv-x="450" 
d="M580 698l89.999 0.000976562c-22 -36 -85.667 -134.667 -191 -296l-180 -276.5l-32 -50c-6.66699 -10.333 -11.5 -18 -14.5 -23s-7.66699 -11.5 -14 -19.5s-11.833 -14 -16.5 -18c-12.667 -10 -26 -15 -40 -15h-64c10.667 20.667 17 44.167 19 70.5
s3.5 54.166 4.5 83.499s2.33301 61.166 4 95.499s2.5 69.5 2.5 105.5c0 176.667 -20 265 -60 265c-14 0 -28.333 -11.667 -43 -35l-1 -1c-2.66699 0 -4 2 -4 6v1c8 24.667 26.5 50.834 55.5 78.501s53.833 41.5 74.5 41.5c32.667 0 54.334 -26.5 65.001 -79.5
s16 -130 16 -231s-4 -197.5 -12 -289.5c52.667 74 116.5 176.333 191.5 307s124.833 224 149.5 280z" />
    <glyph glyph-name="W" unicode="W" horiz-adv-x="1000" 
d="M1103 607l-0.00488281 -16c0 -67.333 -20.333 -144 -61 -230s-90.667 -161.667 -150 -227c-32 -34.667 -69.5 -64.667 -112.5 -90s-86.5 -38 -130.5 -38c-82.667 0 -124 62 -124 186c0 45.333 6 98 18 158c-54 -106.667 -105.667 -188.667 -155 -246
c-62.667 -72 -128.334 -108 -197.001 -108c-31.333 0 -57.166 11.667 -77.499 35s-30.5 60.666 -30.5 111.999c0 67.333 23.833 150.5 71.5 249.5s104.5 177.833 170.5 236.5c12 11.333 27 20.333 45 27c-25.333 -5.33301 -64.333 -10.833 -117 -16.5
s-87.667 -10.5 -105 -14.5c-71.333 -16 -107 -58.667 -107 -128c-20.667 21.333 -31 44.333 -31 69c0 88 84.667 132 254 132h205c1.33301 0 2 -1.16699 2 -3.5s-4.16699 -8.16602 -12.5 -17.499s-16.166 -16.333 -23.499 -21c-28.667 -17.333 -61.667 -53.333 -99 -108
s-71.333 -119.5 -102 -194.5s-46 -142.167 -46 -201.5s21 -89 63 -89c47.333 0 121.333 74.667 222 224c20.667 31.333 44.334 78.166 71.001 140.499s45.334 103.666 56.001 123.999s29.834 41 57.501 62s53 31.5 76 31.5s34.5 -3.33301 34.5 -10
c-35.333 -48 -68.666 -113 -99.999 -195s-47 -160.333 -47 -235c0 -91.333 27 -138.666 81 -141.999c34.667 0 68.834 16.667 102.501 50s62 71.833 85 115.5s44.5 92.834 64.5 147.501c34 91.333 51 164 51 218s-17.667 81 -53 81c-10.667 0 -22.667 -2.33301 -36 -7
c1.33301 12 9.5 21.833 24.5 29.5s34.667 11.5 59 11.5s47.166 -8.5 68.499 -25.5s33 -42.5 35 -76.5z" />
    <glyph glyph-name="X" unicode="X" horiz-adv-x="560" 
d="M790 695c-114 -98 -228.669 -205.334 -344.002 -322.001c39.333 -148 73.333 -257 102 -327c10.667 -25.333 18.334 -40.666 23.001 -45.999h-141l-75 280c-88 -92.667 -170.333 -186 -247 -280h-108c134.667 123.333 249 232.333 343 327l-67 261
c-7.33301 28.667 -23.333 43 -48 43s-50 -13 -76 -39c-0.666992 -0.666992 -1.66699 -1 -3 -1c-4.66699 0 -7 2.83301 -7 8.5s1 9.5 3 11.5c22.667 22 50.167 41.833 82.5 59.5s59.833 26.5 82.5 26.5s39 -5 49 -15s16.833 -20.5 20.5 -31.5s9.5 -34.667 17.5 -71l37 -160.5
c85.333 87.333 165.666 174 240.999 260c10.667 11.333 31.667 17 63 17c6.66699 0 15.834 -0.166992 27.501 -0.5s19.834 -0.5 24.501 -0.5z" />
    <glyph glyph-name="Y" unicode="Y" horiz-adv-x="684" 
d="M756 698c-62.667 -43.333 -124.668 -99.665 -186.001 -168.998c-76 -86 -136.667 -178.667 -182 -278c-25.333 -56.667 -44 -113.667 -56 -171c-5.33301 -24.667 -8 -43 -8 -55s1.33301 -20.333 4 -25h-129c2.66699 11.333 15.834 52.666 39.501 123.999
s35.5 122.833 35.5 154.5s-7.66699 74.167 -23 127.5s-35.833 102.166 -61.5 146.499s-50.5 66.5 -74.5 66.5c-30 0 -64.667 -26 -104 -78c-0.666992 -0.666992 -1.33398 -1 -2.00098 -1c-3.33301 0 -5 2.66699 -5 8s0.333008 8.33301 1 9
c23.333 47.333 48 82.166 74 104.499s59 33.5 99 33.5s69 -10.333 87 -31s36.167 -62.167 54.5 -124.5s36.5 -129.833 54.5 -202.5l112 159c60.667 86.667 104.334 147.334 131.001 182.001c10.667 14 38 21 82 21c7.33301 0 17.5 -0.166992 30.5 -0.5
s21.833 -0.5 26.5 -0.5z" />
    <glyph glyph-name="Z" unicode="Z" horiz-adv-x="683" 
d="M800 698c-160.667 -140 -362.997 -330.003 -606.997 -570.003c18.667 -9.33301 46 -17.666 82 -24.999c90.667 -20.667 162 -31 214 -31c83.333 0 125 24 125 72c0 12.667 -4.66699 22.334 -14 29.001c0 1.33301 1.16699 3.33301 3.5 6s4.16602 4 5.49902 4
c18.667 -0.666992 35.167 -7.66699 49.5 -21s21.5 -29.333 21.5 -48c0 -32 -16.5 -61.167 -49.5 -87.5s-73.333 -39.5 -121 -39.5s-94.334 8.33301 -140.001 25s-85.834 33.5 -120.501 50.5s-59.5 25.5 -74.5 25.5s-37.5 -16.5 -67.5 -49.5s-53.667 -49.5 -71 -49.5
c-10.667 0 -19.334 3.83301 -26.001 11.5s-10 17.167 -10 28.5c0 20 10.333 36.333 31 49c84 52 193.333 142.167 328 270.5l289 279.5c-24 -10.667 -53.667 -20 -89 -28s-63.833 -12 -85.5 -12s-54.5 2.16699 -98.5 6.5s-74.167 6.5 -90.5 6.5s-34.333 -8.5 -54 -25.5
s-30.5 -36.833 -32.5 -59.5c0 -4 -3.33301 -6 -10 -6c-4.66699 0 -7 6.66699 -7 20c0 27.333 10.5 56.833 31.5 88.5s41.333 53.334 61 65.001s45.334 17.5 77.001 17.5s74.167 -6 127.5 -18s97.5 -18 132.5 -18s65.5 6.16699 91.5 18.5s47.333 18.5 64 18.5
s28 -1.33301 34 -4z" />
    <glyph glyph-name="bracketleft" unicode="[" horiz-adv-x="455" 
d="M280 712h243l-16 -48h-153l-235 -693h153l-16 -48h-243z" />
    <glyph glyph-name="backslash" unicode="\" horiz-adv-x="455" 
d="M170 699l254.003 -752c0.666992 -2 -5.66602 -3.83301 -18.999 -5.5s-27.333 -2.5 -42 -2.5s-22.334 1 -23.001 3l-254 752c-0.666992 2 5.66602 3.83301 18.999 5.5s27.166 2.5 41.499 2.5s22.166 -1 23.499 -3z" />
    <glyph glyph-name="bracketright" unicode="]" horiz-adv-x="455" 
d="M280 712h243l-267 -789h-243l16 48h153l235 693h-153z" />
    <glyph glyph-name="asciicircum" unicode="^" horiz-adv-x="531" 
d="M527 491l-0.000976562 -1c0 -4 -4.83301 -9.83301 -14.5 -17.5s-17.834 -11.5 -24.501 -11.5c-13.333 0 -31.166 18.833 -53.499 56.5s-41.166 73.5 -56.499 107.5c-33.333 -33.333 -73.666 -69.333 -120.999 -108s-77 -58 -89 -58c-4 0 -6 0.5 -6 1.5
s0.333008 1.83301 1 2.5c78.667 64 150.667 131.333 216 202c8.66699 10 15.167 15 19.5 15s9.83301 -6 16.5 -18c23.333 -50 60.666 -107 111.999 -171z" />
    <glyph glyph-name="underscore" unicode="_" horiz-adv-x="758" 
d="M0 -100h758c0.666992 0 1 -1.66699 1 -5s-6.33301 -14.166 -19 -32.499s-22 -27.5 -28 -27.5h-758c-0.666992 0 -1 1.66699 -1 5s6.16699 14.166 18.5 32.499s21.833 27.5 28.5 27.5z" />
    <glyph glyph-name="grave" unicode="`" horiz-adv-x="531" 
d="M403 580c-28.667 14.667 -48.4971 24.333 -59.4971 29s-16.5 7.66699 -16.5 9c0 4 6.66699 9.66699 20 17s22.666 11 27.999 11s9.33301 -0.666992 12 -2l53 -38l57 -43c15.333 -11.333 25.333 -18 30 -20c0 -2 -3.33301 -4.5 -10 -7.5s-10.834 -4.5 -12.501 -4.5
s-11.834 4.66699 -30.501 14z" />
    <glyph glyph-name="a" unicode="a" horiz-adv-x="473" 
d="M445 400l50.002 -1h10c-22 -18 -49 -63.5 -81 -136.5s-48 -126.167 -48 -159.5c0 -17.333 6 -26 18 -26c38.667 0 88 57 148 171c2.66699 4.66699 5 7 7 7c4 0 6 -6.16699 6 -18.5s-3.33301 -24.166 -10 -35.499c-82 -138 -150.667 -207 -206 -207
c-36 0 -54 27.667 -54 83c0 41.333 7 82 21 122c-76 -134.667 -146.333 -202 -211 -202c-44.667 0 -67 30.667 -67 92c0 46.667 10.167 94 30.5 142s49.5 88.833 87.5 122.5s79.667 50.5 125 50.5c21.333 0 41.333 -4.83301 60 -14.5s31 -25.167 37 -46.5
c7.33301 15.333 18.666 28.666 33.999 39.999s29.666 17 42.999 17zM362.002 334c-6.66699 21.333 -22.332 32.001 -46.999 32.001c-44 0 -86.667 -30.5 -128 -91.5s-62 -115.5 -62 -163.5c0 -20.667 8 -31 24 -31c17.333 0 37.666 10.833 60.999 32.5
s44.333 47.167 63 76.5c41.333 65.333 71 113.666 89 144.999z" />
    <glyph glyph-name="b" unicode="b" horiz-adv-x="443" 
d="M520 256c4 0 6 -6.16699 6 -18.5s-2 -21.833 -6 -28.5l-22 -37c-32.667 -54 -59.334 -90 -80.001 -108c-22.667 -20.667 -44.667 -31 -66 -31c-28 0 -46.667 13 -56 39c-27.333 -27.333 -55 -47.833 -83 -61.5s-59.333 -20.5 -94 -20.5s-59.167 5.5 -73.5 16.5
s-21.5 29.333 -21.5 55s4 54.834 12 87.501c20.667 88 55.334 191.5 104.001 310.5s87 182.167 115 189.5c8.66699 2 24.5 3.16699 47.5 3.5s36.833 0.833008 41.5 1.5c-26 -19.333 -61.167 -76 -105.5 -170s-77.833 -184.333 -100.5 -271c72 127.333 140 191 204 191
c45.333 0 68 -32.5 68 -97.5s-27.333 -131.167 -82 -198.5c0.666992 -11.333 4 -20.333 10 -27s13.667 -10 23 -10s19.5 4.16699 30.5 12.5s19.333 15.666 25 21.999s13.167 15.5 22.5 27.5s20.333 28.167 33 48.5l32.5 52.5c9 14.667 14.167 22 15.5 22zM298 319
c-2 0.666992 -7.16699 1 -15.5 1s-24 -8.66699 -47 -26s-49.833 -50.5 -80.5 -99.5s-46 -89.333 -46 -121s9.66699 -47.5 29 -47.5c35.333 0 73.333 34.167 114 102.5s61 122.166 61 161.499c0 16.667 -5 26.334 -15 29.001z" />
    <glyph glyph-name="c" unicode="c" horiz-adv-x="358" 
d="M434 256c4 0 5.99805 -6.33105 5.99805 -18.998s-5.5 -28.334 -16.5 -47.001s-19.667 -32.834 -26 -42.501s-17.166 -25.167 -32.499 -46.5s-28.666 -36.666 -39.999 -45.999s-25.666 -20.333 -42.999 -33c-29.333 -21.333 -67.5 -32 -114.5 -32s-81 11.833 -102 35.5
s-31.5 54.5 -31.5 92.5c0 70 24.833 134.167 74.5 192.5s108.167 87.5 175.5 87.5c30 0 54 -7.83301 72 -23.5s27 -34.334 27 -56.001s-6 -40.5 -18 -56.5s-25.667 -24 -41 -24c-30 0 -45 12.333 -45 37c0 8 8.33301 15.667 25 23c6.66699 2.66699 12.667 7.66699 18 15
s8 17 8 29c0 17.333 -9.33301 26 -28 26c-40 0 -79.667 -29 -119 -87s-59 -114.167 -59 -168.5s23.667 -81.5 71 -81.5c66 0 130.333 51 193 153l31.5 51c8.33301 14 13.166 21 14.499 21z" />
    <glyph glyph-name="d" unicode="d" horiz-adv-x="476" 
d="M601 654c-22 -16 -50.832 -60.8291 -86.499 -134.496s-67.167 -151.334 -94.5 -233.001s-41 -140.834 -41 -177.501c0 -21.333 5.66699 -32 17 -32s25.5 7.33301 42.5 22s29.167 27 36.5 37s17.166 25.167 29.499 45.5l32 53c9 15 14.167 22.5 15.5 22.5
c4.66699 0 7 -6.33301 7 -19c-0.666992 -23.333 -28.334 -72 -83.001 -146c-18 -24 -39.667 -46.333 -65 -67s-48.333 -31 -69 -31c-35.333 0 -53 26.333 -53 79c0 38.667 9.66699 88.334 29 149.001c-30.667 -60.667 -65.667 -113.334 -105 -158.001
s-78.666 -67 -117.999 -67c-44.667 0 -67 30.667 -67 92c0 46.667 10.167 94 30.5 142s49.5 88.833 87.5 122.5s79.167 50.5 123.5 50.5s74.833 -14.667 91.5 -44c18.667 36.667 37.834 79 57.501 127s32.667 79.167 39 93.5l14 31.5c3 6.66699 6.83301 13 11.5 19
c7.33301 9.33301 16.166 15.166 26.499 17.499s27 3.66602 50 3.99902s36.833 0.833008 41.5 1.5zM356.001 348.004c-8 12 -21.334 18 -40.001 18c-30 0 -60.167 -15.167 -90.5 -45.5s-54.666 -65.333 -72.999 -105s-27.5 -74.5 -27.5 -104.5c0 -20.667 8 -31 24 -31
c54 0 123 89.333 207 268z" />
    <glyph glyph-name="e" unicode="e" horiz-adv-x="358" 
d="M436 260c4 0 5.99902 -6.50098 5.99902 -19.501s-5.33301 -28.5 -16 -46.5l-31.5 -51c-10.333 -16 -24.166 -34.667 -41.499 -56s-34.333 -38.333 -51 -51c-42 -30.667 -84.167 -46 -126.5 -46s-76.5 10.833 -102.5 32.5s-39 54.834 -39 99.501c0 68 25 131 75 189
s108.333 87 175 87c30 0 54 -7.83301 72 -23.5s27 -34.5 27 -56.5c0 -37.333 -17.667 -67.333 -53 -90s-77 -34 -125 -34c-28 0 -48.667 3.66699 -62 11c-12.667 -34 -19 -64 -19 -90c0 -56 23.667 -84 71 -84c28 0 56.833 10.833 86.5 32.5s55 46 76 73
s44.833 65.833 71.5 116.5c2.66699 4.66699 5 7 7 7zM329.999 338.999c0 19.333 -9.33398 28.999 -28.001 28.999c-26 0 -55 -16 -87 -48s-48 -58 -48 -78c0 -13.333 12.667 -20 38 -20s51.833 12.333 79.5 37s42.834 51.334 45.501 80.001z" />
    <glyph glyph-name="f" unicode="f" horiz-adv-x="339" 
d="M133 313c-50 -95.333 -77.668 -143 -83.001 -143c-3.33301 0 -5 5.5 -5 16.5s2 20.5 6 28.5c32.667 56 57.334 109.333 74.001 160c2.66699 8.66699 5.66699 14.5 9 17.5s9 4.5 17 4.5h8l88 -7c4 10 10.833 28.333 20.5 55l22.5 61c5.33301 14 13.333 33 24 57
s20.334 43 29.001 57s20 29.833 34 47.5s28 31.167 42 40.5c34 22.667 70.667 34 110 34c69.333 0 104 -25.667 104 -77c0 -19.333 -5.5 -36.666 -16.5 -51.999s-25.5 -23 -43.5 -23c-8.66699 0 -16.167 2.33301 -22.5 7s-9.5 10.167 -9.5 16.5s5 16.666 15 30.999
s15 26.666 15 36.999s-4.16699 18.833 -12.5 25.5s-18.166 10 -29.499 10c-20 0 -40 -10.667 -60 -32s-38.333 -49.333 -55 -84c-29.333 -60.667 -55.666 -125.334 -78.999 -194.001c-0.666992 -3.33301 -1.33398 -5.66602 -2.00098 -6.99902
c-2 -5.33301 -3.66699 -10 -5 -14c105.333 0 165.333 4.66699 180 14c-8.66699 -21.333 -27.334 -35.333 -56.001 -42s-74.667 -10.667 -138 -12l-29 -84c-41.333 -118.667 -73.333 -200.167 -96 -244.5s-44.167 -82.5 -64.5 -114.5s-40.5 -58.333 -60.5 -79
c-45.333 -48 -92.333 -72 -141 -72c-32.667 0 -56.834 7.66699 -72.501 23s-23.5 32.5 -23.5 51.5s4.33301 34.833 13 47.5s18.334 19 29.001 19s18.667 -2.5 24 -7.5s8 -10.333 8 -16s-3.5 -14.667 -10.5 -27s-10.5 -22.833 -10.5 -31.5s2.33301 -16 7 -22s13 -9 25 -9
s26.167 5.83301 42.5 17.5s32.166 28.5 47.499 50.5c57.333 84.667 133 250.334 227 497.001h-28c-34 0 -56.667 -10.667 -68 -32z" />
    <glyph glyph-name="g" unicode="g" horiz-adv-x="436" 
d="M472 400l40.002 -0.00390625c-14 -9.33301 -29.333 -29.666 -46 -60.999s-30.834 -62.166 -42.501 -92.499l-45.5 -124.5c-41.333 -118.667 -77.333 -197.5 -108 -236.5s-65.167 -69 -103.5 -90s-73.166 -31.5 -104.499 -31.5c-66.667 0 -100 21 -100 63
c0 16.667 5.16699 32.334 15.5 47.001s24.166 22 41.499 22s29 -7 35 -21c-6.66699 -4 -11.834 -11 -15.501 -21s-5.5 -19.5 -5.5 -28.5s3.5 -16.5 10.5 -22.5s16.167 -9 27.5 -9c32 0 61 16.167 87 48.5s48 69.833 66 112.5c4.66699 11.333 36.667 99.333 96 264
c-78.667 -148 -152.667 -222 -222 -222c-45.333 0 -68 30.667 -68 92c0 46.667 10.167 94 30.5 142s49.5 88.833 87.5 122.5s79.667 50.5 125 50.5c20.667 0 40.5 -4.66699 59.5 -14s31.167 -24.666 36.5 -45.999c10 21.333 21.833 36 35.5 44s36.167 12 67.5 12z
M365.002 334.996c-6.66699 21.333 -22.332 31.999 -46.999 31.999c-44 0 -86.833 -30.833 -128.5 -92.5s-62.5 -116.5 -62.5 -164.5c0 -20 8 -30 24 -30c17.333 0 37.666 10.833 60.999 32.5s44.333 47.167 63 76.5c60 92.667 90 141.334 90 146.001z" />
    <glyph glyph-name="h" unicode="h" horiz-adv-x="438" 
d="M510 201c-82 -138 -151.332 -207.002 -207.999 -207.002c-39.333 0 -59 22.667 -59 68c0 52.667 21 127.667 63 225c9.33301 24.667 14 41.667 14 51c0 13.333 -6 20 -18 20c-8 0 -21.5 -4.66699 -40.5 -14s-37.167 -23 -54.5 -41s-31.833 -38.833 -43.5 -62.5
s-21 -44.167 -28 -61.5s-14.167 -38.5 -21.5 -63.5s-13.833 -45.333 -19.5 -61s-11.5 -33.834 -17.5 -54.501h-97c18 46 43.833 119.5 77.5 220.5s62.5 180.333 86.5 238s47.5 106.334 70.5 146.001s49.333 72.834 79 99.501s61 40 94 40s49.5 -15.667 49.5 -47
c0 -22 -9 -51 -27 -87c-38.667 -76 -103.334 -164 -194.001 -264c36 26 64.5 43 85.5 51s41.167 12 60.5 12c38 0 57 -16.667 57 -50c0 -13.333 -2.33301 -25.666 -7 -36.999l-15.5 -39l-14 -36l-14.5 -38c-6 -16 -10.667 -29.667 -14 -41c-8.66699 -28 -13 -50.333 -13 -67
s5.66699 -25 17 -25c40 0 90 58 150 174c2 4.66699 4.5 7 7.5 7s4.5 -6.16699 4.5 -18.5s-3.33301 -24.833 -10 -37.5zM389.001 718.998c-23.333 0 -53.832 -37 -91.499 -111s-74.5 -159 -110.5 -255c91.333 107.333 153.666 195.333 186.999 264c18.667 42 28 69.5 28 82.5
s-4.33301 19.5 -13 19.5z" />
    <glyph glyph-name="i" unicode="i" horiz-adv-x="217" 
d="M322 532h-4.00195c-13.333 0 -26.166 -5.66699 -38.499 -17s-21.166 -23 -26.499 -35c-17.333 6.66699 -26 18.667 -26 36s8 34.833 24 52.5s31.333 26.5 46 26.5s25.667 -3.33301 33 -10s11 -15.167 11 -25.5s-6.33301 -19.5 -19 -27.5zM185.998 400l50 -1h10
c-10.667 -8 -24.834 -29.667 -42.501 -65l-39.5 -80c-8.66699 -18 -18.5 -42.333 -29.5 -73s-16.5 -55.667 -16.5 -75s6.33301 -29 19 -29c8.66699 0 20.834 5.83301 36.501 17.5s28.5 24 38.5 37s21.167 29.5 33.5 49.5l32 52c9 14.667 14.167 22 15.5 22
c4 0 6 -6.16699 6 -18.5s-3.33301 -24.166 -10 -35.499c-24.667 -41.333 -47.167 -75.833 -67.5 -103.5s-43.5 -51.834 -69.5 -72.501s-49.667 -31 -71 -31c-37.333 0 -56 26 -56 78c0 80.667 27.667 170 83 268c23.333 40 49.333 60 78 60z" />
    <glyph glyph-name="j" unicode="j" horiz-adv-x="215" 
d="M206 390l40.0049 -0.00195312c-14.667 -8.66699 -26.334 -21.5 -35.001 -38.5l-20 -39c-4.66699 -9 -10.667 -23.167 -18 -42.5l-17 -44c-12.667 -33.333 -24 -64.666 -34 -93.999s-16.833 -49 -20.5 -59s-10.334 -26.667 -20.001 -50s-17.834 -41.333 -24.501 -54
l-28 -51c-12 -21.333 -23.333 -38 -34 -50s-23.834 -25.5 -39.501 -40.5s-31.5 -26.5 -47.5 -34.5c-37.333 -19.333 -72.333 -29 -105 -29c-67.333 0 -101 20.667 -101 62c0 16.667 5.16699 32.5 15.5 47.5s24.333 22.5 42 22.5s29.5 -7 35.5 -21
c-6.66699 -4 -11.834 -11 -15.501 -21s-5.5 -19.5 -5.5 -28.5s3.5 -16.667 10.5 -23s16.5 -9.5 28.5 -9.5c56 0.666992 106.333 54.334 151 161.001c16 38 36.667 95.333 62 172c48 142 80.333 222 97 240c16 16 43.667 24 83 24zM322.005 531.998h-4.00195
c-13.333 0 -26.166 -5.66699 -38.499 -17s-21.166 -23 -26.499 -35c-17.333 6.66699 -26 18.667 -26 36s8 34.833 24 52.5s31.333 26.5 46 26.5s25.667 -3.33301 33 -10s11 -15.167 11 -25.5s-6.33301 -19.5 -19 -27.5z" />
    <glyph glyph-name="k" unicode="k" horiz-adv-x="411" 
d="M482 199c-23.333 -39.333 -46.999 -75 -70.999 -107c-51.333 -66.667 -102 -100 -152 -100c-27.333 0 -47.833 13.667 -61.5 41s-20.5 57.666 -20.5 90.999c0 66.667 10 100 30 100c31.333 0 60.333 7.16699 87 21.5s40 33.166 40 56.499c0 18.667 -10.667 28 -32 28
c-46 0 -97 -50 -153 -150c-5.33301 -10 -16.5 -33.167 -33.5 -69.5s-32 -63.833 -45 -82.5s-25.833 -28 -38.5 -28h-61c20.667 38.667 51.167 116.834 91.5 234.501s70.166 196.5 89.499 236.5l12.5 26l16 33l17.5 34c8.66699 16.667 15.667 29 21 37l22 34.5
c9.33301 15 17.666 26.5 24.999 34.5l26 28.5c10 11 19.333 19.167 28 24.5c22.667 13.333 43.334 20 62.001 20c36.667 0 55 -16.667 55 -50c0 -46.667 -28.167 -108.5 -84.5 -185.5s-119.833 -149.833 -190.5 -218.5l-18 -50c32 41.333 68.333 77.5 109 108.5
s78 46.5 112 46.5c19.333 0 34.5 -4.66699 45.5 -14s16.5 -22 16.5 -38c0 -36.667 -16.167 -66.167 -48.5 -88.5s-69.5 -36.833 -111.5 -43.5c6 -69.333 15.667 -111.666 29 -126.999c6.66699 -7.33301 15 -11 25 -11s23.667 6 41 18s31.5 25.167 42.5 39.5
s22.667 31.5 35 51.5l32 52c9 14.667 14.167 22 15.5 22c4 0 6 -6.5 6 -19.5s-3.66699 -25.167 -11 -36.5zM384.001 717c-37.333 0 -102.667 -120 -196 -360c85.333 100 145.333 184.333 180 253c20 36 30 65.667 30 89c0 12 -4.66699 18 -14 18z" />
    <glyph glyph-name="l" unicode="l" horiz-adv-x="246" 
d="M415 610c-24 -48.667 -60.668 -103.835 -110.001 -165.502s-93.666 -111.167 -132.999 -148.5l-16 -46c-8 -23.333 -15.667 -51.666 -23 -84.999s-10.666 -57 -9.99902 -71c0 -20 7.33301 -30 22 -30s32.167 8.33301 52.5 25s35.166 31.167 44.499 43.5
s20.166 28.5 32.499 48.5l32 52c9 14.667 14.167 22 15.5 22c4 0 6 -6.16699 6 -18.5s-3.33301 -24.166 -10 -35.499c-36.667 -62 -66.334 -105.667 -89.001 -131c-46 -50.667 -93.333 -76 -142 -76c-37.333 0 -56 25.333 -56 76c0 50 22.333 137.333 67 262
c3.33301 10.667 11 33 23 67s22.333 60.5 31 79.5l35 75.5c14.667 31.333 28.834 56.333 42.501 75s28.834 37.667 45.501 57c32.667 38.667 68 58 106 58s57 -17.333 57 -52c0 -26.667 -7.66699 -54 -23 -82zM393.999 718.999h-6.99902c-40.667 0 -105.667 -122 -195 -366
c91.333 107.333 153.666 195.333 186.999 264c18.667 42 28 69.5 28 82.5s-4.33301 19.5 -13 19.5z" />
    <glyph glyph-name="m" unicode="m" horiz-adv-x="665" 
d="M737 201c-24.667 -41.333 -47.1689 -75.834 -67.502 -103.501s-43.5 -51.834 -69.5 -72.501s-49.667 -31 -71 -31c-39.333 0 -59 22.667 -59 68c0 52.667 21 127.667 63 225c9.33301 24.667 14 41.667 14 51c0 13.333 -6 20 -18 20c-7.33301 0 -20 -4.33301 -38 -13
s-35.167 -21.667 -51.5 -39s-29.5 -33.333 -39.5 -48s-21 -36.667 -33 -66s-20 -50 -24 -62c-19.333 -60 -32.333 -103.333 -39 -130h-98c34.667 96 58.5 160.667 71.5 194s20.833 54 23.5 62l9 28c7.33301 21.333 11 39 11 53s-6.33301 21 -19 21
c-10.667 0 -25.167 -4.66699 -43.5 -14s-36.166 -23 -53.499 -41s-31.833 -38.833 -43.5 -62.5s-21 -44.167 -28 -61.5s-14.167 -38.5 -21.5 -63.5s-13.833 -45.333 -19.5 -61s-11.5 -33.834 -17.5 -54.501h-97c7.33301 28 15.333 53 24 75l65 166
c26.667 66.667 40 115.334 40 146.001c0 6.66699 -0.666992 11 -2 13h42c22.667 0 37.334 -2.16699 44.001 -6.5s10 -10.166 10 -17.499s-4 -24.333 -12 -51c58.667 53.333 117.334 80 176.001 80c35.333 0 53 -14.667 53 -44c0 -12.667 -3.66699 -28.334 -11 -47.001
c60.667 60.667 123 91 187 91c34.667 0 52 -14.667 52 -44c0 -13.333 -2.33301 -26 -7 -38l-18 -46.5l-18 -47c-4.66699 -12.333 -10 -27.5 -16 -45.5c-12.667 -36.667 -19 -63.834 -19 -81.501s5.5 -26.5 16.5 -26.5s24.833 7.33301 41.5 22s29.167 27.334 37.5 38.001
s18.666 25.834 30.999 45.501l31.5 51.5c8.66699 14.667 13.667 22 15 22c4 0 6 -6.16699 6 -18.5s-3.33301 -24.166 -10 -35.499z" />
    <glyph glyph-name="n" unicode="n" horiz-adv-x="436" 
d="M508 201c-24.667 -41.333 -47.165 -75.835 -67.498 -103.502s-43.5 -51.834 -69.5 -72.501s-49.667 -31 -71 -31c-39.333 0 -59 21.667 -59 65s25 130.333 75 261c2.66699 6 4 12.333 4 19c0 14 -8.83301 21 -26.5 21s-35 -5.5 -52 -16.5s-32.5 -26.667 -46.5 -47
s-26.667 -41 -38 -62s-21.833 -45.167 -31.5 -72.5s-17.334 -50.166 -23.001 -68.499s-11.334 -38 -17.001 -59s-8.83398 -32.5 -9.50098 -34.5h-97c0 14 29.333 94.333 88 241c24 68.667 36 116.667 36 144c0 6.66699 -1 11.667 -3 15h42c23.333 0 38.333 -2.33301 45 -7
s10 -11 10 -19s-3.66699 -24.333 -11 -49c56 53.333 112.333 80 169 80c38 0 57 -17.333 57 -52c0 -11.333 -1.66699 -22.666 -5 -33.999s-11.666 -34 -24.999 -68c-29.333 -74.667 -44 -124.667 -44 -150c0 -16 6 -24 18 -24c8.66699 0 20.834 6 36.501 18
s28.667 24.5 39 37.5s21.666 29.333 33.999 49l31.5 51.5c8.66699 14.667 13.667 22 15 22c4 0 6 -6.16699 6 -18.5s-3.33301 -24.166 -10 -35.499z" />
    <glyph glyph-name="o" unicode="o" 
d="M517 246c2 4 4 5.99902 6 5.99902c4 0 6 -5 6 -15c0 -32 -12.833 -58.5 -38.5 -79.5s-49.667 -31.5 -72 -31.5s-41.5 6.33301 -57.5 19c-24 -47.333 -52.5 -84.666 -85.5 -111.999s-75.5 -41 -127.5 -41c-33.333 0 -60.5 10.167 -81.5 30.5s-31.5 51.333 -31.5 93
s9.5 84.667 28.5 129s47.667 82.5 86 114.5s81.166 48 128.499 48c79.333 0 119 -42 119 -126c0 -32 -7 -65.667 -21 -101c10 -14 24.333 -21 43 -21c34.667 0 67.334 29 98.001 87zM350 307.999c-2.66699 35.333 -18.668 53.001 -48.001 53.001
c-46 0 -91 -44.667 -135 -134c-24 -49.333 -36 -94 -36 -134s17.333 -61 52 -63c28.667 0 55.167 15.167 79.5 45.5s44.833 63.833 61.5 100.5c-22.667 19.333 -34 43.666 -34 72.999c0 18 4.83301 32.333 14.5 43s22.834 16 39.501 16h6z" />
    <glyph glyph-name="p" unicode="p" horiz-adv-x="394" 
d="M473 214c-40 -73.333 -83.333 -130.335 -130 -171.002s-102 -61 -166 -61s-100 16.333 -108 49l-56 -175c-13.333 -39.333 -23.5 -64.833 -30.5 -76.5s-14.833 -19.167 -23.5 -22.5s-19.667 -5 -33 -5h-48c17.333 25.333 52.333 112.833 105 262.5
s87.5 245.167 104.5 286.5s29.5 66.333 37.5 75c16 16 43.667 24 83 24h30c-19.333 -13.333 -45.666 -53.333 -78.999 -120c62 82.667 116.667 124 164 124c44.667 0 67 -30.667 67 -92c0 -50.667 -16 -102.667 -48 -156s-69.667 -94.666 -113 -123.999h8
c27.333 0 55.166 11 83.499 33s52.833 46.333 73.5 73c11.333 14.667 27.333 39.5 48 74.5s31.667 52.5 33 52.5c5.33301 0 8 -5.66699 8 -17s-3.33301 -22.666 -10 -33.999zM278 318.998c-2 0.666992 -5.00098 0.996094 -9.00098 0.996094c-14 0 -29.333 -6.66699 -46 -20
c-27.333 -21.333 -56.333 -56.666 -87 -105.999s-46 -89.666 -46 -120.999s9.66699 -47 29 -47c34.667 0 72.334 34.333 113.001 103s61 122.334 61 161.001c0 16.667 -5 26.334 -15 29.001z" />
    <glyph glyph-name="q" unicode="q" horiz-adv-x="463" 
d="M541 258c3.33301 0 5 -6.16699 5 -18.5s-1.83301 -22 -5.5 -29s-10.334 -18.5 -20.001 -34.5l-20 -33c-3.66699 -6 -10.5 -16.167 -20.5 -30.5s-18.333 -24.833 -25 -31.5s-15 -14.334 -25 -23.001c-17.333 -16.667 -35.833 -25 -55.5 -25s-32.5 7.66699 -38.5 23
l-30.5 -104l-34 -115.5c-8.33301 -27.667 -22.666 -48.167 -42.999 -61.5s-52.166 -20 -95.499 -20c24 32.667 52 93.334 84 182.001l48 137.5l46 132.5c-77.333 -140 -149.333 -210 -216 -210c-44.667 0 -67 30.667 -67 92c0 46.667 10.167 94 30.5 142
s49.5 88.833 87.5 122.5s79.667 50.5 125 50.5c20 0 39.167 -4.33301 57.5 -13s30.833 -23 37.5 -43c9.33301 19.333 21 32.833 35 40.5s36 11.5 66 11.5h30c-38.667 -24 -86 -118.667 -142 -284v-5c0 -26.667 9.16699 -40 27.5 -40s45.166 22.333 80.499 67
c9.33301 12 24.333 35 45 69s31.667 51 33 51zM354 321l7 15.999c-7.33301 20 -22.666 30 -45.999 30c-44 0 -86.667 -30.667 -128 -92s-62 -116 -62 -164c0 -20.667 8 -31 24 -31c23.333 0 51.833 19.667 85.5 59s60.667 76.333 81 111s33.166 58.334 38.499 71.001z" />
    <glyph glyph-name="r" unicode="r" horiz-adv-x="336" 
d="M304 402l50.9971 -1.00293h10c-10 -7.33301 -24.167 -29 -42.5 -65l-41 -81.5c-9 -18.333 -19 -43 -30 -74s-16.5 -56.167 -16.5 -75.5s6.66699 -29 20 -29c8.66699 0.666992 20.834 6.83398 36.501 18.501s28.667 24 39 37s21.666 29.667 33.999 50l32 53
c9 15 14.167 22.5 15.5 22.5c4.66699 0 7 -6.16699 7 -18.5s-3.33301 -24.166 -10 -35.499c-28.667 -47.333 -52.334 -83.666 -71.001 -108.999s-41.167 -48.5 -67.5 -69.5s-50.166 -31.5 -71.499 -31.5c-38 0 -57 28 -57 84c0 38 7.33301 81 22 129
s36.334 94.333 65.001 139c-23.333 -18.667 -46.666 -28 -69.999 -28c-7.33301 0 -15 1.66699 -23 5c-47.333 -93.333 -72.833 -140 -76.5 -140s-5.5 5.5 -5.5 16.5s4.16699 26.333 12.5 46s17.333 38.5 27 56.5s14.834 28 15.501 30c-24 12 -36 31.333 -36 58
c0 13.333 4.16699 25.333 12.5 36s19.833 16 34.5 16s26.667 -4.66699 36 -14c-1.33301 -4 -2 -10 -2 -18c0 -18 6.5 -32.167 19.5 -42.5s28.833 -15.5 47.5 -15.5c5.33301 0 9.33301 0.333008 12 1c23.333 33.333 47 50 71 50z" />
    <glyph glyph-name="s" unicode="s" horiz-adv-x="378" 
d="M451 203c-50 -83.333 -95.334 -141.333 -136.001 -174s-93.334 -49 -158.001 -49c-37.333 0 -68.666 7.16699 -93.999 21.5s-38 35.5 -38 63.5c0 16 4.66699 30.667 14 44s22.166 20 38.499 20s26.833 -6 31.5 -18c-12.667 -12.667 -19 -27.334 -19 -44.001
c0 -33.333 18.667 -50 56 -50c22 0 41.167 7.66699 57.5 23s24.5 32.166 24.5 50.499s-4 34.5 -12 48.5s-17.667 26.333 -29 37l-34 32c-27.333 26 -41 55.833 -41 89.5s12.833 62 38.5 85s60.834 34.5 105.501 34.5c28 0 51.667 -5 71 -15s29 -25.5 29 -46.5
s-6.33301 -39.167 -19 -54.5s-29.834 -23 -51.501 -23s-32.5 10 -32.5 30c0 4.66699 7.66699 11.667 23 21s23 19 23 29s-4.16699 17.5 -12.5 22.5s-20.166 7.5 -35.499 7.5s-30.166 -5.33301 -44.499 -16s-21.5 -24.667 -21.5 -42s7.33301 -33.666 22 -48.999
s30.667 -28.333 48 -39s33.333 -25.5 48 -44.5s22 -39 22 -60s-4.83301 -39.833 -14.5 -56.5s-21.167 -30 -34.5 -40c37.333 16 77 56 119 120c4 5.33301 11 16.333 21 33c23.333 42 36.333 63 39 63c4 0 6 -6.16699 6 -18.5s-3.33301 -24.166 -10 -35.499z" />
    <glyph glyph-name="t" unicode="t" horiz-adv-x="249" 
d="M346 573c-32.667 -22.667 -69.332 -80.6709 -109.999 -174.004h101l1 -1c0 -3.33301 -3.66699 -9.16602 -11 -17.499s-13.666 -12.5 -18.999 -12.5h-86c-52.667 -130.667 -79 -214.667 -79 -252c0 -25.333 8 -38 24 -38c23.333 0 50.666 20 81.999 60
c7.33301 8.66699 17 23.334 29 44.001c30.667 49.333 46.667 74 48 74c4 0 6 -5.33301 6 -16c-0.666992 -25.333 -28.334 -74.666 -83.001 -147.999c-18 -24 -39.667 -46.333 -65 -67s-48.333 -31 -69 -31c-38 0 -57 26.667 -57 80c0 44.667 10.667 96 32 154v1
c-12.667 -23.333 -23.5 -40.666 -32.5 -51.999s-14.167 -17 -15.5 -17c-2.66699 0 -4 4.16699 -4 12.5s4.5 21.833 13.5 40.5s21.333 43 37 73s28.5 57.333 38.5 82h-67c-2 0 -3 1.5 -3 4.5s2.5 8.16699 7.5 15.5s8.83301 11 11.5 11h76c48 115.333 96.667 173 146 173
c28.667 0 44.667 0.333008 48 1z" />
    <glyph glyph-name="u" unicode="u" 
d="M416 403l48 -0.996094c10 0 16.333 0.333008 19 1c-18.667 -12.667 -45.5 -56.834 -80.5 -132.501s-52.5 -130.167 -52.5 -163.5c0 -20 6.66699 -30 20 -30c8.66699 0 20.5 5.66699 35.5 17s27.833 23.833 38.5 37.5s22.167 30.5 34.5 50.5l32 52
c9 14.667 14.167 22 15.5 22c4 0 6 -6.33301 6 -19s-3.66699 -24.667 -11 -36c-82.667 -138 -151.667 -207 -207 -207c-37.333 0 -56 27.667 -56 83c0 17.333 1.33301 34 4 50c-62.667 -88.667 -122.334 -133 -179.001 -133c-16.667 0 -30.167 7 -40.5 21
s-15.5 34.667 -15.5 62s9.66699 72.5 29 135.5s43 114.833 71 155.5c6.66699 10 13.834 16.167 21.501 18.5s22.167 3.5 43.5 3.5h48c-16.667 -22.667 -34.667 -53.334 -54 -92.001c-44 -91.333 -66 -158.333 -66 -201c0 -25.333 9.16699 -38 27.5 -38
s40.166 17.667 65.499 53s52.5 81.166 81.5 137.499s45.833 88.166 50.5 95.499c24.667 38.667 48.334 58 71.001 58z" />
    <glyph glyph-name="v" unicode="v" horiz-adv-x="404" 
d="M474 198c-27.333 -48.667 -61.6719 -73.001 -103.005 -73.001c-34.667 0 -59 18.667 -73 56c-58 -87.333 -98.667 -139 -122 -155c-32.667 -22 -64.667 -33 -96 -33c-16 0 -29.167 7.83301 -39.5 23.5s-15.5 37 -15.5 64s8.33301 67.5 25 121.5
c32.667 106 70.334 168 113.001 186c20.667 8.66699 48.667 13 84 13c2.66699 0 4 -1.33301 4 -4s-2 -6 -6 -10c-25.333 -21.333 -52.833 -66.833 -82.5 -136.5s-44.5 -119 -44.5 -148s11 -43.5 33 -43.5c18.667 0 40.334 18.5 65.001 55.5s45.334 77.833 62.001 122.5
c-3.33301 15.333 -5 34.833 -5 58.5s5.83301 47.334 17.5 71.001s27.834 35.5 48.501 35.5s31 -15.333 31 -46c0 -36 -11 -72.667 -33 -110c-6 -10.667 -10 -18 -12 -22c0.666992 -20.667 5.83398 -36.667 15.501 -48s22.167 -17 37.5 -17c24 0 46.333 15 67 45l21.5 32.5
c6.33301 9.66699 9.83301 14.5 10.5 14.5c2.66699 0 4 -7 4 -21s-2.33301 -24.667 -7 -32z" />
    <glyph glyph-name="w" unicode="w" horiz-adv-x="677" 
d="M408 378l54.0039 -1.00098c11.333 0 18 0.333008 20 1c-24.667 -14.667 -54 -70.667 -88 -168c-19.333 -51.333 -29 -90.5 -29 -117.5s10 -40.5 30 -40.5c23.333 0 47.166 13.5 71.499 40.5s42.666 52.833 54.999 77.5s22.166 47 29.499 67c-3.33301 16.667 -5 37 -5 61
s6.16699 47.333 18.5 70s27.833 34 46.5 34c21.333 0 32 -15 32 -45c0 -26.667 -3.33301 -47.667 -10 -63s-13.334 -29.5 -20.001 -42.5l-14 -27.5c0 -19.333 5.16699 -35 15.5 -47s22.166 -18 35.499 -18c31.333 0 63 29 95 87c2 3.33301 3.83301 5 5.5 5
s2.5 -4.66699 2.5 -14c0 -36 -12.333 -63.667 -37 -83s-49.334 -29 -74.001 -29c-36 0 -59.667 18.667 -71 56l-3 10c-41.333 -72 -77.833 -123 -109.5 -153s-69.167 -45 -112.5 -45c-56 0 -84 31.667 -84 95c0 11.333 1.33301 24.333 4 39
c-63.333 -88.667 -125.333 -133 -186 -133c-16.667 0 -30.5 7.33301 -41.5 22s-16.5 35.167 -16.5 61.5s9.33301 67.166 28 122.499c35.333 106.667 74 169 116 187c20 8.66699 48 13 84 13c2 0 3 -1.33301 3 -4c0 2 -2.33301 -0.333008 -7 -7
c-25.333 -36 -51.333 -83.667 -78 -143c-5.33301 -13.333 -13.666 -36.666 -24.999 -69.999s-17 -61.166 -17 -83.499s8.33301 -33.5 25 -33.5c33.333 0 81.666 60.667 144.999 182c26.667 51.333 40.334 77.333 41.001 78c24.667 39.333 48.334 59 71.001 59z" />
    <glyph glyph-name="x" unicode="x" horiz-adv-x="448" 
d="M127 305c-36 -71.333 -57.002 -109.997 -63.002 -115.997c-3.33301 0 -5 6.66699 -5 20s1.33301 22.666 4 27.999c10.667 19.333 21.167 44.166 31.5 74.499s19.5 52.5 27.5 66.5s18 21 30 21h52c8 -44.667 21.333 -96.334 40 -155.001
c16.667 16.667 39.834 42.167 69.501 76.5l60.5 69.5c6 6.66699 16 10 30 10s24.5 -0.166992 31.5 -0.5s11.167 -0.5 12.5 -0.5c-53.333 -47.333 -118.666 -111.333 -195.999 -192c22.667 -73.333 43.334 -119 62.001 -137c9.33301 -8.66699 19 -13 29 -13
c26.667 0 61.667 27 105 81c6.66699 8 16 22 28 42c32 52 48.667 78 50 78c3.33301 0 5 -6.33301 5 -19s-3.66699 -25.334 -11 -38.001c-28 -48 -52.333 -84.333 -73 -109s-44.834 -47.667 -72.501 -69s-54.5 -32 -80.5 -32s-48 11.333 -66 34s-33.667 57.334 -47 104.001
c-56 -56 -96 -99 -120 -129h-74l180 171c-16 44 -29.333 88.667 -40 134z" />
    <glyph glyph-name="y" unicode="y" horiz-adv-x="425" 
d="M440 390l41.0029 -0.00292969c-20.667 -12.667 -41.667 -44 -63 -94c-17.333 -42 -32 -80.167 -44 -114.5l-22 -62.5l-18.5 -53.5c-9.66699 -28.333 -17.5 -50.166 -23.5 -65.499c-16.667 -46.667 -36 -83.667 -58 -111s-49.333 -49.166 -82 -65.499
s-65.667 -24.5 -99 -24.5s-61.833 6.5 -85.5 19.5s-35.5 33.5 -35.5 61.5c0 14.667 4.5 27.834 13.5 39.501s19.333 17.5 31 17.5s21.5 -2.66699 29.5 -8s13.667 -11.333 17 -18c-12 -4 -18 -18 -18 -42c0 -12.667 4.5 -22.834 13.5 -30.501s20.5 -11.5 34.5 -11.5
c54 0 99.333 48.333 136 145l57 152c-31.333 -39.333 -58.5 -68.833 -81.5 -88.5s-41 -31.5 -54 -35.5s-28.333 -6 -46 -6s-31.834 7.16699 -42.501 21.5s-15.834 35.333 -15.501 63s8.33301 67.167 24 118.5s33 92 52 122s38.667 49.333 59 58s48.166 13 83.499 13
c2.66699 0 4 -1.33301 4 -4s-2 -6 -6 -10c-27.333 -24 -55.166 -67 -83.499 -129s-42.5 -114.333 -42.5 -157c0 -22.667 6.33301 -34 19 -34c24 0 54.667 24 92 72s66 96 86 144l11.5 29c5 12.667 8.5 21.334 10.5 26.001s5.16699 11.167 9.5 19.5s8.16602 14 11.499 17
s7.83301 6.83301 13.5 11.5s11.5 7.66699 17.5 9c19.333 4 37.333 6 54 6z" />
    <glyph glyph-name="z" unicode="z" horiz-adv-x="426" 
d="M498 201c-44.667 -74.667 -84.1641 -129.999 -118.497 -165.999s-67.833 -54 -100.5 -54c-17.333 0 -45.333 10 -84 30s-62.167 30 -70.5 30s-13.833 -1 -16.5 -3c-27.333 -32.667 -47.833 -49 -61.5 -49s-20.5 6.66699 -20.5 20s4.16699 24.166 12.5 32.499
s14.666 14.5 18.999 18.5s11 9.33301 20 16s21.5 16.667 37.5 30c48.667 39.333 106 90.666 172 153.999l35 33l-20 3c-47.333 7.33301 -78.666 11 -93.999 11c-35.333 0 -62.333 -8.66699 -81 -26c-2 -2 -13.667 -19.167 -35 -51.5s-32.333 -48.5 -33 -48.5
c-2.66699 0 -4 7 -4 21s2.66699 25.667 8 35s13.5 25.333 24.5 48s18.667 37.834 23 45.501s11.166 17.167 20.499 28.5s19.333 18.833 30 22.5s22 5.5 34 5.5s30.667 -2 56 -6l12 -2c55.333 -10 90 -15 104 -15c22.667 0 44 11.333 64 34c4 4.66699 9.5 7 16.5 7
s17.5 -2.33301 31.5 -7l-325 -312c30.667 -24.667 65 -37 103 -37h4c30 0 59.667 8 89 24s54.666 37.667 75.999 65c8.66699 11.333 23.667 34.5 45 69.5s32.666 52.5 33.999 52.5c3.33301 0 5 -6.33301 5 -19s-4 -26 -12 -40z" />
    <glyph glyph-name="braceleft" unicode="{" horiz-adv-x="457" 
d="M293 -79l-51.998 -2c-66.667 0 -107.167 2.83301 -121.5 8.5s-26.5 11.5 -36.5 17.5c-18.667 11.333 -28 30.666 -28 57.999s9.5 68.5 28.5 123.5s28.5 94.333 28.5 118s-6.66699 42 -20 55s-26.833 21.167 -40.5 24.5s-27.834 5 -42.501 5l10 31c54 4 85.5 9 94.5 15
s18.167 12.667 27.5 20c24 18.667 43 59.667 57 123c5.33301 24.667 10.333 44.5 15 59.5s14.834 31.667 30.501 50s34 32.833 55 43.5s36.833 18.334 47.5 23.001c29.333 12 72 18 128 18h26l-9 -31c-58 0 -101.667 -11 -131 -33c-12 -9.33301 -22.667 -22 -32 -38
s-15.833 -30.5 -19.5 -43.5l-14 -50.5c-5.66699 -20.667 -10.834 -37 -15.501 -49c-13.333 -34 -39.333 -63.333 -78 -88s-78.334 -37.667 -119.001 -39c30.667 -0.666992 59 -10.5 85 -29.5s39 -41.833 39 -68.5s-7.66699 -64 -23 -112s-23 -84.333 -23 -109
c0 -48 35.333 -72 106 -72c4.66699 0 11.5 0.166992 20.5 0.5s15.167 0.5 18.5 0.5z" />
    <glyph glyph-name="bar" unicode="|" horiz-adv-x="457" 
d="M279 697h69l-106 -750h-70z" />
    <glyph glyph-name="braceright" unicode="}" horiz-adv-x="572" 
d="M216 710l51.998 1.99902c66.667 0 107.167 -2.83301 121.5 -8.5s26.5 -11.5 36.5 -17.5c18.667 -11.333 28 -30.666 28 -57.999s-9.5 -68.5 -28.5 -123.5s-28.5 -94.333 -28.5 -118s6.66699 -42 20 -55s26.833 -21.167 40.5 -24.5s27.834 -5 42.501 -5l-10 -31
c-54 -4 -85.5 -9 -94.5 -15s-18.167 -12.667 -27.5 -20c-24 -19.333 -43 -60.666 -57 -123.999c-5.33301 -24.667 -10.333 -44.334 -15 -59.001s-14.834 -31.167 -30.501 -49.5s-34.5 -33 -56.5 -44s-37.667 -18.5 -47 -22.5s-25.5 -8.16699 -48.5 -12.5
s-42.5 -6.5 -58.5 -6.5s-26.833 0.166992 -32.5 0.5s-10.167 0.5 -13.5 0.5l10 31c57.333 0 100.333 11 129 33c12.667 9.33301 23.667 22 33 38s15.833 30.5 19.5 43.5l14 50.5c5.66699 20.667 10.834 37 15.501 49c12.667 34 38.334 63.333 77.001 88
s78.667 37.667 120 39c-31.333 0.666992 -59.833 10.5 -85.5 29.5s-38.5 41.667 -38.5 68s7.66699 63.833 23 112.5s23 85 23 109c0 48 -35.333 72 -106 72c-5.33301 0 -12.333 -0.166992 -21 -0.5s-14.667 -0.5 -18 -0.5z" />
    <glyph glyph-name="asciitilde" unicode="~" horiz-adv-x="514" 
d="M609 688c-37.333 -52.667 -74.3311 -79 -110.998 -79c-22 0 -52.333 7.16699 -91 21.5s-68.667 21.5 -90 21.5c-37.333 0 -62.333 -9.66699 -75 -29c-2 -2.66699 -4.33301 -4 -7 -4c-6 0 -9 3.66699 -9 11s12.167 21 36.5 41s47.666 30 69.999 30
s52.833 -7.16699 91.5 -21.5s67.167 -21.5 85.5 -21.5s34.166 3.66699 47.499 11s23.833 14.5 31.5 21.5s12.167 10.5 13.5 10.5c5.33301 0 8 -3 8 -9c0 -2 -0.333008 -3.33301 -1 -4z" />
    <glyph glyph-name="uni00A0" unicode="&#xa0;" horiz-adv-x="290" 
 />
    <glyph glyph-name="exclamdown" unicode="&#xa1;" horiz-adv-x="375" 
d="M374 490c-7.33301 -1.33301 -18.167 -9.00098 -32.5 -23.001s-23.833 -25.333 -28.5 -34c-32.667 10.667 -49 24.334 -49 41.001c0 12 7.16699 23.667 21.5 35s30.833 17 49.5 17c27.333 0 41 -8.33301 41 -25c0 -2 -0.666992 -5.66699 -2 -11zM83.999 -112.001
l-59.001 4c-1.33301 0 -3.16602 -0.166992 -5.49902 -0.5s-3.83301 -0.5 -4.5 -0.5c36.667 52.667 81.667 130.167 135 232.5s83.666 164.5 90.999 186.5l41 8c-11.333 -25.333 -35.166 -90.333 -71.499 -195l-74.5 -211c-6 -16 -23.333 -24 -52 -24z" />
    <glyph glyph-name="cent" unicode="&#xa2;" horiz-adv-x="481" 
d="M458 476c-9.33301 -26.667 -23.3311 -40.001 -41.998 -40.001c-8.66699 0 -16.167 3.16699 -22.5 9.5s-9.5 13.333 -9.5 21s4.16699 18 12.5 31s12.5 23.833 12.5 32.5c0 16.667 -10.333 26.667 -31 30l-160 -415c28.667 0 61 5.66699 97 17
c22 7.33301 54.333 30.333 97 69c13.333 12.667 21.333 19 24 19s4 -5.33301 4 -16s-5 -23 -15 -37c-26.667 -36.667 -61.334 -63.834 -104.001 -81.501s-84.334 -26.5 -125.001 -26.5l-56 -147c-0.666992 -2 -8 -3 -22 -3s-21 2.33301 -21 7v1l56 146
c-0.666992 0 -1 0.166992 -1 0.5s-0.333008 0.5 -1 0.5c-34.667 7.33301 -60.334 23.333 -77.001 48s-25 59.334 -25 104.001s14.333 94.667 43 150s66.334 101.833 113.001 139.5s94 58.5 142 62.5l39 101c1.33301 2 9 3 23 3s21 -2.33301 21 -7v-1l-38 -99
c22.667 -4 40.5 -12.667 53.5 -26s19.5 -28.666 19.5 -45.999s-2.33301 -33 -7 -47zM177.002 154.999l154 401c-52 -18 -97.333 -59.667 -136 -125s-58 -129.333 -58 -192c0 -42 13.333 -70 40 -84z" />
    <glyph glyph-name="sterling" unicode="&#xa3;" horiz-adv-x="643" 
d="M568 170c14 -0.666992 28.334 -6.16309 43.001 -16.4961s22 -25.833 22 -46.5c0 -28.667 -14.833 -55.167 -44.5 -79.5s-66 -36.5 -109 -36.5s-85 7.5 -126 22.5s-77.167 30.167 -108.5 45.5s-53.833 23 -67.5 23s-26.834 -4.66699 -39.501 -14s-23.334 -20 -32.001 -32
c-21.333 -30 -42 -45 -62 -45c-16 0 -24 10.667 -24 32s9.5 40.666 28.5 57.999s42.167 27.666 69.5 30.999c22 36 51.667 106.333 89 211h-92c-0.666992 0 -1 1.66699 -1 5s3.83301 11.166 11.5 23.499s14.167 18.5 19.5 18.5h79c54.667 151.333 111.667 248 171 290
c27.333 19.333 54.666 29 81.999 29s47.333 -6.66699 60 -20s19 -28.833 19 -46.5s-2.5 -32.834 -7.5 -45.501s-9.83301 -19 -14.5 -19c-1.33301 0 -2 0.666992 -2 2c-5.33301 34.667 -18 52 -38 52c-42.667 0 -101.667 -80.667 -177 -242h118c0.666992 0 1 -1.83301 1 -5.5
s-3.66699 -11.5 -11 -23.5s-13.666 -18 -18.999 -18h-111l-15 -34c-37.333 -84.667 -69.666 -143.667 -96.999 -177c15.333 -2 55.333 -9.83301 120 -23.5s116 -20.5 154 -20.5c77.333 0 116 21.667 116 65c0 12.667 -4.33301 22 -13 28v1c0 1.33301 1 3 3 5s3.66699 3 5 3z
" />
    <glyph glyph-name="currency" unicode="&#xa4;" horiz-adv-x="833" 
d="M565 489l145.999 103.999h1c2 0 3 -6.16699 3 -18.5s-1.66699 -27.166 -5 -44.499s-7.66602 -28 -12.999 -32l-90 -64c9.33301 -20.667 14 -43 14 -67c0 -42.667 -15 -82.334 -45 -119.001l68 -65c2 -2 3 -6.66699 3 -14s-1.5 -17.666 -4.5 -30.999s-6.33301 -25 -10 -35
s-6.16699 -15 -7.5 -15h-1l-111 106c-38 -22 -78.667 -33 -122 -33s-81.666 12.333 -114.999 37l-155 -110h-1c-2 0 -3 6.16699 -3 18.5s1.66699 27.333 5 45s7.33301 28.167 12 31.5l97 68c-12 21.333 -18 45 -18 71c0 42.667 14 82.334 42 119.001l-59 57
c-2 2 -3 7.66699 -3 17s3.16699 24.666 9.5 45.999s11.166 32 14.499 32h1l100 -96c38 23.333 80.167 35 126.5 35s86.5 -14.333 120.5 -43zM317.999 244.999c22 -22.667 50.499 -33.999 85.499 -33.999s68.167 14.5 99.5 43.5s47 62.833 47 101.5s-11.167 69.5 -33.5 92.5
s-51.666 34.5 -87.999 34.5s-69.333 -15.167 -99 -45.5s-44.5 -64.333 -44.5 -102s11 -67.834 33 -90.501z" />
    <glyph glyph-name="yen" unicode="&#xa5;" horiz-adv-x="655" 
d="M727 698c-124.667 -86.667 -230.668 -205.335 -318.001 -356.002h88c0.666992 0 1 -1.66699 1 -5s-5.83301 -13 -17.5 -29s-20.5 -24 -26.5 -24h-76c-16.667 -32 -31.667 -65.667 -45 -101h120c0.666992 0 1 -1.66699 1 -5s-5.83301 -13 -17.5 -29s-20.5 -24 -26.5 -24
h-96c-12.667 -46.667 -19 -78 -19 -94s1.33301 -26.333 4 -31h-129c7.33301 32.667 19.666 74.334 36.999 125.001h-116c-0.666992 0 -1 1.66699 -1 5s5.66699 13 17 29s20.333 24 27 24h93c12 36 18 66.333 18 91v10h-110c-0.666992 0 -1 1.66699 -1 5s5.66699 13 17 29
s20.333 24 27 24h57c-14 61.333 -41.333 141.666 -82 240.999c-12.667 30.667 -29 46 -49 46s-44.667 -12.333 -74 -37l-2 -1c-4 0 -6 2.5 -6 7.5s0.666992 8.16699 2 9.5c22 23.333 49.5 43.833 82.5 61.5s61.333 26.5 85 26.5s39.834 -6.33301 48.501 -19
c18.667 -27.333 53.667 -140.666 105 -339.999l112 159c60.667 86.667 104.334 147.334 131.001 182.001c10.667 14 38 21 82 21c7.33301 0 17.5 -0.166992 30.5 -0.5s21.833 -0.5 26.5 -0.5z" />
    <glyph glyph-name="brokenbar" unicode="&#xa6;" horiz-adv-x="457" 
d="M401 691l-46 -317c0 -2 -7.83301 -3 -23.5 -3s-22.834 2.66699 -21.501 8l46 317c0 2 7.83301 3 23.5 3s22.834 -2.66699 21.501 -8zM340 259l-46 -317c0 -2 -7.83301 -3 -23.5 -3s-22.834 2.66699 -21.501 8l46 317c0 2 7.83301 3 23.5 3s22.834 -2.66699 21.501 -8z
" />
    <glyph glyph-name="section" unicode="&#xa7;" horiz-adv-x="857" 
d="M806 686c26.667 -20 40.0029 -44.1689 40.0029 -72.502s-9.5 -54.666 -28.5 -78.999s-45.5 -36.5 -79.5 -36.5s-51 14.333 -51 43c0 2.66699 0.666992 8 2 16c17.333 0 32.666 6.83301 45.999 20.5s20 29 20 46s-7.83301 30.833 -23.5 41.5s-34.834 16 -57.501 16
c-38.667 0 -70.667 -11.667 -96 -35s-38 -50.666 -38 -81.999c0 -16.667 5.83301 -34.834 17.5 -54.501s23.5 -35.667 35.5 -48s29.667 -29.333 53 -51s38.333 -35.834 45 -42.501c50.667 -51.333 76 -106 76 -164s-24.833 -108.667 -74.5 -152s-109.834 -67 -180.501 -71
c-5.33301 -58 -34.666 -107.667 -87.999 -149s-113.333 -62 -180 -62s-118.667 10.167 -156 30.5s-56 51.5 -56 93.5c0 23.333 7.66699 44.666 23 63.999s37.166 29 65.499 29s47.5 -10 57.5 -30c-23.333 -18.667 -35 -40.834 -35 -66.501s8.16699 -45.667 24.5 -60
s37.833 -22.166 64.5 -23.499c42 0 78.833 13.833 110.5 41.5s47.5 63.834 47.5 108.501s-28.667 97.334 -86 158.001c-0.666992 1.33301 -12.334 13.833 -35.001 37.5s-41.5 47.834 -56.5 72.501s-22.5 54 -22.5 88c0 58 22.667 104.667 68 140s101 53 167 53h21
c-0.666992 3.33301 -1 9 -1 17c0 58 22.667 104.667 68 140s98.833 53 160.5 53s105.834 -10 132.501 -30zM552.003 332.998c-42 44 -68 74.6641 -78 91.9971s-17.333 33 -22 47c-6 -0.666992 -17 -1 -33 -1c-38.667 0 -70.667 -11.667 -96 -35s-38 -50.666 -38 -81.999
c0 -16.667 6 -35 18 -55s23.5 -35.833 34.5 -47.5s29 -29 54 -52s39.833 -36.833 44.5 -41.5c43.333 -43.333 68.333 -90.333 75 -141c36.667 4.66699 68.167 20.834 94.5 48.501s39.5 60.834 39.5 99.501c0 42.667 -20.667 87 -62 133c-18.667 21.333 -29 33 -31 35z" />
    <glyph glyph-name="dieresis" unicode="&#xa8;" horiz-adv-x="580" 
d="M553 609c-13.333 -3.33301 -27.168 -12.498 -41.501 -27.498s-25.166 -22.5 -32.499 -22.5c-14 0 -21 5.66699 -21 17s8.16699 28.666 24.5 51.999s31.5 35 45.5 35c7.33301 0 14.333 -5 21 -15s10 -18.833 10 -26.5s-2 -11.834 -6 -12.501zM365.998 609.002
c-13.333 -3.33301 -27.168 -12.498 -41.501 -27.498s-25.166 -22.5 -32.499 -22.5c-14 0 -21 5.66699 -21 17s8.16699 28.666 24.5 51.999s31.5 35 45.5 35c7.33301 0 14.333 -5 21 -15s10 -18.833 10 -26.5s-2 -11.834 -6 -12.501z" />
    <glyph glyph-name="copyright" unicode="&#xa9;" horiz-adv-x="674" 
d="M790 343c-12.667 -94.667 -59.833 -175.334 -141.5 -242.001s-171.834 -100 -270.501 -100s-179.5 28.833 -242.5 86.5s-94.5 128.834 -94.5 213.501c0 68 19.667 131.667 59 191s91.333 106.333 156 141s133.334 52 206.001 52c95.333 0 174.333 -28.833 237 -86.5
s94 -129.167 94 -214.5c0 -13.333 -1 -27 -3 -41zM602.001 128c76 70 114.001 153.999 114.001 251.999c0 76.667 -25 140.834 -75 192.501s-112.667 77.5 -188 77.5c-88.667 0 -166.5 -34.167 -233.5 -102.5s-100.5 -148.5 -100.5 -240.5c0 -76.667 25 -140.667 75 -192
s114.167 -77 192.5 -77s150.166 30 215.499 90zM588.002 243.999c-63.333 -79.333 -139.333 -118.999 -228 -118.999c-47.333 0 -83.5 15.667 -108.5 47s-37.5 70.666 -37.5 117.999c0 71.333 25.333 138 76 200s112.334 93 185.001 93c32 0 57.333 -8.66699 76 -26
s28 -38 28 -62s-6.16699 -44.667 -18.5 -62s-26.833 -26 -43.5 -26c-33.333 0 -50 14.333 -50 43c0 6 5.66699 11.333 17 16c20.667 8 31 23.667 31 47c0 11.333 -3.16699 20.666 -9.5 27.999s-15.833 11 -28.5 11c-26 0 -52.833 -14 -80.5 -42s-50.667 -63 -69 -105
s-27.5 -81.5 -27.5 -118.5s7.83301 -66.5 23.5 -88.5s38.667 -33 69 -33s61.666 10.333 93.999 31s61.166 47.334 86.499 80.001c2.66699 3.33301 5.33398 5 8.00098 5c8 0 12 -5.16699 12 -15.5s-1.66699 -17.5 -5 -21.5z" />
    <glyph glyph-name="ordfeminine" unicode="&#xaa;" horiz-adv-x="473" 
d="M445 702l50 -0.998047h10c-22 -18 -49 -63.5 -81 -136.5s-48 -126.167 -48 -159.5c0 -17.333 6 -26 18 -26h1c8.66699 0 20.334 5.66699 35.001 17s27.334 23.833 38.001 37.5s22.167 30.5 34.5 50.5l32 52c9 14.667 14.167 22 15.5 22c4 0 6 -6.33301 6 -19
s-3.66699 -24.334 -11 -35.001c-24 -40.667 -46.5 -75.167 -67.5 -103.5s-44.167 -52.833 -69.5 -73.5s-48.333 -31 -69 -31c-36 0 -54 27.667 -54 83c0 41.333 7 82 21 122c-76 -134.667 -146.333 -202 -211 -202c-44.667 0 -67 30.667 -67 92c0 46.667 10.167 94 30.5 142
s49.5 88.833 87.5 122.5s79.667 50.5 125 50.5c21.333 0 41.333 -4.83301 60 -14.5s31 -25.167 37 -46.5c7.33301 15.333 18.666 28.666 33.999 39.999s29.666 17 42.999 17zM362 636.002c-6.66699 21.333 -22.332 32.001 -46.999 32.001c-44 0 -86.667 -30.5 -128 -91.5
s-62 -115.5 -62 -163.5c0 -20.667 8 -31 24 -31c17.333 0 37.666 10.833 60.999 32.5s44.333 47.167 63 76.5c41.333 65.333 71 113.666 89 144.999z" />
    <glyph glyph-name="guillemotleft" unicode="&#xab;" horiz-adv-x="671" 
d="M656 521l2 1c1.33301 0 2 -1.33301 2 -4c0 -16.667 -30.5 -48.334 -91.5 -95.001s-120.833 -87.667 -179.5 -123c36.667 -25.333 74 -54.666 112 -87.999s64.333 -62.666 79 -87.999c0.666992 -0.666992 1 -3.33398 1 -8.00098s-6.16699 -12.5 -18.5 -23.5
s-20.5 -16.5 -24.5 -16.5s-6 0.333008 -6 1c-70 79.333 -137 142 -201 188c-14 10 -21 17.667 -21 23s8.33301 13 25 23c118 66 225 136 321 210zM414 521c0.666992 0.666992 1.50098 1.00293 2.50098 1.00293s1.5 -1 1.5 -3c0 -16.667 -30.333 -48.334 -91 -95.001
s-120.334 -88 -179.001 -124c100 -70.667 163.333 -129.334 190 -176.001c0.666992 -1.33301 1 -4.33301 1 -9s-6.16699 -12.334 -18.5 -23.001s-20.5 -16 -24.5 -16s-6 0.333008 -6 1c-70 79.333 -137 142 -201 188c-13.333 10 -20 17.667 -20 23s8.33301 13 25 23
c110 62 216.667 132 320 210z" />
    <glyph glyph-name="logicalnot" unicode="&#xac;" horiz-adv-x="811" 
d="M711 327l-18.999 -101.999c-26.667 -138 -43.667 -207 -51 -207c-8.66699 0 -14 4.33301 -16 13l21 292l-643 -9v45l666 10c7.33301 0 16.166 -4.33301 26.499 -13s15.5 -18.334 15.5 -29.001z" />
    <glyph glyph-name="uni00AD" unicode="&#xad;" horiz-adv-x="490" 
d="M200 288h279c0.666992 0 1 -1.66699 1 -5s-6.16699 -14.166 -18.5 -32.499s-21.833 -27.5 -28.5 -27.5h-279c-0.666992 0 -1 1.66699 -1 5s6.33301 14.166 19 32.499s22 27.5 28 27.5z" />
    <glyph glyph-name="registered" unicode="&#xae;" horiz-adv-x="831" 
d="M790 343c-12.667 -94.667 -59.833 -175.334 -141.5 -242.001s-171.834 -100 -270.501 -100s-179.5 28.833 -242.5 86.5s-94.5 128.834 -94.5 213.501c0 68 19.667 131.667 59 191s91.333 106.333 156 141s133.334 52 206.001 52c95.333 0 174.333 -28.833 237 -86.5
s94 -129.167 94 -214.5c0 -13.333 -1 -27 -3 -41zM602.001 128c76 70 114.001 153.999 114.001 251.999c0 76.667 -25 140.834 -75 192.501s-112.667 77.5 -188 77.5c-88.667 0 -166.5 -34.167 -233.5 -102.5s-100.5 -148.5 -100.5 -240.5c0 -76.667 25 -140.667 75 -192
s114.167 -77 192.5 -77s150.166 30 215.499 90zM613.002 503.999c0 -38.667 -15.165 -70.1689 -45.498 -94.502s-65.833 -40.166 -106.5 -47.499l-22 -4c23.333 -80 70.666 -157.333 141.999 -232c-4.66699 -1.33301 -15 -2 -31 -2l-52 2c-26 0 -52.833 32.833 -80.5 98.5
s-41.5 110.834 -41.5 135.501c0 6.66699 3 10.334 9 11.001c45.333 4 83.833 16.667 115.5 38s47.5 51.666 47.5 90.999c0 22.667 -7.83301 40.834 -23.5 54.501s-39.167 20.5 -70.5 20.5c-36 -48.667 -75 -124.834 -117 -228.501s-63 -172.5 -63 -206.5
c0 -6.66699 1 -11.667 3 -15h-87c12 54 42 137.667 90 251c43.333 108 77.666 181.333 102.999 220h105c41.333 0 72.5 -8.66699 93.5 -26s31.5 -39.333 31.5 -66z" />
    <glyph glyph-name="macron" unicode="&#xaf;" horiz-adv-x="514" 
d="M315 685h241l1 -1c0 -4 -4.66699 -11.667 -14 -23s-16.333 -17 -21 -17h-241c-0.666992 0 -1 1 -1 3s4.66699 8.83301 14 20.5s16.333 17.5 21 17.5z" />
    <glyph glyph-name="degree" unicode="&#xb0;" horiz-adv-x="833" 
d="M526 588c-10.667 -32 -30.668 -59.168 -60.001 -81.501s-61.666 -33.5 -96.999 -33.5s-60.833 7.83301 -76.5 23.5s-23.5 35.834 -23.5 60.501c0 38 16 72.833 48 104.5s72.333 47.5 121 47.5c31.333 0 54.833 -7.83301 70.5 -23.5s23.5 -35.5 23.5 -59.5
c0 -12 -2 -24.667 -6 -38zM488.999 625.999c0 35.333 -18 53 -54 53c-30 0 -56 -13.667 -78 -41s-33 -55.333 -33 -84c0 -35.333 17.333 -53 52 -53c30 0 56.333 13.833 79 41.5s34 55.5 34 83.5z" />
    <glyph glyph-name="plusminus" unicode="&#xb1;" horiz-adv-x="722" 
d="M108 376l238 -8c36.667 91.333 62.334 160 77.001 206c2 8 15.667 16.667 41 26s41.333 14 48 14s10 -0.333008 10 -1v-1l-110 -244c150.667 1.33301 246.667 3 288 5c0.666992 0 1 -0.666992 1 -2c0 -6 -8.33301 -18 -25 -36s-29.334 -27 -38.001 -27l-248 9
c-18.667 -38 -37.5 -82.333 -56.5 -133s-31.167 -87.334 -36.5 -110.001c-2 -8 -15.833 -16.667 -41.5 -26s-41.834 -14 -48.501 -14s-10 0.333008 -10 1v1c34 62.667 77 156.667 129 282c-125.333 0 -203.5 -1.16699 -234.5 -3.5s-46.5 -3.16602 -46.5 -2.49902
c0 6 8.33301 18.167 25 36.5s29.334 27.5 38.001 27.5zM11 -39h483c0.666992 0 1 -1.5 1 -4.5s-6.16699 -12.667 -18.5 -29s-21.833 -24.5 -28.5 -24.5h-483c-0.666992 0 -1 1.5 -1 4.5s6.16699 12.667 18.5 29s21.833 24.5 28.5 24.5z" />
    <glyph glyph-name="twosuperior" unicode="&#xb2;" horiz-adv-x="491" 
d="M476 596c0 -42 -12.168 -76.8291 -36.501 -104.496s-51.333 -49.5 -81 -65.5s-60.167 -31.333 -91.5 -46c-80.667 -36.667 -139.667 -79 -177 -127c104.667 -36.667 185.667 -55 243 -55c50 0 75 20.333 75 61h19c0 -40.667 -9.66699 -73.834 -29 -99.501
s-50 -38.5 -92 -38.5c-25.333 0 -52.166 7.66699 -80.499 23s-53.833 30.666 -76.5 45.999s-40 23 -52 23s-21 -4.5 -27 -13.5s-9.33301 -19.167 -10 -30.5c-2 -29.333 -12.667 -44 -32 -44c-16.667 0 -25 13.333 -25 40c0 61.333 44.333 124.666 133 189.999
c102 70.667 164.667 121 188 151c25.333 33.333 38 65.333 38 96c0 19.333 -5.5 34.833 -16.5 46.5s-29.333 17.5 -55 17.5s-50 -12.333 -73 -37s-34.5 -51.667 -34.5 -81c0 -8.66699 1.66699 -18 5 -28c-10.667 -6.66699 -22 -10 -34 -10s-22.667 5.66699 -32 17
s-14 26 -14 44c0 31.333 12.667 57.666 38 78.999c44 38 99.667 57 167 57c108.667 0 163 -37 163 -111z" />
    <glyph glyph-name="threesuperior" unicode="&#xb3;" horiz-adv-x="473" 
d="M427 677.5c32 -18.333 47.9941 -47.501 47.9941 -87.501s-13.167 -73 -39.5 -99s-58.166 -45.667 -95.499 -59c32 -6.66699 57.167 -21.167 75.5 -43.5s27.5 -48.166 27.5 -77.499c0 -62 -26.667 -111 -80 -147s-114.666 -54 -183.999 -54c-48.667 0 -90 10.333 -124 31
s-51 51.667 -51 93c0 24 7.83301 46.333 23.5 67s35.5 31 59.5 31c14.667 0 29.334 -5 44.001 -15c-24 -32.667 -36 -62 -36 -88s8.83301 -46 26.5 -60s43.334 -21 77.001 -21s64 14.5 91 43.5s40.5 61.667 40.5 98s-9.83301 65.333 -29.5 87s-45.167 32.5 -76.5 32.5
c-7.33301 0 -17.833 -2 -31.5 -6s-23.5 -6 -29.5 -6s-11.5 2.33301 -16.5 7s-7.5 10.667 -7.5 18s4 13.833 12 19.5s20.167 8.5 36.5 8.5s32.833 -3 49.5 -9c35.333 8.66699 65.666 28.167 90.999 58.5s38 62.166 38 95.499c0 22 -6.5 39.833 -19.5 53.5
s-33.667 20.5 -62 20.5s-53 -11.667 -74 -35s-31.5 -50 -31.5 -80c0 -13.333 2.33301 -25.666 7 -36.999c-9.33301 -6 -20.166 -9 -32.499 -9s-23.166 5.83301 -32.499 17.5s-14 28.167 -14 49.5s6.83301 41 20.5 59s30.834 32 51.501 42c42 19.333 85.833 29 131.5 29
s84.5 -9.16699 116.5 -27.5z" />
    <glyph glyph-name="acute" unicode="&#xb4;" horiz-adv-x="531" 
d="M480 610c-26.667 -11.333 -62 -28.166 -106 -50.499s-67 -33.5 -69 -33.5s-6.16699 1.66699 -12.5 5s-9.5 5.66602 -9.5 6.99902c6 3.33301 27.833 18.833 65.5 46.5l74.5 54.5c2.66699 1.33301 6.66699 2 12 2s14.5 -3.66699 27.5 -11s19.5 -13 19.5 -17
c0 -1.33301 -0.666992 -2.33301 -2 -3z" />
    <glyph glyph-name="mu" unicode="&#xb5;" horiz-adv-x="453" 
d="M417 400l47.9971 -0.99707c10 0 16.333 0.333008 19 1c-19.333 -12.667 -45.833 -56.334 -79.5 -131.001s-50.5 -128.667 -50.5 -162c0 -20 6.66699 -30 20 -30c8.66699 0 20.5 5.66699 35.5 17s27.833 23.833 38.5 37.5s22.167 30.5 34.5 50.5l32 52
c9 14.667 14.167 22 15.5 22c4 0 6 -6.33301 6 -19s-3.66699 -24.334 -11 -35.001c-24 -40.667 -46.5 -75.167 -67.5 -103.5s-44.167 -52.833 -69.5 -73.5s-48.666 -31 -69.999 -31c-37.333 0 -56 27.667 -56 83c0 17.333 1.33301 34 4 50
c-63.333 -88.667 -125.333 -133 -186 -133c-4.66699 0 -8 0.333008 -10 1c-69.333 -154 -162 -231 -278 -231c-24.667 0 -45.834 5 -63.501 15s-26.5 24.5 -26.5 43.5s5.16699 36 15.5 51s24.333 22.5 42 22.5s29.5 -7 35.5 -21c-6.66699 -4 -11.834 -11 -15.501 -21
s-5.5 -19.5 -5.5 -28.5s3.5 -16.667 10.5 -23s16.5 -9.5 28.5 -9.5c56 0 106.333 53.667 151 161c18 44 42.667 114.167 74 210.5s60 164.166 86 203.499c6 9.33301 14 15.333 24 18s26 4 48 4h45c-30.667 -43.333 -59.667 -103.333 -87 -180
c-18.667 -56 -28 -95.167 -28 -117.5s8.33301 -33.5 25 -33.5c18.667 0 40.334 17.5 65.001 52.5s51.334 80.333 80.001 136s45.334 87.167 50.001 94.5c24.667 38.667 48.334 58 71.001 58z" />
    <glyph glyph-name="paragraph" unicode="&#xb6;" horiz-adv-x="558" 
d="M309 698l362 0.00683594c-23.333 -18 -51 -54.167 -83 -108.5s-63.333 -112.833 -94 -175.5s-61.5 -137.834 -92.5 -225.501s-46.5 -149.834 -46.5 -186.501s9.33301 -58.334 28 -65.001h-71c-27.333 0 -41 18.333 -41 55s15 96.5 45 179.5s72.5 182.5 127.5 298.5
s93.833 185.333 116.5 208h-53c-38 -42 -86.667 -122 -146 -240c-22.667 -46.667 -51.667 -114.834 -87 -204.501s-58.333 -154.334 -69 -194.001s-16 -75.334 -16 -107.001s9.33301 -50.834 28 -57.501h-57c-27.333 0 -41 17.833 -41 53.5s10.167 83.334 30.5 143.001
s54.833 148.5 103.5 266.5c-7.33301 -0.666992 -18 -1 -32 -1c-58.667 0 -103 13.5 -133 40.5s-45 60.833 -45 101.5c0 55.333 24.5 105.666 73.5 150.999s113.167 68 192.5 68zM431 678.007h-67c-72 0 -126.833 -17.833 -164.5 -53.5s-56.5 -77.167 -56.5 -124.5
c0 -36.667 11 -68 33 -94s51.667 -39 89 -39c86 188 141.333 291.667 166 311z" />
    <glyph glyph-name="periodcentered" unicode="&#xb7;" horiz-adv-x="271" 
d="M263 323c-3.33301 -3.33301 -9.00098 -10.334 -17.001 -21.001c-21.333 -26.667 -33.666 -40 -36.999 -40c-10 0 -21.667 5.16699 -35 15.5s-20 19.833 -20 28.5c0 14.667 10.167 28.334 30.5 41.001s41.833 19 64.5 19c16 0 24 -7.33301 24 -22
c0 -9.33301 -3.33301 -16.333 -10 -21z" />
    <glyph glyph-name="cedilla" unicode="&#xb8;" horiz-adv-x="674" 
d="M215 -72c-0.666992 -2.66699 -3.83398 -3.66602 -9.50098 -2.99902s-10.5 1 -14.5 1c-23.333 0 -45.666 -15.333 -66.999 -46s-32 -61.334 -32 -92.001s13.333 -46 40 -46c24.667 0 49 12.667 73 38c1.33301 1.33301 2.83301 2 4.5 2s2.5 -2.33301 2.5 -7
c0 -16 -10.5 -29.5 -31.5 -40.5s-43.667 -16.5 -68 -16.5s-42.5 6.83301 -54.5 20.5s-18 31.5 -18 53.5c0 43.333 14.167 79.5 42.5 108.5s63.5 43.5 105.5 43.5h4l20 46c0.666992 2.66699 4.5 4 11.5 4s10.5 -1 10.5 -3z" />
    <glyph glyph-name="onesuperior" unicode="&#xb9;" horiz-adv-x="291" 
d="M194 706l108.001 0.000976562c-29.333 -68.667 -67.333 -170.834 -114 -306.501s-74 -224.167 -82 -265.5h-106c15.333 36 64.666 166 147.999 390l40 109l-111 -100h-48z" />
    <glyph glyph-name="ordmasculine" unicode="&#xba;" horiz-adv-x="436" 
d="M475 498c-43.333 -69.333 -77.334 -116.501 -102.001 -141.501s-47.334 -37.5 -68.001 -37.5s-37 7 -49 21c-38 -34.667 -84.667 -52 -140 -52c-33.333 0 -60.666 10 -81.999 30s-32 51 -32 93s9.5 85.167 28.5 129.5s47.667 82.5 86 114.5s79.833 48 124.5 48
s76.334 -11.5 95.001 -34.5s28 -52.5 28 -88.5c0 -61.333 -23.333 -127 -70 -197c5.33301 -10.667 14 -16 26 -16c21.333 0 49 22.333 83 67c11.333 14.667 26.5 38 45.5 70s29.167 48 30.5 48c4 0 6 -6.16699 6 -18.5s-3.33301 -24.166 -10 -35.499zM286.999 463.999l7 15
c16 37.333 24 74 24 110c0 45.333 -16.333 68 -49 68c-46 0 -91 -44.667 -135 -134c-24 -49.333 -36 -94 -36 -134s17.333 -61 52 -63c28.667 0 57.667 18 87 54l-2 13c-1.33301 8 -2 17.667 -2 29s4 23 12 35s16 18 24 18s14 -3.66699 18 -11z" />
    <glyph glyph-name="guillemotright" unicode="&#xbb;" horiz-adv-x="693" 
d="M696 333c13.333 -10 20 -17.5029 20 -22.5029s-8.33301 -12.5 -25 -22.5c-112 -62.667 -218.667 -133 -320 -211c-0.666992 -0.666992 -1.66699 -1 -3 -1s-2 1.33301 -2 4c0 17.333 30.167 48.833 90.5 94.5s120.5 86.834 180.5 123.501c-98.667 70 -162 129 -190 177
c-0.666992 0.666992 -1 3.33398 -1 8.00098s6 12.334 18 23.001s20 16 24 16s6.33301 -0.333008 7 -1c70 -79.333 137 -142 201 -188zM454 332.997c13.333 -9.33301 20 -16.8359 20 -22.5029s-8 -13.167 -24 -22.5c-111.333 -62 -218.333 -132.333 -321 -211
c-0.666992 -0.666992 -1.66699 -1 -3 -1s-2 1.33301 -2 4c0 17.333 30.833 49.333 92.5 96s121.167 87.334 178.5 122.001c-98.667 70 -162 129 -190 177c-0.666992 0.666992 -1 3.33398 -1 8.00098s6 12.334 18 23.001s20 16 24 16s6.33301 -0.333008 7 -1
c70 -79.333 137 -142 201 -188z" />
    <glyph glyph-name="onequarter" unicode="&#xbc;" horiz-adv-x="993" 
d="M949 334c9.33301 0 18.6699 -4.83301 28.0029 -14.5s14 -22.834 14 -39.501c0 -28 -13.833 -53 -41.5 -75s-65.834 -33 -114.501 -33c-10 0 -17.333 0.333008 -22 1c-27.333 -85.333 -44 -143 -50 -173h-106c9.33301 20.667 33.333 82.667 72 186l-59 16
c-56 16.667 -94.833 25 -116.5 25s-36.834 -3.66699 -45.501 -11s-13.334 -15.333 -14.001 -24c-0.666992 -24 -8.66699 -36 -24 -36c-8 0 -14.833 3 -20.5 9s-8.5 14.333 -8.5 25c0 26.667 12.333 47 37 61l373 321h108c-34 -78 -75 -188.667 -123 -332
c64.667 5.33301 97 25.333 97 60c0 10.667 -3.33301 18.334 -10 23.001c8 7.33301 16.667 11 26 11zM661.004 694l-556 -752c-1.33301 -2 -10.333 -3 -27 -3s-25 2.33301 -25 7v1l556 752c2 2 11.167 3 27.5 3s24.5 -2.33301 24.5 -7v-1zM195.004 706l108 0.000976562
c-29.333 -68.667 -67.333 -170.834 -114 -306.501s-74 -224.167 -82 -265.5h-106c15.333 36 64.333 166 147 390l41 109l-111 -100h-48zM850.004 512.001l-295 -249c34 -2 66.5 -5.66699 97.5 -11s63.167 -9 96.5 -11z" />
    <glyph glyph-name="onehalf" unicode="&#xbd;" horiz-adv-x="950" 
d="M928 464c0 -42 -12.168 -76.8291 -36.501 -104.496s-51.333 -49.5 -81 -65.5s-60.167 -31.333 -91.5 -46c-80.667 -36.667 -139.667 -79 -177 -127c104.667 -36.667 185.667 -55 243 -55c50 0 75 20.333 75 61h19c0 -40.667 -9.66699 -73.834 -29 -99.501
s-50 -38.5 -92 -38.5c-25.333 0 -52.166 7.66699 -80.499 23s-53.833 30.666 -76.5 45.999s-40 23 -52 23s-21 -4.5 -27 -13.5s-9.33301 -19.167 -10 -30.5c-2 -29.333 -12.667 -44 -32 -44c-16.667 0 -25 13.333 -25 40c0 61.333 44.333 124.666 133 189.999
c102 70.667 164.667 121 188 151c25.333 33.333 38 65.333 38 96c0 19.333 -5.5 34.833 -16.5 46.5s-29.333 17.5 -55 17.5s-50 -12.333 -73 -37s-34.5 -51.667 -34.5 -81c0 -8.66699 1.66699 -18 5 -28c-10.667 -6.66699 -22 -10 -34 -10s-22.667 5.66699 -32 17
s-14 26 -14 44c0 31.333 12.667 57.666 38 78.999c44 38 99.667 57 167 57c108.667 0 163 -37 163 -111zM621.999 694.004l-556 -752c-1.33301 -2 -10.333 -3 -27 -3s-25 2.33301 -25 7v1l556 752c2 2 11.167 3 27.5 3s24.5 -2.33301 24.5 -7v-1zM193.999 742.004
l108.001 0.000976562c-29.333 -68.667 -67.333 -170.834 -114 -306.501s-74 -224.167 -82 -265.5h-106c15.333 36 64.666 166 147.999 390l40 109l-111 -100h-48z" />
    <glyph glyph-name="threequarters" unicode="&#xbe;" horiz-adv-x="1220" 
d="M1180 334c9.33301 0 18.6689 -4.83301 28.002 -14.5s14 -22.834 14 -39.501c0 -28 -13.833 -53 -41.5 -75s-65.834 -33 -114.501 -33c-10 0 -17.333 0.333008 -22 1c-27.333 -85.333 -44 -143 -50 -173h-106c9.33301 20.667 33.333 82.667 72 186l-58 16
c-56.667 16.667 -95.834 25 -117.501 25s-36.834 -3.66699 -45.501 -11s-13 -15.333 -13 -24c-1.33301 -24 -9.66602 -36 -24.999 -36c-8 0 -14.833 3 -20.5 9s-8.5 14.333 -8.5 25c0 26.667 12.333 47 37 61l373 321h108c-34 -78 -75 -188.667 -123 -332
c64.667 5.33301 97 25.333 97 60c0 10.667 -3.33301 18.334 -10 23.001c8 7.33301 16.667 11 26 11zM923.003 694l-556 -752c-1.33301 -2 -10.333 -3 -27 -3s-25 2.33301 -25 7v1l556 752c2 2 11.167 3 27.5 3s24.5 -2.33301 24.5 -7v-1zM427.003 677.5
c32 -18.333 47.9941 -47.501 47.9941 -87.501s-13.167 -73 -39.5 -99s-58.166 -45.667 -95.499 -59c32 -6.66699 57.167 -21.167 75.5 -43.5s27.5 -48.166 27.5 -77.499c0 -62 -26.667 -111 -80 -147s-114.666 -54 -183.999 -54c-48.667 0 -90 10.333 -124 31
s-51 51.667 -51 93c0 24 7.83301 46.333 23.5 67s35.5 31 59.5 31c14.667 0 29.334 -5 44.001 -15c-24 -32.667 -36 -62 -36 -88s8.83301 -46 26.5 -60s43.334 -21 77.001 -21s64 14.5 91 43.5s40.5 61.667 40.5 98s-9.83301 65.333 -29.5 87s-45.167 32.5 -76.5 32.5
c-7.33301 0 -17.833 -2 -31.5 -6s-23.5 -6 -29.5 -6s-11.5 2.33301 -16.5 7s-7.5 10.667 -7.5 18s4 13.833 12 19.5s20.167 8.5 36.5 8.5s32.833 -3 49.5 -9c35.333 8.66699 65.666 28.167 90.999 58.5s38 62.166 38 95.499c0 22 -6.5 39.833 -19.5 53.5
s-33.667 20.5 -62 20.5s-53 -11.667 -74 -35s-31.5 -50 -31.5 -80c0 -13.333 2.33301 -25.666 7 -36.999c-9.33301 -6 -20.166 -9 -32.499 -9s-23.166 5.83301 -32.499 17.5s-14 28.167 -14 49.5s6.83301 41 20.5 59s30.834 32 51.501 42c42 19.333 85.833 29 131.5 29
s84.5 -9.16699 116.5 -27.5zM1081 511.999l-295 -249c34 -2 66.5 -5.66699 97.5 -11s63.167 -9 96.5 -11z" />
    <glyph glyph-name="questiondown" unicode="&#xbf;" horiz-adv-x="508" 
d="M371 300l-2 14.998c0 8 4.16699 14.833 12.5 20.5s16.833 8.5 25.5 8.5c15.333 0 23 -9.33301 23 -28c0 -36 -21.333 -70 -64 -102l-18 -12c-96 -61.333 -159.333 -116 -190 -164c-10.667 -18 -16 -34.333 -16 -49c0 -29.333 8 -52.333 24 -69s36.667 -25 62 -25
c18 0 42.667 8.33301 74 25c15.333 8 28.5 20.667 39.5 38s16.5 34.5 16.5 51.5s-2.33301 30.5 -7 40.5c9.33301 5.33301 20.166 8 32.499 8s24 -6 35 -18s16.5 -28 16.5 -48c0 -32 -14.333 -58 -43 -78c-48.667 -35.333 -107.667 -53 -177 -53
c-125.333 0 -188 39.667 -188 119c0 46.667 17 83 51 109c28 20.667 59.5 38.334 94.5 53.001s60.833 26.167 77.5 34.5s35.334 18.833 56.001 31.5c43.333 26.667 65 57.334 65 92.001zM506 493.998c-7.33301 -1.33301 -18.167 -9.00098 -32.5 -23.001
s-23.833 -25.333 -28.5 -34c-32.667 10.667 -49 24.334 -49 41.001c0 12 7.16699 23.667 21.5 35s30.833 17 49.5 17c27.333 0 41 -8.33301 41 -25c0 -2 -0.666992 -5.66699 -2 -11z" />
    <glyph glyph-name="Agrave" unicode="&#xc0;" horiz-adv-x="813" 
d="M408 698l224 0.00195312c-16.667 -16.667 -45.667 -29.334 -87 -38.001s-88 -15.5 -140 -20.5s-86 -9.16699 -102 -12.5c-71.333 -16.667 -107 -59.334 -107 -128.001c-20.667 21.333 -31 44.333 -31 69c0 86.667 81 130 243 130zM683 698.002h72.001
c-30.667 -29.333 -61.834 -109.5 -93.501 -240.5s-47.5 -232.167 -47.5 -303.5c0 -50.667 9.33301 -85.667 28 -105c8 -8.66699 18 -13 30 -13s24.667 4.33301 38 13l6 -9c-9.33301 -13.333 -26 -24.833 -50 -34.5s-47.667 -14.5 -71 -14.5
c-34.667 0 -58.334 12.333 -71.001 37s-20 57.667 -22 99c0 34 4.33301 78 13 132h-229c-99.333 -105.333 -177.333 -191.666 -234 -258.999h-100c62.667 57.333 160 151.333 292 282c170 169.333 281.667 286.666 335 351.999c13.333 16 23.333 27.167 30 33.5
s16.834 13 30.501 20s28.167 10.5 43.5 10.5zM580.001 557.002c-76 -71.333 -159.333 -154 -250 -248h192c12 66 31.333 148.667 58 248zM674.001 780.002c-28.667 14.667 -48.4971 24.333 -59.4971 29s-16.5 7.66699 -16.5 9c0 4 6.66699 9.66699 20 17
s22.666 11 27.999 11s9.33301 -0.666992 12 -2l52 -38l58 -43c15.333 -11.333 25.333 -18 30 -20c0 -2 -3.33301 -4.5 -10 -7.5s-10.834 -4.5 -12.501 -4.5s-11.834 4.66699 -30.501 14z" />
    <glyph glyph-name="Aacute" unicode="&#xc1;" horiz-adv-x="813" 
d="M408 698l224 0.00195312c-16.667 -16.667 -45.667 -29.334 -87 -38.001s-88 -15.5 -140 -20.5s-86 -9.16699 -102 -12.5c-71.333 -16.667 -107 -59.334 -107 -128.001c-20.667 21.333 -31 44.333 -31 69c0 86.667 81 130 243 130zM683 698.002h72.001
c-30.667 -29.333 -61.834 -109.5 -93.501 -240.5s-47.5 -232.167 -47.5 -303.5c0 -50.667 9.33301 -85.667 28 -105c8 -8.66699 18 -13 30 -13s24.667 4.33301 38 13l6 -9c-9.33301 -13.333 -26 -24.833 -50 -34.5s-47.667 -14.5 -71 -14.5
c-34.667 0 -58.334 12.333 -71.001 37s-20 57.667 -22 99c0 34 4.33301 78 13 132h-229c-99.333 -105.333 -177.333 -191.666 -234 -258.999h-100c62.667 57.333 160 151.333 292 282c170 169.333 281.667 286.666 335 351.999c13.333 16 23.333 27.167 30 33.5
s16.834 13 30.501 20s28.167 10.5 43.5 10.5zM580.001 557.002c-76 -71.333 -159.333 -154 -250 -248h192c12 66 31.333 148.667 58 248zM880.001 810.002c-26.667 -11.333 -62 -28.166 -106 -50.499s-67 -33.5 -69 -33.5s-6.16699 1.66699 -12.5 5
s-9.5 5.66602 -9.5 6.99902c6 3.33301 27.833 18.833 65.5 46.5l74.5 54.5c2.66699 1.33301 6.66699 2 12 2s14.5 -3.66699 27.5 -11s19.5 -13 19.5 -17c0 -1.33301 -0.666992 -2.33301 -2 -3z" />
    <glyph glyph-name="Acircumflex" unicode="&#xc2;" horiz-adv-x="813" 
d="M408 698l224 0.00195312c-16.667 -16.667 -45.667 -29.334 -87 -38.001s-88 -15.5 -140 -20.5s-86 -9.16699 -102 -12.5c-71.333 -16.667 -107 -59.334 -107 -128.001c-20.667 21.333 -31 44.333 -31 69c0 86.667 81 130 243 130zM683 698.002h72.001
c-30.667 -29.333 -61.834 -109.5 -93.501 -240.5s-47.5 -232.167 -47.5 -303.5c0 -50.667 9.33301 -85.667 28 -105c8 -8.66699 18 -13 30 -13s24.667 4.33301 38 13l6 -9c-9.33301 -13.333 -26 -24.833 -50 -34.5s-47.667 -14.5 -71 -14.5
c-34.667 0 -58.334 12.333 -71.001 37s-20 57.667 -22 99c0 34 4.33301 78 13 132h-229c-99.333 -105.333 -177.333 -191.666 -234 -258.999h-100c62.667 57.333 160 151.333 292 282c170 169.333 281.667 286.666 335 351.999c13.333 16 23.333 27.167 30 33.5
s16.834 13 30.501 20s28.167 10.5 43.5 10.5zM580.001 557.002c-76 -71.333 -159.333 -154 -250 -248h192c12 66 31.333 148.667 58 248zM876.001 766.002l-0.000976562 -1c0 -2 -4.83301 -5.66699 -14.5 -11s-17.167 -8 -22.5 -8c-9.33301 0 -22.166 12 -38.499 36
s-28.5 45 -36.5 63c-22 -21.333 -46.5 -42.5 -73.5 -63.5s-45.833 -31.5 -56.5 -31.5s-16 1 -16 3v1c64 52 112.667 95.333 146 130c5.33301 6 10.833 9 16.5 9s13.667 -7.5 24 -22.5l37.5 -56c14.667 -22.333 26 -38.5 34 -48.5z" />
    <glyph glyph-name="Atilde" unicode="&#xc3;" horiz-adv-x="813" 
d="M408 698l224 0.00195312c-16.667 -16.667 -45.667 -29.334 -87 -38.001s-88 -15.5 -140 -20.5s-86 -9.16699 -102 -12.5c-71.333 -16.667 -107 -59.334 -107 -128.001c-20.667 21.333 -31 44.333 -31 69c0 86.667 81 130 243 130zM683 698.002h72.001
c-30.667 -29.333 -61.834 -109.5 -93.501 -240.5s-47.5 -232.167 -47.5 -303.5c0 -50.667 9.33301 -85.667 28 -105c8 -8.66699 18 -13 30 -13s24.667 4.33301 38 13l6 -9c-9.33301 -13.333 -26 -24.833 -50 -34.5s-47.667 -14.5 -71 -14.5
c-34.667 0 -58.334 12.333 -71.001 37s-20 57.667 -22 99c0 34 4.33301 78 13 132h-229c-99.333 -105.333 -177.333 -191.666 -234 -258.999h-100c62.667 57.333 160 151.333 292 282c170 169.333 281.667 286.666 335 351.999c13.333 16 23.333 27.167 30 33.5
s16.834 13 30.501 20s28.167 10.5 43.5 10.5zM580.001 557.002c-76 -71.333 -159.333 -154 -250 -248h192c12 66 31.333 148.667 58 248zM940.001 883.002c-28 -48 -54.6689 -71.999 -80.002 -71.999c-15.333 0 -37 6 -65 18s-50.167 18 -66.5 18s-30.5 -5 -42.5 -15
s-18.333 -15 -19 -15c-7.33301 0 -11 3.16699 -11 9.5s8.66699 19.166 26 38.499s34.166 29 50.499 29s39.833 -6.16699 70.5 -18.5s52.834 -18.5 66.501 -18.5s24.334 3.5 32.001 10.5s13.834 13.833 18.501 20.5s9 10 13 10c6 0 9 -2.66699 9 -8
c0 -2 -0.666992 -4.33301 -2 -7z" />
    <glyph glyph-name="Adieresis" unicode="&#xc4;" horiz-adv-x="813" 
d="M408 698l224 0.00195312c-16.667 -16.667 -45.667 -29.334 -87 -38.001s-88 -15.5 -140 -20.5s-86 -9.16699 -102 -12.5c-71.333 -16.667 -107 -59.334 -107 -128.001c-20.667 21.333 -31 44.333 -31 69c0 86.667 81 130 243 130zM683 698.002h72.001
c-30.667 -29.333 -61.834 -109.5 -93.501 -240.5s-47.5 -232.167 -47.5 -303.5c0 -50.667 9.33301 -85.667 28 -105c8 -8.66699 18 -13 30 -13s24.667 4.33301 38 13l6 -9c-9.33301 -13.333 -26 -24.833 -50 -34.5s-47.667 -14.5 -71 -14.5
c-34.667 0 -58.334 12.333 -71.001 37s-20 57.667 -22 99c0 34 4.33301 78 13 132h-229c-99.333 -105.333 -177.333 -191.666 -234 -258.999h-100c62.667 57.333 160 151.333 292 282c170 169.333 281.667 286.666 335 351.999c13.333 16 23.333 27.167 30 33.5
s16.834 13 30.501 20s28.167 10.5 43.5 10.5zM580.001 557.002c-76 -71.333 -159.333 -154 -250 -248h192c12 66 31.333 148.667 58 248zM905.001 809.002c-13.333 -3.33301 -27.168 -12.498 -41.501 -27.498s-25.166 -22.5 -32.499 -22.5c-14 0 -21 5.66699 -21 17
s8.16699 28.666 24.5 51.999s31.5 35 45.5 35c7.33301 0 14.333 -5 21 -15s10 -18.833 10 -26.5s-2 -11.834 -6 -12.501zM717.999 809.004c-13.333 -3.33301 -27.168 -12.498 -41.501 -27.498s-25.166 -22.5 -32.499 -22.5c-14 0 -21 5.66699 -21 17
s8.16699 28.666 24.5 51.999s31.5 35 45.5 35c7.33301 0 14.333 -5 21 -15s10 -18.833 10 -26.5s-2 -11.834 -6 -12.501z" />
    <glyph glyph-name="Aring" unicode="&#xc5;" horiz-adv-x="813" 
d="M408 698l224 0.00195312c-16.667 -16.667 -45.667 -29.334 -87 -38.001s-88 -15.5 -140 -20.5s-86 -9.16699 -102 -12.5c-71.333 -16.667 -107 -59.334 -107 -128.001c-20.667 21.333 -31 44.333 -31 69c0 86.667 81 130 243 130zM683 698.002h72.001
c-30.667 -29.333 -61.834 -109.5 -93.501 -240.5s-47.5 -232.167 -47.5 -303.5c0 -50.667 9.33301 -85.667 28 -105c8 -8.66699 18 -13 30 -13s24.667 4.33301 38 13l6 -9c-9.33301 -13.333 -26 -24.833 -50 -34.5s-47.667 -14.5 -71 -14.5
c-34.667 0 -58.334 12.333 -71.001 37s-20 57.667 -22 99c0 34 4.33301 78 13 132h-229c-99.333 -105.333 -177.333 -191.666 -234 -258.999h-100c62.667 57.333 160 151.333 292 282c170 169.333 281.667 286.666 335 351.999c13.333 16 23.333 27.167 30 33.5
s16.834 13 30.501 20s28.167 10.5 43.5 10.5zM580.001 557.002c-76 -71.333 -159.333 -154 -250 -248h192c12 66 31.333 148.667 58 248z" />
    <glyph glyph-name="AE" unicode="&#xc6;" horiz-adv-x="998" 
d="M884 698l108.999 5.00293c20.667 0 32.167 -4.16699 34.5 -12.5s3.5 -14.5 3.5 -18.5c0 -23.333 -8.16699 -52.833 -24.5 -88.5s-28 -53.5 -35 -53.5s-10.5 2.66699 -10.5 8l8 60c0 20.667 -8.33301 37 -25 49s-36.667 18 -60 18s-40.666 -1.66699 -51.999 -5
s-20.333 -10.333 -27 -21c-48.667 -72.667 -93 -155.334 -133 -248.001h261l1 -1c0 -4.66699 -4.66699 -13.834 -14 -27.501s-17 -20.5 -23 -20.5h-247c-18 -44 -35.667 -93.333 -53 -148s-26 -90.834 -26 -108.501s5.33301 -30.667 16 -39s28.667 -12.5 54 -12.5
c194.667 0 310 38 346 114c0.666992 2 3 3 7 3s6 -2 6 -6s-0.666992 -9.33301 -2 -16c-18.667 -58 -46.334 -94.667 -83.001 -110c-19.333 -8 -37.5 -13.167 -54.5 -15.5s-38.833 -3.5 -65.5 -3.5h-302c-20.667 0 -31 16 -31 48c0 44.667 18.667 115 56 211h-232
c-99.333 -105.333 -177.333 -191.666 -234 -258.999h-100c62.667 57.333 160 151.333 292 282c170 169.333 281.667 286.666 335 351.999c13.333 16 23.333 27.167 30 33.5s16.834 13 30.501 20s28.167 10.5 43.5 10.5h201zM703.999 668.003
c-24.667 -15.333 -56.5 -40.501 -95.5 -75.501s-72.167 -66.5 -99.5 -94.5c-82 -84 -141.667 -147 -179 -189h207l35 82c60.667 146 105 235.667 133 269c0 0.666992 -0.166992 1.83398 -0.5 3.50098s-0.5 3.16699 -0.5 4.5zM407.999 698.002l224 0.00195312
c-16.667 -16.667 -45.667 -29.334 -87 -38.001s-88 -15.5 -140 -20.5s-86 -9.16699 -102 -12.5c-71.333 -16.667 -107 -59.334 -107 -128.001c-20.667 21.333 -31 44.333 -31 69c0 86.667 81 130 243 130z" />
    <glyph glyph-name="Ccedilla" unicode="&#xc7;" horiz-adv-x="651" 
d="M666 556c-10.667 -27.333 -30.4961 -50.332 -59.4961 -68.999s-59.167 -28 -90.5 -28c-14.667 0 -26.667 3.16699 -36 9.5s-14 14.5 -14 24.5s4 20.667 12 32c7.33301 -2.66699 15.666 -4 24.999 -4c26 0 50 9 72 27s33 39.667 33 65c0 38.667 -25.667 58 -77 58
c-68 0 -134.333 -23.333 -199 -70s-116.834 -107.167 -156.501 -181.5s-59.5 -149.833 -59.5 -226.5c0 -118.667 54 -178 162 -178c67.333 0 138.666 26 213.999 78s125.333 108.333 150 169c12.667 -8.66699 19 -20.334 19 -35.001c0 -30 -21.333 -67.167 -64 -111.5
s-96.334 -79.666 -161.001 -105.999s-130.667 -39.5 -198 -39.5c-156.667 0 -235 73 -235 219c0 55.333 12.333 113.166 37 173.499s58 116.333 100 168s94.5 94.167 157.5 127.5s125.167 50 186.5 50s108.333 -10.5 141 -31.5s49 -47.833 49 -80.5
c0 -12 -2.66699 -25.333 -8 -40zM213.004 -89.999c-0.666992 -2.66699 -3.83398 -3.66602 -9.50098 -2.99902s-10.5 1 -14.5 1c-23.333 0 -45.666 -15.333 -66.999 -46s-32 -61.334 -32 -92.001s13.333 -46 40 -46c24.667 0 49 12.667 73 38
c1.33301 1.33301 2.83301 2 4.5 2s2.5 -2.33301 2.5 -7c0 -16 -10.5 -29.5 -31.5 -40.5s-43.667 -16.5 -68 -16.5s-42.5 6.83301 -54.5 20.5s-18 31.5 -18 53.5c0 43.333 14.167 79.5 42.5 108.5s63.5 43.5 105.5 43.5h4l20 46c0.666992 2.66699 4.5 4 11.5 4
s10.5 -1 10.5 -3z" />
    <glyph glyph-name="Egrave" unicode="&#xc8;" horiz-adv-x="587" 
d="M471 698l109.004 5.00391c20.667 0 32.167 -4.16699 34.5 -12.5s3.5 -14.5 3.5 -18.5c0 -23.333 -8.16699 -52.833 -24.5 -88.5s-28 -53.5 -35 -53.5s-10.5 2.66699 -10.5 8l8 60c0 20.667 -8.33301 37 -25 49s-36.667 18 -60 18s-40.666 -1.66699 -51.999 -5
s-20.333 -10.333 -27 -21c-48.667 -72.667 -93 -155.334 -133 -248.001h261l1 -1c0 -4.66699 -4.66699 -13.834 -14 -27.501s-17 -20.5 -23 -20.5h-247c-18 -44 -35.667 -93.333 -53 -148s-26 -90.834 -26 -108.501s5.33301 -30.667 16 -39s28.667 -12.5 54 -12.5
c194.667 0 310 38 346 114c1.33301 2 3.83301 3 7.5 3s5.5 -2 5.5 -6s-0.666992 -9.33301 -2 -16c-18.667 -58 -46.334 -94.667 -83.001 -110c-19.333 -8 -37.5 -13.167 -54.5 -15.5s-38.833 -3.5 -65.5 -3.5h-302c-20.667 0 -31 15.667 -31 47c0 54 29.667 152.333 89 295
h-55c-5.33301 0 -8 1.66699 -8 5c0 6.66699 6.33301 15.667 19 27s23 17 31 17h34c61.333 147.333 105.666 237 132.999 269c-62.667 -8 -119.834 -21.333 -171.501 -40s-85.5 -41.667 -101.5 -69c-0.666992 -2 -2.33398 -3 -5.00098 -3s-4 1.83301 -4 5.5
s0.333008 6.16699 1 7.5c25.333 69.333 71.666 111.666 138.999 126.999c30.667 6.66699 71.667 10 123 10h198zM389.004 780.004c-28.667 14.667 -48.4971 24.333 -59.4971 29s-16.5 7.66699 -16.5 9c0 4 6.66699 9.66699 20 17s22.666 11 27.999 11
s9.33301 -0.666992 12 -2l53 -38l57 -43c15.333 -11.333 25.333 -18 30 -20c0 -2 -3.33301 -4.5 -10 -7.5s-10.834 -4.5 -12.501 -4.5s-11.834 4.66699 -30.501 14z" />
    <glyph glyph-name="Eacute" unicode="&#xc9;" horiz-adv-x="587" 
d="M471 698l109.004 5.00391c20.667 0 32.167 -4.16699 34.5 -12.5s3.5 -14.5 3.5 -18.5c0 -23.333 -8.16699 -52.833 -24.5 -88.5s-28 -53.5 -35 -53.5s-10.5 2.66699 -10.5 8l8 60c0 20.667 -8.33301 37 -25 49s-36.667 18 -60 18s-40.666 -1.66699 -51.999 -5
s-20.333 -10.333 -27 -21c-48.667 -72.667 -93 -155.334 -133 -248.001h261l1 -1c0 -4.66699 -4.66699 -13.834 -14 -27.501s-17 -20.5 -23 -20.5h-247c-18 -44 -35.667 -93.333 -53 -148s-26 -90.834 -26 -108.501s5.33301 -30.667 16 -39s28.667 -12.5 54 -12.5
c194.667 0 310 38 346 114c1.33301 2 3.83301 3 7.5 3s5.5 -2 5.5 -6s-0.666992 -9.33301 -2 -16c-18.667 -58 -46.334 -94.667 -83.001 -110c-19.333 -8 -37.5 -13.167 -54.5 -15.5s-38.833 -3.5 -65.5 -3.5h-302c-20.667 0 -31 15.667 -31 47c0 54 29.667 152.333 89 295
h-55c-5.33301 0 -8 1.66699 -8 5c0 6.66699 6.33301 15.667 19 27s23 17 31 17h34c61.333 147.333 105.666 237 132.999 269c-62.667 -8 -119.834 -21.333 -171.501 -40s-85.5 -41.667 -101.5 -69c-0.666992 -2 -2.33398 -3 -5.00098 -3s-4 1.83301 -4 5.5
s0.333008 6.16699 1 7.5c25.333 69.333 71.666 111.666 138.999 126.999c30.667 6.66699 71.667 10 123 10h198zM562.004 810.004c-26.667 -11.333 -62 -28.166 -106 -50.499s-67 -33.5 -69 -33.5s-6.16699 1.66699 -12.5 5s-9.5 5.66602 -9.5 6.99902
c6 3.33301 27.833 18.833 65.5 46.5l74.5 54.5c2.66699 1.33301 6.66699 2 12 2s14.5 -3.66699 27.5 -11s19.5 -13 19.5 -17c0 -1.33301 -0.666992 -2.33301 -2 -3z" />
    <glyph glyph-name="Ecircumflex" unicode="&#xca;" horiz-adv-x="587" 
d="M471 698l109.004 5.00391c20.667 0 32.167 -4.16699 34.5 -12.5s3.5 -14.5 3.5 -18.5c0 -23.333 -8.16699 -52.833 -24.5 -88.5s-28 -53.5 -35 -53.5s-10.5 2.66699 -10.5 8l8 60c0 20.667 -8.33301 37 -25 49s-36.667 18 -60 18s-40.666 -1.66699 -51.999 -5
s-20.333 -10.333 -27 -21c-48.667 -72.667 -93 -155.334 -133 -248.001h261l1 -1c0 -4.66699 -4.66699 -13.834 -14 -27.501s-17 -20.5 -23 -20.5h-247c-18 -44 -35.667 -93.333 -53 -148s-26 -90.834 -26 -108.501s5.33301 -30.667 16 -39s28.667 -12.5 54 -12.5
c194.667 0 310 38 346 114c1.33301 2 3.83301 3 7.5 3s5.5 -2 5.5 -6s-0.666992 -9.33301 -2 -16c-18.667 -58 -46.334 -94.667 -83.001 -110c-19.333 -8 -37.5 -13.167 -54.5 -15.5s-38.833 -3.5 -65.5 -3.5h-302c-20.667 0 -31 15.667 -31 47c0 54 29.667 152.333 89 295
h-55c-5.33301 0 -8 1.66699 -8 5c0 6.66699 6.33301 15.667 19 27s23 17 31 17h34c61.333 147.333 105.666 237 132.999 269c-62.667 -8 -119.834 -21.333 -171.501 -40s-85.5 -41.667 -101.5 -69c-0.666992 -2 -2.33398 -3 -5.00098 -3s-4 1.83301 -4 5.5
s0.333008 6.16699 1 7.5c25.333 69.333 71.666 111.666 138.999 126.999c30.667 6.66699 71.667 10 123 10h198zM583.004 758.004l-0.000976562 -1c0 -2 -4.83301 -5.66699 -14.5 -11s-17.167 -8 -22.5 -8c-9.33301 0 -22.166 12 -38.499 36s-28.5 45 -36.5 63
c-22 -21.333 -46.5 -42.5 -73.5 -63.5s-45.833 -31.5 -56.5 -31.5s-16 1 -16 3v1c64 52 112.667 95.333 146 130c5.33301 6 10.833 9 16.5 9s13.667 -7.5 24 -22.5l37.5 -56c14.667 -22.333 26 -38.5 34 -48.5z" />
    <glyph glyph-name="Edieresis" unicode="&#xcb;" horiz-adv-x="587" 
d="M471 698l109.004 5.00391c20.667 0 32.167 -4.16699 34.5 -12.5s3.5 -14.5 3.5 -18.5c0 -23.333 -8.16699 -52.833 -24.5 -88.5s-28 -53.5 -35 -53.5s-10.5 2.66699 -10.5 8l8 60c0 20.667 -8.33301 37 -25 49s-36.667 18 -60 18s-40.666 -1.66699 -51.999 -5
s-20.333 -10.333 -27 -21c-48.667 -72.667 -93 -155.334 -133 -248.001h261l1 -1c0 -4.66699 -4.66699 -13.834 -14 -27.501s-17 -20.5 -23 -20.5h-247c-18 -44 -35.667 -93.333 -53 -148s-26 -90.834 -26 -108.501s5.33301 -30.667 16 -39s28.667 -12.5 54 -12.5
c194.667 0 310 38 346 114c1.33301 2 3.83301 3 7.5 3s5.5 -2 5.5 -6s-0.666992 -9.33301 -2 -16c-18.667 -58 -46.334 -94.667 -83.001 -110c-19.333 -8 -37.5 -13.167 -54.5 -15.5s-38.833 -3.5 -65.5 -3.5h-302c-20.667 0 -31 15.667 -31 47c0 54 29.667 152.333 89 295
h-55c-5.33301 0 -8 1.66699 -8 5c0 6.66699 6.33301 15.667 19 27s23 17 31 17h34c61.333 147.333 105.666 237 132.999 269c-62.667 -8 -119.834 -21.333 -171.501 -40s-85.5 -41.667 -101.5 -69c-0.666992 -2 -2.33398 -3 -5.00098 -3s-4 1.83301 -4 5.5
s0.333008 6.16699 1 7.5c25.333 69.333 71.666 111.666 138.999 126.999c30.667 6.66699 71.667 10 123 10h198zM600.004 809.004c-13.333 -3.33301 -27.168 -12.498 -41.501 -27.498s-25.166 -22.5 -32.499 -22.5c-14 0 -21 5.66699 -21 17s8.16699 28.666 24.5 51.999
s31.5 35 45.5 35c7.33301 0 14.333 -5 21 -15s10 -18.833 10 -26.5s-2 -11.834 -6 -12.501zM413.002 809.006c-13.333 -3.33301 -27.168 -12.498 -41.501 -27.498s-25.166 -22.5 -32.499 -22.5c-14 0 -21 5.66699 -21 17s8.16699 28.666 24.5 51.999s31.5 35 45.5 35
c7.33301 0 14.333 -5 21 -15s10 -18.833 10 -26.5s-2 -11.834 -6 -12.501z" />
    <glyph glyph-name="Igrave" unicode="&#xcc;" horiz-adv-x="408" 
d="M217 698l225.999 0.00195312c-46 -35.333 -109.333 -144.666 -190 -327.999c-20.667 -46.667 -44.167 -107.834 -70.5 -183.501s-39.5 -130.834 -39.5 -165.501c0 -9.33301 1.33301 -16.333 4 -21h-129c18.667 80.667 58 192.667 118 336c80 190.667 131.667 299 155 325
c-56.667 -1.33301 -114.167 -12.833 -172.5 -34.5s-92.166 -47.5 -101.499 -77.5c-0.666992 -2 -2 -3 -4 -3c-6 0 -9 4.33301 -9 13c0 1.33301 0.666992 4.66602 2 9.99902c12.667 36.667 31 65 55 85s47.5 32.333 70.5 37s51.5 7 85.5 7zM310.999 780.002
c-28.667 14.667 -48.4971 24.333 -59.4971 29s-16.5 7.66699 -16.5 9c0 4 6.66699 9.66699 20 17s22.666 11 27.999 11s9.33301 -0.666992 12 -2l53 -38l57 -43c15.333 -11.333 25.333 -18 30 -20c0 -2 -3.33301 -4.5 -10 -7.5s-10.834 -4.5 -12.501 -4.5
s-11.834 4.66699 -30.501 14z" />
    <glyph glyph-name="Iacute" unicode="&#xcd;" horiz-adv-x="408" 
d="M217 698l225.999 0.00195312c-46 -35.333 -109.333 -144.666 -190 -327.999c-20.667 -46.667 -44.167 -107.834 -70.5 -183.501s-39.5 -130.834 -39.5 -165.501c0 -9.33301 1.33301 -16.333 4 -21h-129c18.667 80.667 58 192.667 118 336c80 190.667 131.667 299 155 325
c-56.667 -1.33301 -114.167 -12.833 -172.5 -34.5s-92.166 -47.5 -101.499 -77.5c-0.666992 -2 -2 -3 -4 -3c-6 0 -9 4.33301 -9 13c0 1.33301 0.666992 4.66602 2 9.99902c12.667 36.667 31 65 55 85s47.5 32.333 70.5 37s51.5 7 85.5 7zM524.999 810.002
c-26.667 -11.333 -62 -28.166 -106 -50.499s-67 -33.5 -69 -33.5s-6.16699 1.66699 -12.5 5s-9.5 5.66602 -9.5 6.99902c6 3.33301 27.833 18.833 65.5 46.5l74.5 54.5c2.66699 1.33301 6.66699 2 12 2s14.5 -3.66699 27.5 -11s19.5 -13 19.5 -17
c0 -1.33301 -0.666992 -2.33301 -2 -3z" />
    <glyph glyph-name="Icircumflex" unicode="&#xce;" horiz-adv-x="408" 
d="M217 698l225.999 0.00195312c-46 -35.333 -109.333 -144.666 -190 -327.999c-20.667 -46.667 -44.167 -107.834 -70.5 -183.501s-39.5 -130.834 -39.5 -165.501c0 -9.33301 1.33301 -16.333 4 -21h-129c18.667 80.667 58 192.667 118 336c80 190.667 131.667 299 155 325
c-56.667 -1.33301 -114.167 -12.833 -172.5 -34.5s-92.166 -47.5 -101.499 -77.5c-0.666992 -2 -2 -3 -4 -3c-6 0 -9 4.33301 -9 13c0 1.33301 0.666992 4.66602 2 9.99902c12.667 36.667 31 65 55 85s47.5 32.333 70.5 37s51.5 7 85.5 7zM510.999 754.002l-0.000976562 -1
c0 -2 -4.83301 -5.66699 -14.5 -11s-17.167 -8 -22.5 -8c-9.33301 0 -22.166 12 -38.499 36s-28.5 45 -36.5 63c-22 -21.333 -46.5 -42.5 -73.5 -63.5s-45.833 -31.5 -56.5 -31.5s-16 1 -16 3v1c64 52 112.667 95.333 146 130c5.33301 6 10.833 9 16.5 9
s13.667 -7.5 24 -22.5l37.5 -56c14.667 -22.333 26 -38.5 34 -48.5z" />
    <glyph glyph-name="Idieresis" unicode="&#xcf;" horiz-adv-x="408" 
d="M217 698l225.999 0.00195312c-46 -35.333 -109.333 -144.666 -190 -327.999c-20.667 -46.667 -44.167 -107.834 -70.5 -183.501s-39.5 -130.834 -39.5 -165.501c0 -9.33301 1.33301 -16.333 4 -21h-129c18.667 80.667 58 192.667 118 336c80 190.667 131.667 299 155 325
c-56.667 -1.33301 -114.167 -12.833 -172.5 -34.5s-92.166 -47.5 -101.499 -77.5c-0.666992 -2 -2 -3 -4 -3c-6 0 -9 4.33301 -9 13c0 1.33301 0.666992 4.66602 2 9.99902c12.667 36.667 31 65 55 85s47.5 32.333 70.5 37s51.5 7 85.5 7zM510.999 809.002
c-13.333 -3.33301 -27.168 -12.498 -41.501 -27.498s-25.166 -22.5 -32.499 -22.5c-14 0 -21 5.66699 -21 17s8.16699 28.666 24.5 51.999s31.5 35 45.5 35c7.33301 0 14.333 -5 21 -15s10 -18.833 10 -26.5s-2 -11.834 -6 -12.501zM323.997 809.004
c-13.333 -3.33301 -27.168 -12.498 -41.501 -27.498s-25.166 -22.5 -32.499 -22.5c-14 0 -21 5.66699 -21 17s8.16699 28.666 24.5 51.999s31.5 35 45.5 35c7.33301 0 14.333 -5 21 -15s10 -18.833 10 -26.5s-2 -11.834 -6 -12.501z" />
    <glyph glyph-name="Eth" unicode="&#xd0;" horiz-adv-x="731" 
d="M743 358c-12.667 -78.667 -42.3291 -147.002 -88.9961 -205.002s-103.334 -101.333 -170.001 -130s-139 -43 -217 -43c-144.667 0 -217 37 -217 111c0 30 3.83301 56.5 11.5 79.5s12.834 38.167 15.501 45.5c10 30 20 54.667 30 74h-99c-0.666992 0 -1 1.83301 -1 5.5
s4.66699 12.834 14 27.501s17 22 23 22h85c38.667 92 72.5 166.5 101.5 223.5s44.5 86.833 46.5 89.5c-52.667 -4 -106.334 -15.667 -161.001 -35s-90.334 -43.333 -107.001 -72c-0.666992 -2 -2.33398 -3 -5.00098 -3s-4 1.83301 -4 5.5s0.333008 6.16699 1 7.5
c25.333 69.333 71.666 111.666 138.999 126.999c30.667 6.66699 71.667 10 123 10h205c94.667 0 165 -25.667 211 -77s69 -116.666 69 -195.999c0 -19.333 -1.66699 -41.666 -5 -66.999zM638.005 349.998c7.33301 30.667 10.999 59.999 10.999 87.999
c0 64.667 -19 118.334 -57 161.001c-21.333 23.333 -50.5 40.5 -87.5 51.5s-71.5 16.5 -103.5 16.5c-48.667 -64.667 -103.667 -172 -165 -322h117c0.666992 0 1 -1.83301 1 -5.5s-4.66699 -12.834 -14 -27.501s-17 -22 -23 -22h-102c-1.33301 -4 -4.5 -12 -9.5 -24
s-8.5 -20.667 -10.5 -26l-9 -25c-4 -11.333 -7 -20.166 -9 -26.499s-4.5 -14.666 -7.5 -24.999s-5.16699 -19.5 -6.5 -27.5c-3.33301 -18.667 -5 -38.167 -5 -58.5s6.66699 -34.5 20 -42.5s37 -12 71 -12c92.667 0 175.334 31.167 248.001 93.5s119.667 140.166 141 233.499
z" />
    <glyph glyph-name="Ntilde" unicode="&#xd1;" horiz-adv-x="703" 
d="M858 697c-26.667 -17.333 -64.167 -73.334 -112.5 -168.001s-91.333 -193.5 -129 -296.5s-56.5 -174.5 -56.5 -214.5c0 -8.66699 0.666992 -14.667 2 -18h-63c-2 38.667 -8.83301 72.5 -20.5 101.5l-26.5 65l-31 71.5l-39 90
c-34.667 80.667 -54.334 149.334 -59.001 206.001c-44 -98 -87.333 -201.667 -130 -311s-64 -180.666 -64 -213.999c0 -4.66699 0.333008 -7.66699 1 -9h-92c38 97.333 92.333 225.666 163 384.999s113.667 254 129 284c-60.667 0 -119.834 -12 -177.501 -36
s-91.5 -52 -101.5 -84c-0.666992 -2 -2 -3 -4 -3c-5.33301 0 -8 4.33301 -8 13c0 1.33301 2.66699 10.333 8 27s15.5 34 30.5 52s32.5 31.333 52.5 40c32.667 13.333 73 20 121 20h169c-9.33301 -15.333 -14 -34 -14 -56c0 -49.333 19 -118.666 57 -207.999
c34.667 -83.333 55.167 -136.5 61.5 -159.5s10.333 -38.167 12 -45.5s2.83398 -16 3.50098 -26s1.33398 -16.333 2.00098 -19c8.66699 21.333 83 192.666 223 513.999c1.33301 3.33301 7.5 5 18.5 5s25.5 -1 43.5 -3s28.333 -3 31 -3zM756 882.999
c-28 -48 -54.6689 -71.999 -80.002 -71.999c-15.333 0 -37 6 -65 18s-50.167 18 -66.5 18s-30.5 -5 -42.5 -15s-18.333 -15 -19 -15c-7.33301 0 -11 3.16699 -11 9.5s8.66699 19.166 26 38.499s34.166 29 50.499 29s39.833 -6.16699 70.5 -18.5s52.834 -18.5 66.501 -18.5
s24.334 3.5 32.001 10.5s13.834 13.833 18.501 20.5s9 10 13 10c6 0 9 -2.66699 9 -8c0 -2 -0.666992 -4.33301 -2 -7z" />
    <glyph glyph-name="Ograve" unicode="&#xd2;" horiz-adv-x="763" 
d="M718 303c-44 -100 -106.833 -180.834 -188.5 -242.501s-174.5 -92.5 -278.5 -92.5c-165.333 0 -248 73 -248 219c0 66 13.833 130.833 41.5 194.5s64.167 119.334 109.5 167.001s99 86.167 161 115.5s125.333 44 190 44c84.667 0 148.167 -20.833 190.5 -62.5
s63.5 -93.667 63.5 -156s-13.667 -124.5 -41 -186.5zM676 498.999c0 108.667 -48.667 163 -146 163c-70.667 0 -138.167 -24.333 -202.5 -73s-115 -109.667 -152 -183s-55.5 -146.666 -55.5 -219.999c0 -52.667 11.667 -95.334 35 -128.001s60.5 -49 111.5 -49
s102.167 15.333 153.5 46s95.333 69.834 132 117.501s66.5 100.667 89.5 159s34.5 114.166 34.5 167.499zM504 797.999c-28.667 14.667 -48.4971 24.333 -59.4971 29s-16.5 7.66699 -16.5 9c0 4 6.66699 9.66699 20 17s22.666 11 27.999 11s9.33301 -0.666992 12 -2l52 -38
l58 -43c15.333 -11.333 25.333 -18 30 -20c0 -2 -3.33301 -4.5 -10 -7.5s-10.834 -4.5 -12.501 -4.5s-11.834 4.66699 -30.501 14z" />
    <glyph glyph-name="Oacute" unicode="&#xd3;" horiz-adv-x="763" 
d="M718 303c-44 -100 -106.833 -180.834 -188.5 -242.501s-174.5 -92.5 -278.5 -92.5c-165.333 0 -248 73 -248 219c0 66 13.833 130.833 41.5 194.5s64.167 119.334 109.5 167.001s99 86.167 161 115.5s125.333 44 190 44c84.667 0 148.167 -20.833 190.5 -62.5
s63.5 -93.667 63.5 -156s-13.667 -124.5 -41 -186.5zM676 498.999c0 108.667 -48.667 163 -146 163c-70.667 0 -138.167 -24.333 -202.5 -73s-115 -109.667 -152 -183s-55.5 -146.666 -55.5 -219.999c0 -52.667 11.667 -95.334 35 -128.001s60.5 -49 111.5 -49
s102.167 15.333 153.5 46s95.333 69.834 132 117.501s66.5 100.667 89.5 159s34.5 114.166 34.5 167.499zM681 834.999c-26.667 -11.333 -62 -28.166 -106 -50.499s-67 -33.5 -69 -33.5s-6.16699 1.66699 -12.5 5s-9.5 5.66602 -9.5 6.99902
c6 3.33301 27.833 18.833 65.5 46.5l74.5 54.5c2.66699 1.33301 6.66699 2 12 2s14.5 -3.66699 27.5 -11s19.5 -13 19.5 -17c0 -1.33301 -0.666992 -2.33301 -2 -3z" />
    <glyph glyph-name="Ocircumflex" unicode="&#xd4;" horiz-adv-x="763" 
d="M718 303c-44 -100 -106.833 -180.834 -188.5 -242.501s-174.5 -92.5 -278.5 -92.5c-165.333 0 -248 73 -248 219c0 66 13.833 130.833 41.5 194.5s64.167 119.334 109.5 167.001s99 86.167 161 115.5s125.333 44 190 44c84.667 0 148.167 -20.833 190.5 -62.5
s63.5 -93.667 63.5 -156s-13.667 -124.5 -41 -186.5zM676 498.999c0 108.667 -48.667 163 -146 163c-70.667 0 -138.167 -24.333 -202.5 -73s-115 -109.667 -152 -183s-55.5 -146.666 -55.5 -219.999c0 -52.667 11.667 -95.334 35 -128.001s60.5 -49 111.5 -49
s102.167 15.333 153.5 46s95.333 69.834 132 117.501s66.5 100.667 89.5 159s34.5 114.166 34.5 167.499zM687 774.999l-0.000976562 -1c0 -2 -4.83301 -5.66699 -14.5 -11s-17.167 -8 -22.5 -8c-9.33301 0 -22.166 12 -38.499 36s-28.5 45 -36.5 63
c-22 -21.333 -46.5 -42.5 -73.5 -63.5s-45.833 -31.5 -56.5 -31.5s-16 1 -16 3v1c64 52 112.667 95.333 146 130c5.33301 6 10.833 9 16.5 9s13.667 -7.5 24 -22.5l37.5 -56c14.667 -22.333 26 -38.5 34 -48.5z" />
    <glyph glyph-name="Otilde" unicode="&#xd5;" horiz-adv-x="763" 
d="M718 303c-44 -100 -106.833 -180.834 -188.5 -242.501s-174.5 -92.5 -278.5 -92.5c-165.333 0 -248 73 -248 219c0 66 13.833 130.833 41.5 194.5s64.167 119.334 109.5 167.001s99 86.167 161 115.5s125.333 44 190 44c84.667 0 148.167 -20.833 190.5 -62.5
s63.5 -93.667 63.5 -156s-13.667 -124.5 -41 -186.5zM676 498.999c0 108.667 -48.667 163 -146 163c-70.667 0 -138.167 -24.333 -202.5 -73s-115 -109.667 -152 -183s-55.5 -146.666 -55.5 -219.999c0 -52.667 11.667 -95.334 35 -128.001s60.5 -49 111.5 -49
s102.167 15.333 153.5 46s95.333 69.834 132 117.501s66.5 100.667 89.5 159s34.5 114.166 34.5 167.499zM722 882.999c-28 -48 -54.6689 -71.999 -80.002 -71.999c-15.333 0 -37 6 -65 18s-50.167 18 -66.5 18s-30.5 -5 -42.5 -15s-18.333 -15 -19 -15
c-7.33301 0 -11 3.16699 -11 9.5s8.66699 19.166 26 38.499s34.166 29 50.499 29s39.833 -6.16699 70.5 -18.5s52.834 -18.5 66.501 -18.5s24.334 3.5 32.001 10.5s13.834 13.833 18.501 20.5s9 10 13 10c6 0 9 -2.66699 9 -8c0 -2 -0.666992 -4.33301 -2 -7z" />
    <glyph glyph-name="Odieresis" unicode="&#xd6;" horiz-adv-x="763" 
d="M718 303c-44 -100 -106.833 -180.834 -188.5 -242.501s-174.5 -92.5 -278.5 -92.5c-165.333 0 -248 73 -248 219c0 66 13.833 130.833 41.5 194.5s64.167 119.334 109.5 167.001s99 86.167 161 115.5s125.333 44 190 44c84.667 0 148.167 -20.833 190.5 -62.5
s63.5 -93.667 63.5 -156s-13.667 -124.5 -41 -186.5zM676 498.999c0 108.667 -48.667 163 -146 163c-70.667 0 -138.167 -24.333 -202.5 -73s-115 -109.667 -152 -183s-55.5 -146.666 -55.5 -219.999c0 -52.667 11.667 -95.334 35 -128.001s60.5 -49 111.5 -49
s102.167 15.333 153.5 46s95.333 69.834 132 117.501s66.5 100.667 89.5 159s34.5 114.166 34.5 167.499zM703 845.999c-13.333 -3.33301 -27.168 -12.498 -41.501 -27.498s-25.166 -22.5 -32.499 -22.5c-14 0 -21 5.66699 -21 17s8.16699 28.666 24.5 51.999
s31.5 35 45.5 35c7.33301 0 14.333 -5 21 -15s10 -18.833 10 -26.5s-2 -11.834 -6 -12.501zM515.998 846.001c-13.333 -3.33301 -27.168 -12.498 -41.501 -27.498s-25.166 -22.5 -32.499 -22.5c-14 0 -21 5.66699 -21 17s8.16699 28.666 24.5 51.999s31.5 35 45.5 35
c7.33301 0 14.333 -5 21 -15s10 -18.833 10 -26.5s-2 -11.834 -6 -12.501z" />
    <glyph glyph-name="multiply" unicode="&#xd7;" horiz-adv-x="740" 
d="M414 342l237 168.999h1c1.33301 0 2 -4.66699 2 -14c0 -36.667 -5 -58.667 -15 -66l-183 -130l139 -133c2 -2 3 -7 3 -15s-2.5 -20.667 -7.5 -38s-9.16699 -26 -12.5 -26l-179 171l-241 -171h-1c-2 0 -3 5.16699 -3 15.5s1.5 22.833 4.5 37.5s6.5 23.334 10.5 26.001
l187 133l-135 130c-2 2 -3 6.83301 -3 14.5s2.66699 20.5 8 38.5s9.33301 27 12 27h1z" />
    <glyph glyph-name="Oslash" unicode="&#xd8;" horiz-adv-x="763" 
d="M718 303c-44 -100 -106.834 -180.834 -188.501 -242.501s-174.5 -92.5 -278.5 -92.5c-29.333 0 -57.333 2.66699 -84 8l-24 -34c-1.33301 -2 -10.333 -3 -27 -3s-25 2.33301 -25 7v1l30 42c-78.667 30 -118 95.667 -118 197c0 86.667 22.5 169.834 67.5 249.501
s105.333 144.5 181 194.5s155.834 76 240.501 78c51.333 0 95 -6.33301 131 -19l15 20c2 2 11.167 3 27.5 3s24.5 -2.33301 24.5 -7v-1l-25 -35c62.667 -39.333 94 -102.333 94 -189c0 -54.667 -13.667 -113.667 -41 -177zM641.999 331.499
c22.667 58.333 33.999 115.333 33.999 171s-14 96.834 -42 123.501l-433 -604c19.333 -8.66699 41 -13 65 -13c52 0 103.667 15.5 155 46.5s95.333 70.167 132 117.5s66.334 100.166 89.001 158.499zM163.998 48.999l431.999 602.001c-18.667 7.33301 -38.667 11 -60 11
c-52 0 -103.5 -15 -154.5 -45s-95.167 -68.167 -132.5 -114.5s-67.666 -98.333 -90.999 -156s-35 -114.334 -35 -170.001s13.667 -98.167 41 -127.5z" />
    <glyph glyph-name="Ugrave" unicode="&#xd9;" horiz-adv-x="747" 
d="M278 630c12 19.333 18.3359 29.667 19.0029 31c-56.667 -1.33301 -114.167 -12.833 -172.5 -34.5s-92.166 -47.5 -101.499 -77.5c-0.666992 -2 -2 -3 -4 -3c-6 0 -9 4.33301 -9 13c0 1.33301 2.83301 10.333 8.5 27s16.167 34 31.5 52s32.666 31.333 51.999 40
c32.667 13.333 73 20 121 20h227c-30.667 -23.333 -68.5 -77.333 -113.5 -162s-80.5 -159.334 -106.5 -224.001c-36.667 -84.667 -55 -148.5 -55 -191.5s17 -64.5 51 -64.5c28.667 0 65.667 20.5 111 61.5s90 91.167 134 150.5c86.667 118 147.667 209.833 183 275.5
s62.666 107.834 81.999 126.501s40.666 28 63.999 28h62c-31.333 -24 -77 -96 -137 -216c-90 -181.333 -135 -311.666 -135 -390.999c0 -36.667 11.667 -55 35 -55c11.333 0 24.666 4.33301 39.999 13h1c2 0 3 -2 3 -6c0 -12.667 -16.667 -24.334 -50 -35.001
s-60.333 -16 -81 -16c-42.667 0 -64 24.667 -64 74c0 24.667 8.66699 64.167 26 118.5s39.333 110.5 66 168.5c-99.333 -148 -173.333 -243.667 -222 -287c-54 -48.667 -104 -73 -150 -73c-76.667 0 -115 37 -115 111c0 54.667 20.167 132.5 60.5 233.5
s86.5 198.5 138.5 292.5zM568.003 796.001c-28.667 14 -48.4971 23.5 -59.4971 28.5s-16.5 7.83301 -16.5 8.5c0 4 6.66699 9.66699 20 17s22.666 11 27.999 11s9.33301 -0.666992 12 -2l52 -39l58 -42c15.333 -11.333 25.333 -18 30 -20c0 -2 -3.33301 -4.5 -10 -7.5
s-10.834 -4.5 -12.501 -4.5s-11.834 4.66699 -30.501 14z" />
    <glyph glyph-name="Uacute" unicode="&#xda;" horiz-adv-x="747" 
d="M278 630c12 19.333 18.3359 29.667 19.0029 31c-56.667 -1.33301 -114.167 -12.833 -172.5 -34.5s-92.166 -47.5 -101.499 -77.5c-0.666992 -2 -2 -3 -4 -3c-6 0 -9 4.33301 -9 13c0 1.33301 2.83301 10.333 8.5 27s16.167 34 31.5 52s32.666 31.333 51.999 40
c32.667 13.333 73 20 121 20h227c-30.667 -23.333 -68.5 -77.333 -113.5 -162s-80.5 -159.334 -106.5 -224.001c-36.667 -84.667 -55 -148.5 -55 -191.5s17 -64.5 51 -64.5c28.667 0 65.667 20.5 111 61.5s90 91.167 134 150.5c86.667 118 147.667 209.833 183 275.5
s62.666 107.834 81.999 126.501s40.666 28 63.999 28h62c-31.333 -24 -77 -96 -137 -216c-90 -181.333 -135 -311.666 -135 -390.999c0 -36.667 11.667 -55 35 -55c11.333 0 24.666 4.33301 39.999 13h1c2 0 3 -2 3 -6c0 -12.667 -16.667 -24.334 -50 -35.001
s-60.333 -16 -81 -16c-42.667 0 -64 24.667 -64 74c0 24.667 8.66699 64.167 26 118.5s39.333 110.5 66 168.5c-99.333 -148 -173.333 -243.667 -222 -287c-54 -48.667 -104 -73 -150 -73c-76.667 0 -115 37 -115 111c0 54.667 20.167 132.5 60.5 233.5
s86.5 198.5 138.5 292.5zM735.003 827.001c-26.667 -11.333 -62 -28.166 -106 -50.499s-67 -33.5 -69 -33.5s-6.16699 1.66699 -12.5 5s-9.5 5.66602 -9.5 6.99902c6 3.33301 27.833 18.833 65.5 46.5l74.5 54.5c2.66699 1.33301 6.66699 2 12 2s14.5 -3.66699 27.5 -11
s19.5 -13 19.5 -17c0 -1.33301 -0.666992 -2.33301 -2 -3z" />
    <glyph glyph-name="Ucircumflex" unicode="&#xdb;" horiz-adv-x="747" 
d="M278 630c12 19.333 18.3359 29.667 19.0029 31c-56.667 -1.33301 -114.167 -12.833 -172.5 -34.5s-92.166 -47.5 -101.499 -77.5c-0.666992 -2 -2 -3 -4 -3c-6 0 -9 4.33301 -9 13c0 1.33301 2.83301 10.333 8.5 27s16.167 34 31.5 52s32.666 31.333 51.999 40
c32.667 13.333 73 20 121 20h227c-30.667 -23.333 -68.5 -77.333 -113.5 -162s-80.5 -159.334 -106.5 -224.001c-36.667 -84.667 -55 -148.5 -55 -191.5s17 -64.5 51 -64.5c28.667 0 65.667 20.5 111 61.5s90 91.167 134 150.5c86.667 118 147.667 209.833 183 275.5
s62.666 107.834 81.999 126.501s40.666 28 63.999 28h62c-31.333 -24 -77 -96 -137 -216c-90 -181.333 -135 -311.666 -135 -390.999c0 -36.667 11.667 -55 35 -55c11.333 0 24.666 4.33301 39.999 13h1c2 0 3 -2 3 -6c0 -12.667 -16.667 -24.334 -50 -35.001
s-60.333 -16 -81 -16c-42.667 0 -64 24.667 -64 74c0 24.667 8.66699 64.167 26 118.5s39.333 110.5 66 168.5c-99.333 -148 -173.333 -243.667 -222 -287c-54 -48.667 -104 -73 -150 -73c-76.667 0 -115 37 -115 111c0 54.667 20.167 132.5 60.5 233.5
s86.5 198.5 138.5 292.5zM746.003 754.001l-0.000976562 -1c0 -2 -4.83301 -5.66699 -14.5 -11s-17.167 -8 -22.5 -8c-9.33301 0 -22.166 12 -38.499 36s-28.5 45 -36.5 63c-22 -21.333 -46.5 -42.5 -73.5 -63.5s-45.833 -31.5 -56.5 -31.5s-16 1 -16 3v1
c64 52 112.667 95.333 146 130c5.33301 6 10.833 9 16.5 9s13.667 -7.5 24 -22.5l37.5 -56c14.667 -22.333 26 -38.5 34 -48.5z" />
    <glyph glyph-name="Udieresis" unicode="&#xdc;" horiz-adv-x="747" 
d="M278 630c12 19.333 18.3359 29.667 19.0029 31c-56.667 -1.33301 -114.167 -12.833 -172.5 -34.5s-92.166 -47.5 -101.499 -77.5c-0.666992 -2 -2 -3 -4 -3c-6 0 -9 4.33301 -9 13c0 1.33301 2.83301 10.333 8.5 27s16.167 34 31.5 52s32.666 31.333 51.999 40
c32.667 13.333 73 20 121 20h227c-30.667 -23.333 -68.5 -77.333 -113.5 -162s-80.5 -159.334 -106.5 -224.001c-36.667 -84.667 -55 -148.5 -55 -191.5s17 -64.5 51 -64.5c28.667 0 65.667 20.5 111 61.5s90 91.167 134 150.5c86.667 118 147.667 209.833 183 275.5
s62.666 107.834 81.999 126.501s40.666 28 63.999 28h62c-31.333 -24 -77 -96 -137 -216c-90 -181.333 -135 -311.666 -135 -390.999c0 -36.667 11.667 -55 35 -55c11.333 0 24.666 4.33301 39.999 13h1c2 0 3 -2 3 -6c0 -12.667 -16.667 -24.334 -50 -35.001
s-60.333 -16 -81 -16c-42.667 0 -64 24.667 -64 74c0 24.667 8.66699 64.167 26 118.5s39.333 110.5 66 168.5c-99.333 -148 -173.333 -243.667 -222 -287c-54 -48.667 -104 -73 -150 -73c-76.667 0 -115 37 -115 111c0 54.667 20.167 132.5 60.5 233.5
s86.5 198.5 138.5 292.5zM741.003 804.001c-13.333 -3.33301 -27.168 -12.498 -41.501 -27.498s-25.166 -22.5 -32.499 -22.5c-14 0 -21 5.66699 -21 17s8.16699 28.666 24.5 51.999s31.5 35 45.5 35c7.33301 0 14.333 -5 21 -15s10 -18.833 10 -26.5s-2 -11.834 -6 -12.501
zM554.001 804.003c-13.333 -3.33301 -27.168 -12.498 -41.501 -27.498s-25.166 -22.5 -32.499 -22.5c-14 0 -21 5.66699 -21 17s8.16699 28.666 24.5 51.999s31.5 35 45.5 35c7.33301 0 14.333 -5 21 -15s10 -18.833 10 -26.5s-2 -11.834 -6 -12.501z" />
    <glyph glyph-name="Yacute" unicode="&#xdd;" horiz-adv-x="684" 
d="M756 698c-62.667 -43.333 -124.668 -99.665 -186.001 -168.998c-76 -86 -136.667 -178.667 -182 -278c-25.333 -56.667 -44 -113.667 -56 -171c-5.33301 -24.667 -8 -43 -8 -55s1.33301 -20.333 4 -25h-129c2.66699 11.333 15.834 52.666 39.501 123.999
s35.5 122.833 35.5 154.5s-7.66699 74.167 -23 127.5s-35.833 102.166 -61.5 146.499s-50.5 66.5 -74.5 66.5c-30 0 -64.667 -26 -104 -78c-0.666992 -0.666992 -1.33398 -1 -2.00098 -1c-3.33301 0 -5 2.66699 -5 8s0.333008 8.33301 1 9
c23.333 47.333 48 82.166 74 104.499s59 33.5 99 33.5s69 -10.333 87 -31s36.167 -62.167 54.5 -124.5s36.5 -129.833 54.5 -202.5l112 159c60.667 86.667 104.334 147.334 131.001 182.001c10.667 14 38 21 82 21c7.33301 0 17.5 -0.166992 30.5 -0.5
s21.833 -0.5 26.5 -0.5zM590.999 810.001c-26.667 -11.333 -62 -28.166 -106 -50.499s-67 -33.5 -69 -33.5s-6.16699 1.66699 -12.5 5s-9.5 5.66602 -9.5 6.99902c6 3.33301 27.833 18.833 65.5 46.5l74.5 54.5c2.66699 1.33301 6.66699 2 12 2s14.5 -3.66699 27.5 -11
s19.5 -13 19.5 -17c0 -1.33301 -0.666992 -2.33301 -2 -3z" />
    <glyph glyph-name="Thorn" unicode="&#xde;" horiz-adv-x="499" 
d="M422 724l43.002 -2.99902c9.33301 0 19 0.666992 29 2c-26.667 -17.333 -70 -75.333 -130 -174h47c61.333 0 107.666 -13.333 138.999 -40s47 -60.334 47 -101.001c0 -72 -36.5 -132.5 -109.5 -181.5s-164.5 -73.5 -274.5 -73.5c-15.333 0 -30.666 1 -45.999 3
c-55.333 -140 -83 -234.667 -83 -284c0 -7.33301 1.33301 -14.333 4 -21h-129c26.667 110 83 261.667 169 455c3.33301 7.33301 10.666 24.333 21.999 51c20 49.333 39.333 88 58 116l20 39c-56 -1.33301 -112.5 -13 -169.5 -35s-90.167 -47.667 -99.5 -77
c-0.666992 -2 -2 -3 -4 -3c-6 0 -9 4.33301 -9 13c0 1.33301 2.83301 10.333 8.5 27s16.167 34 31.5 52s32.666 31 51.999 39c32.667 14 73 21 121 21h89c28 52 54 94.667 78 128c23.333 31.333 55.333 47 96 47zM329.502 197.001c47.667 16.667 86.666 42 116.999 76
s45.5 75 45.5 123c0 76.667 -45.667 117.667 -137 123c-47.333 -60.667 -101 -160 -161 -298l-21 -49h12c48.667 0 96.834 8.33301 144.501 25z" />
    <glyph glyph-name="germandbls" unicode="&#xdf;" horiz-adv-x="544" 
d="M617 202c-44 -75.333 -87.6631 -130.664 -130.996 -165.997s-99.333 -53 -168 -53c-35.333 0 -65.166 7 -89.499 21s-36.5 34 -36.5 60c0 16 4.66699 30.833 14 44.5s22.166 20.5 38.499 20.5s26.833 -6 31.5 -18c-12.667 -12.667 -19 -27.334 -19 -44.001
c0 -33.333 18.667 -50 56 -50c22 0 41.167 7.66699 57.5 23s24.5 31.166 24.5 47.499s-3.5 31.5 -10.5 45.5s-21.167 31.5 -42.5 52.5s-39.5 41.667 -54.5 62s-22.5 43.333 -22.5 69s8.33301 47.834 25 66.501s37 34.167 61 46.5l72.5 37
c24.333 12.333 44.833 28.666 61.5 48.999s25 43.666 25 69.999s-7.5 45.833 -22.5 58.5s-33.167 19 -54.5 19c-80.667 0 -164 -117.333 -250 -352c-2 -4.66699 -3.83301 -9.5 -5.5 -14.5s-8 -22.333 -19 -52l-23.5 -62.5l-22.5 -58
c-10.333 -26.667 -18.833 -47.834 -25.5 -63.501l-24 -56.5c-14.667 -34 -34.834 -73 -60.501 -117s-54.5 -78.667 -86.5 -104s-70.667 -38 -116 -38s-78 8.33301 -98 25s-30 35.5 -30 56.5s5.5 38.167 16.5 51.5s22.833 20 35.5 20c26 0 39 -9.33301 39 -28
c0 -4 -4.5 -12.833 -13.5 -26.5s-13.5 -25.167 -13.5 -34.5c0 -21.333 12 -32 36 -32c10.667 0 25 4.33301 43 13s37.667 25.167 59 49.5s39.666 49.5 54.999 75.5s31.666 59 48.999 99s31 74 41 102l37.5 108.5c15 44.333 27.333 79.5 37 105.5l23.5 63.5
c6 16.333 16.167 40.5 30.5 72.5s27 56.833 38 74.5s26 38.334 45 62.001s37.833 41.5 56.5 53.5c46.667 31.333 96.667 47 150 47c34.667 0 67.167 -9.66699 97.5 -29s45.5 -46.666 45.5 -81.999c0 -24.667 -7.83301 -46.334 -23.5 -65.001s-34.834 -34 -57.501 -46
l-68 -35.5c-22.667 -11.667 -41.834 -26.167 -57.501 -43.5s-23.5 -35.666 -23.5 -54.999s4.83301 -35.833 14.5 -49.5s21.5 -25.667 35.5 -36l42 -31.5c33.333 -26.667 50 -58.667 50 -96c0 -18.667 -4.83301 -36.334 -14.5 -53.001s-21.167 -30 -34.5 -40
c22.667 9.33301 45.334 26.5 68.001 51.5s41 49.667 55 74l37 65c10.667 19 17.5 28.5 20.5 28.5s4.5 -6.66699 4.5 -20s-3.66699 -26 -11 -38z" />
    <glyph glyph-name="agrave" unicode="&#xe0;" horiz-adv-x="473" 
d="M445 400l50.002 -1h10c-22 -18 -49 -63.5 -81 -136.5s-48 -126.167 -48 -159.5c0 -17.333 6 -26 18 -26c38.667 0 88 57 148 171c2.66699 4.66699 5 7 7 7c4 0 6 -6.16699 6 -18.5s-3.33301 -24.166 -10 -35.499c-82 -138 -150.667 -207 -206 -207
c-36 0 -54 27.667 -54 83c0 41.333 7 82 21 122c-76 -134.667 -146.333 -202 -211 -202c-44.667 0 -67 30.667 -67 92c0 46.667 10.167 94 30.5 142s49.5 88.833 87.5 122.5s79.667 50.5 125 50.5c21.333 0 41.333 -4.83301 60 -14.5s31 -25.167 37 -46.5
c7.33301 15.333 18.666 28.666 33.999 39.999s29.666 17 42.999 17zM362.002 334c-6.66699 21.333 -22.332 32.001 -46.999 32.001c-44 0 -86.667 -30.5 -128 -91.5s-62 -115.5 -62 -163.5c0 -20.667 8 -31 24 -31c17.333 0 37.666 10.833 60.999 32.5
s44.333 47.167 63 76.5c41.333 65.333 71 113.666 89 144.999zM324.004 552.001c-28.667 14.667 -48.4971 24.333 -59.4971 29s-16.5 7.66699 -16.5 9c0 4 6.66699 9.66699 20 17s22.666 11 27.999 11s9.33301 -0.666992 12 -2l52 -38l58 -43
c15.333 -11.333 25.333 -18 30 -20c0 -2 -3.33301 -4.5 -10 -7.5s-10.834 -4.5 -12.501 -4.5s-11.834 4.66699 -30.501 14z" />
    <glyph glyph-name="aacute" unicode="&#xe1;" horiz-adv-x="473" 
d="M445 400l50.002 -1h10c-22 -18 -49 -63.5 -81 -136.5s-48 -126.167 -48 -159.5c0 -17.333 6 -26 18 -26c38.667 0 88 57 148 171c2.66699 4.66699 5 7 7 7c4 0 6 -6.16699 6 -18.5s-3.33301 -24.166 -10 -35.499c-82 -138 -150.667 -207 -206 -207
c-36 0 -54 27.667 -54 83c0 41.333 7 82 21 122c-76 -134.667 -146.333 -202 -211 -202c-44.667 0 -67 30.667 -67 92c0 46.667 10.167 94 30.5 142s49.5 88.833 87.5 122.5s79.667 50.5 125 50.5c21.333 0 41.333 -4.83301 60 -14.5s31 -25.167 37 -46.5
c7.33301 15.333 18.666 28.666 33.999 39.999s29.666 17 42.999 17zM362.002 334c-6.66699 21.333 -22.332 32.001 -46.999 32.001c-44 0 -86.667 -30.5 -128 -91.5s-62 -115.5 -62 -163.5c0 -20.667 8 -31 24 -31c17.333 0 37.666 10.833 60.999 32.5
s44.333 47.167 63 76.5c41.333 65.333 71 113.666 89 144.999zM469.004 588.001c-26.667 -11.333 -62 -28.166 -106 -50.499s-67 -33.5 -69 -33.5s-6.16699 1.66699 -12.5 5s-9.5 5.66602 -9.5 6.99902c6 3.33301 27.833 18.833 65.5 46.5l74.5 54.5
c2.66699 1.33301 6.66699 2 12 2s14.5 -3.66699 27.5 -11s19.5 -13 19.5 -17c0 -1.33301 -0.666992 -2.33301 -2 -3z" />
    <glyph glyph-name="acircumflex" unicode="&#xe2;" horiz-adv-x="473" 
d="M445 400l50.002 -1h10c-22 -18 -49 -63.5 -81 -136.5s-48 -126.167 -48 -159.5c0 -17.333 6 -26 18 -26c38.667 0 88 57 148 171c2.66699 4.66699 5 7 7 7c4 0 6 -6.16699 6 -18.5s-3.33301 -24.166 -10 -35.499c-82 -138 -150.667 -207 -206 -207
c-36 0 -54 27.667 -54 83c0 41.333 7 82 21 122c-76 -134.667 -146.333 -202 -211 -202c-44.667 0 -67 30.667 -67 92c0 46.667 10.167 94 30.5 142s49.5 88.833 87.5 122.5s79.667 50.5 125 50.5c21.333 0 41.333 -4.83301 60 -14.5s31 -25.167 37 -46.5
c7.33301 15.333 18.666 28.666 33.999 39.999s29.666 17 42.999 17zM362.002 334c-6.66699 21.333 -22.332 32.001 -46.999 32.001c-44 0 -86.667 -30.5 -128 -91.5s-62 -115.5 -62 -163.5c0 -20.667 8 -31 24 -31c17.333 0 37.666 10.833 60.999 32.5
s44.333 47.167 63 76.5c41.333 65.333 71 113.666 89 144.999zM476.004 511.001l-0.000976562 -1c0 -2 -4.83301 -5.66699 -14.5 -11s-17.167 -8 -22.5 -8c-9.33301 0 -22.166 12 -38.499 36s-28.5 45 -36.5 63c-22 -21.333 -46.5 -42.5 -73.5 -63.5
s-45.833 -31.5 -56.5 -31.5s-16 1 -16 3v1c64 52 112.667 95.333 146 130c5.33301 6 10.833 9 16.5 9s13.667 -7.5 24 -22.5l37.5 -56c14.667 -22.333 26 -38.5 34 -48.5z" />
    <glyph glyph-name="atilde" unicode="&#xe3;" horiz-adv-x="473" 
d="M445 400l50.002 -1h10c-22 -18 -49 -63.5 -81 -136.5s-48 -126.167 -48 -159.5c0 -17.333 6 -26 18 -26c38.667 0 88 57 148 171c2.66699 4.66699 5 7 7 7c4 0 6 -6.16699 6 -18.5s-3.33301 -24.166 -10 -35.499c-82 -138 -150.667 -207 -206 -207
c-36 0 -54 27.667 -54 83c0 41.333 7 82 21 122c-76 -134.667 -146.333 -202 -211 -202c-44.667 0 -67 30.667 -67 92c0 46.667 10.167 94 30.5 142s49.5 88.833 87.5 122.5s79.667 50.5 125 50.5c21.333 0 41.333 -4.83301 60 -14.5s31 -25.167 37 -46.5
c7.33301 15.333 18.666 28.666 33.999 39.999s29.666 17 42.999 17zM362.002 334c-6.66699 21.333 -22.332 32.001 -46.999 32.001c-44 0 -86.667 -30.5 -128 -91.5s-62 -115.5 -62 -163.5c0 -20.667 8 -31 24 -31c17.333 0 37.666 10.833 60.999 32.5
s44.333 47.167 63 76.5c41.333 65.333 71 113.666 89 144.999zM513.004 593.001c-28 -48 -54.6689 -71.999 -80.002 -71.999c-15.333 0 -37 6 -65 18s-50.167 18 -66.5 18s-30.5 -5 -42.5 -15s-18.333 -15 -19 -15c-7.33301 0 -11 3.16699 -11 9.5s8.66699 19.166 26 38.499
s34.166 29 50.499 29s39.833 -6.16699 70.5 -18.5s52.834 -18.5 66.501 -18.5s24.334 3.5 32.001 10.5s13.834 13.833 18.501 20.5s9 10 13 10c6 0 9 -2.66699 9 -8c0 -2 -0.666992 -4.33301 -2 -7z" />
    <glyph glyph-name="adieresis" unicode="&#xe4;" horiz-adv-x="473" 
d="M445 400l50.002 -1h10c-22 -18 -49 -63.5 -81 -136.5s-48 -126.167 -48 -159.5c0 -17.333 6 -26 18 -26c38.667 0 88 57 148 171c2.66699 4.66699 5 7 7 7c4 0 6 -6.16699 6 -18.5s-3.33301 -24.166 -10 -35.499c-82 -138 -150.667 -207 -206 -207
c-36 0 -54 27.667 -54 83c0 41.333 7 82 21 122c-76 -134.667 -146.333 -202 -211 -202c-44.667 0 -67 30.667 -67 92c0 46.667 10.167 94 30.5 142s49.5 88.833 87.5 122.5s79.667 50.5 125 50.5c21.333 0 41.333 -4.83301 60 -14.5s31 -25.167 37 -46.5
c7.33301 15.333 18.666 28.666 33.999 39.999s29.666 17 42.999 17zM362.002 334c-6.66699 21.333 -22.332 32.001 -46.999 32.001c-44 0 -86.667 -30.5 -128 -91.5s-62 -115.5 -62 -163.5c0 -20.667 8 -31 24 -31c17.333 0 37.666 10.833 60.999 32.5
s44.333 47.167 63 76.5c41.333 65.333 71 113.666 89 144.999zM510.004 558.001c-13.333 -3.33301 -27.168 -12.498 -41.501 -27.498s-25.166 -22.5 -32.499 -22.5c-14 0 -21 5.66699 -21 17s8.16699 28.666 24.5 51.999s31.5 35 45.5 35c7.33301 0 14.333 -5 21 -15
s10 -18.833 10 -26.5s-2 -11.834 -6 -12.501zM323.002 558.003c-13.333 -3.33301 -27.168 -12.498 -41.501 -27.498s-25.166 -22.5 -32.499 -22.5c-14 0 -21 5.66699 -21 17s8.16699 28.666 24.5 51.999s31.5 35 45.5 35c7.33301 0 14.333 -5 21 -15s10 -18.833 10 -26.5
s-2 -11.834 -6 -12.501z" />
    <glyph glyph-name="aring" unicode="&#xe5;" horiz-adv-x="473" 
d="M445 400l50.002 -1h10c-22 -18 -49 -63.5 -81 -136.5s-48 -126.167 -48 -159.5c0 -17.333 6 -26 18 -26c38.667 0 88 57 148 171c2.66699 4.66699 5 7 7 7c4 0 6 -6.16699 6 -18.5s-3.33301 -24.166 -10 -35.499c-82 -138 -150.667 -207 -206 -207
c-36 0 -54 27.667 -54 83c0 41.333 7 82 21 122c-76 -134.667 -146.333 -202 -211 -202c-44.667 0 -67 30.667 -67 92c0 46.667 10.167 94 30.5 142s49.5 88.833 87.5 122.5s79.667 50.5 125 50.5c21.333 0 41.333 -4.83301 60 -14.5s31 -25.167 37 -46.5
c7.33301 15.333 18.666 28.666 33.999 39.999s29.666 17 42.999 17zM362.002 334c-6.66699 21.333 -22.332 32.001 -46.999 32.001c-44 0 -86.667 -30.5 -128 -91.5s-62 -115.5 -62 -163.5c0 -20.667 8 -31 24 -31c17.333 0 37.666 10.833 60.999 32.5
s44.333 47.167 63 76.5c41.333 65.333 71 113.666 89 144.999zM488.004 573.001c-8 -24.667 -23.332 -45.665 -45.999 -62.998s-47.834 -26 -75.501 -26s-47.5 6.16699 -59.5 18.5s-18 28.166 -18 47.499c0 29.333 12.167 56.166 36.5 80.499s55.5 36.5 93.5 36.5
c24 0 42.333 -6.16699 55 -18.5s19 -27.833 19 -46.5c0 -8 -1.66699 -17.667 -5 -29zM432.005 643.003l-10 0.999023c-21.333 0 -40 -10.167 -56 -30.5s-24 -41.166 -24 -62.499c0 -26 12.667 -39 38 -39c22 0 41.167 10.167 57.5 30.5s24.5 41.5 24.5 63.5
s-10 34.333 -30 37z" />
    <glyph glyph-name="ae" unicode="&#xe6;" horiz-adv-x="618" 
d="M445 400l49.998 -1h10c-4.66699 -4 -11.334 -12.667 -20.001 -26c32 16.667 60.5 25 85.5 25s43.333 -5.83301 55 -17.5s17.5 -24.5 17.5 -38.5c0 -49.333 -18.167 -86.833 -54.5 -112.5s-72.333 -38.5 -108 -38.5s-61.5 4.33301 -77.5 13l-10 -28
c-5.33301 -14 -8.33301 -34.167 -9 -60.5s5 -47 17 -62s31 -22.5 57 -22.5s53.833 10.833 83.5 32.5s55 46 76 73s44.833 65.833 71.5 116.5c2.66699 4.66699 5 7 7 7c4 0 6 -6.5 6 -19.5s-5.33301 -28.5 -16 -46.5l-31.5 -51c-10.333 -16 -24.166 -34.667 -41.499 -56
s-34.333 -38.333 -51 -51c-42 -30.667 -84 -46 -126 -46s-76.167 10.667 -102.5 32s-39.5 53.333 -39.5 96c0 22.667 5.33301 47.334 16 74.001c-43.333 -64.667 -81.666 -113.334 -114.999 -146.001s-66.666 -49 -99.999 -49c-44.667 0 -67 30.667 -67 92
c0 46.667 10.167 94 30.5 142s49.5 88.833 87.5 122.5s79.667 50.5 125 50.5c21.333 0 41.333 -4.83301 60 -14.5s31 -25.167 37 -46.5c6.66699 14 17.5 27 32.5 39s29.833 18 44.5 18zM361.998 334c-6.66699 21.333 -22.332 32.001 -46.999 32.001
c-44 0 -86.667 -30.5 -128 -91.5s-62 -115.5 -62 -163.5c0 -20.667 8 -31 24 -31c17.333 0 37.666 10.833 60.999 32.5s44.333 47.167 63 76.5c41.333 65.333 71 113.666 89 144.999zM590 339.001c0 19.333 -9.33398 28.999 -28.001 28.999c-26 0 -55 -16 -87 -48
s-48 -58 -48 -78c0 -13.333 12.667 -20 38 -20s51.833 12.333 79.5 37s42.834 51.334 45.501 80.001z" />
    <glyph glyph-name="ccedilla" unicode="&#xe7;" horiz-adv-x="358" 
d="M434 256c4 0 5.99805 -6.33105 5.99805 -18.998s-5.5 -28.334 -16.5 -47.001s-19.667 -32.834 -26 -42.501s-17.166 -25.167 -32.499 -46.5s-28.666 -36.666 -39.999 -45.999s-25.666 -20.333 -42.999 -33c-29.333 -21.333 -67.5 -32 -114.5 -32s-81 11.833 -102 35.5
s-31.5 54.5 -31.5 92.5c0 70 24.833 134.167 74.5 192.5s108.167 87.5 175.5 87.5c30 0 54 -7.83301 72 -23.5s27 -34.334 27 -56.001s-6 -40.5 -18 -56.5s-25.667 -24 -41 -24c-30 0 -45 12.333 -45 37c0 8 8.33301 15.667 25 23c6.66699 2.66699 12.667 7.66699 18 15
s8 17 8 29c0 17.333 -9.33301 26 -28 26c-40 0 -79.667 -29 -119 -87s-59 -114.167 -59 -168.5s23.667 -81.5 71 -81.5c66 0 130.333 51 193 153l31.5 51c8.33301 14 13.166 21 14.499 21zM164.998 -71.998c-0.666992 -2.66699 -3.83398 -3.66602 -9.50098 -2.99902
s-10.5 1 -14.5 1c-23.333 0 -45.666 -15.333 -66.999 -46s-32 -61.334 -32 -92.001s13.333 -46 40 -46c24.667 0 49 12.667 73 38c1.33301 1.33301 2.83301 2 4.5 2s2.5 -2.33301 2.5 -7c0 -16 -10.5 -29.5 -31.5 -40.5s-43.667 -16.5 -68 -16.5s-42.5 6.83301 -54.5 20.5
s-18 31.5 -18 53.5c0 43.333 14.167 79.5 42.5 108.5s63.5 43.5 105.5 43.5h4l20 46c0.666992 2.66699 4.5 4 11.5 4s10.5 -1 10.5 -3z" />
    <glyph glyph-name="egrave" unicode="&#xe8;" horiz-adv-x="358" 
d="M436 260c4 0 5.99902 -6.50098 5.99902 -19.501s-5.33301 -28.5 -16 -46.5l-31.5 -51c-10.333 -16 -24.166 -34.667 -41.499 -56s-34.333 -38.333 -51 -51c-42 -30.667 -84.167 -46 -126.5 -46s-76.5 10.833 -102.5 32.5s-39 54.834 -39 99.501c0 68 25 131 75 189
s108.333 87 175 87c30 0 54 -7.83301 72 -23.5s27 -34.5 27 -56.5c0 -37.333 -17.667 -67.333 -53 -90s-77 -34 -125 -34c-28 0 -48.667 3.66699 -62 11c-12.667 -34 -19 -64 -19 -90c0 -56 23.667 -84 71 -84c28 0 56.833 10.833 86.5 32.5s55 46 76 73
s44.833 65.833 71.5 116.5c2.66699 4.66699 5 7 7 7zM329.999 338.999c0 19.333 -9.33398 28.999 -28.001 28.999c-26 0 -55 -16 -87 -48s-48 -58 -48 -78c0 -13.333 12.667 -20 38 -20s51.833 12.333 79.5 37s42.834 51.334 45.501 80.001zM257.998 539.998
c-28.667 14.667 -48.4971 24.333 -59.4971 29s-16.5 7.66699 -16.5 9c0 4 6.66699 9.66699 20 17s22.666 11 27.999 11s9.33301 -0.666992 12 -2l52 -38l58 -43c15.333 -11.333 25.333 -18 30 -20c0 -2 -3.33301 -4.5 -10 -7.5s-10.834 -4.5 -12.501 -4.5
s-11.834 4.66699 -30.501 14z" />
    <glyph glyph-name="eacute" unicode="&#xe9;" horiz-adv-x="358" 
d="M436 260c4 0 5.99902 -6.50098 5.99902 -19.501s-5.33301 -28.5 -16 -46.5l-31.5 -51c-10.333 -16 -24.166 -34.667 -41.499 -56s-34.333 -38.333 -51 -51c-42 -30.667 -84.167 -46 -126.5 -46s-76.5 10.833 -102.5 32.5s-39 54.834 -39 99.501c0 68 25 131 75 189
s108.333 87 175 87c30 0 54 -7.83301 72 -23.5s27 -34.5 27 -56.5c0 -37.333 -17.667 -67.333 -53 -90s-77 -34 -125 -34c-28 0 -48.667 3.66699 -62 11c-12.667 -34 -19 -64 -19 -90c0 -56 23.667 -84 71 -84c28 0 56.833 10.833 86.5 32.5s55 46 76 73
s44.833 65.833 71.5 116.5c2.66699 4.66699 5 7 7 7zM329.999 338.999c0 19.333 -9.33398 28.999 -28.001 28.999c-26 0 -55 -16 -87 -48s-48 -58 -48 -78c0 -13.333 12.667 -20 38 -20s51.833 12.333 79.5 37s42.834 51.334 45.501 80.001zM454.998 570.998
c-26.667 -11.333 -62 -28.166 -106 -50.499s-67 -33.5 -69 -33.5s-6.16699 1.66699 -12.5 5s-9.5 5.66602 -9.5 6.99902c6 3.33301 27.833 18.833 65.5 46.5l74.5 54.5c2.66699 1.33301 6.66699 2 12 2s14.5 -3.66699 27.5 -11s19.5 -13 19.5 -17
c0 -1.33301 -0.666992 -2.33301 -2 -3z" />
    <glyph glyph-name="ecircumflex" unicode="&#xea;" horiz-adv-x="358" 
d="M436 260c4 0 5.99902 -6.50098 5.99902 -19.501s-5.33301 -28.5 -16 -46.5l-31.5 -51c-10.333 -16 -24.166 -34.667 -41.499 -56s-34.333 -38.333 -51 -51c-42 -30.667 -84.167 -46 -126.5 -46s-76.5 10.833 -102.5 32.5s-39 54.834 -39 99.501c0 68 25 131 75 189
s108.333 87 175 87c30 0 54 -7.83301 72 -23.5s27 -34.5 27 -56.5c0 -37.333 -17.667 -67.333 -53 -90s-77 -34 -125 -34c-28 0 -48.667 3.66699 -62 11c-12.667 -34 -19 -64 -19 -90c0 -56 23.667 -84 71 -84c28 0 56.833 10.833 86.5 32.5s55 46 76 73
s44.833 65.833 71.5 116.5c2.66699 4.66699 5 7 7 7zM329.999 338.999c0 19.333 -9.33398 28.999 -28.001 28.999c-26 0 -55 -16 -87 -48s-48 -58 -48 -78c0 -13.333 12.667 -20 38 -20s51.833 12.333 79.5 37s42.834 51.334 45.501 80.001zM449.998 514.998
l-0.000976562 -1c0 -2 -4.83301 -5.66699 -14.5 -11s-17.167 -8 -22.5 -8c-9.33301 0 -22.166 12 -38.499 36s-28.5 45 -36.5 63c-22 -21.333 -46.5 -42.5 -73.5 -63.5s-45.833 -31.5 -56.5 -31.5s-16 1 -16 3v1c64 52 112.667 95.333 146 130c5.33301 6 10.833 9 16.5 9
s13.667 -7.5 24 -22.5l37.5 -56c14.667 -22.333 26 -38.5 34 -48.5z" />
    <glyph glyph-name="edieresis" unicode="&#xeb;" horiz-adv-x="358" 
d="M436 260c4 0 5.99902 -6.50098 5.99902 -19.501s-5.33301 -28.5 -16 -46.5l-31.5 -51c-10.333 -16 -24.166 -34.667 -41.499 -56s-34.333 -38.333 -51 -51c-42 -30.667 -84.167 -46 -126.5 -46s-76.5 10.833 -102.5 32.5s-39 54.834 -39 99.501c0 68 25 131 75 189
s108.333 87 175 87c30 0 54 -7.83301 72 -23.5s27 -34.5 27 -56.5c0 -37.333 -17.667 -67.333 -53 -90s-77 -34 -125 -34c-28 0 -48.667 3.66699 -62 11c-12.667 -34 -19 -64 -19 -90c0 -56 23.667 -84 71 -84c28 0 56.833 10.833 86.5 32.5s55 46 76 73
s44.833 65.833 71.5 116.5c2.66699 4.66699 5 7 7 7zM329.999 338.999c0 19.333 -9.33398 28.999 -28.001 28.999c-26 0 -55 -16 -87 -48s-48 -58 -48 -78c0 -13.333 12.667 -20 38 -20s51.833 12.333 79.5 37s42.834 51.334 45.501 80.001zM481.998 556.998
c-13.333 -3.33301 -27.168 -12.498 -41.501 -27.498s-25.166 -22.5 -32.499 -22.5c-14 0 -21 5.66699 -21 17s8.16699 28.666 24.5 51.999s31.5 35 45.5 35c7.33301 0 14.333 -5 21 -15s10 -18.833 10 -26.5s-2 -11.834 -6 -12.501zM294.996 557
c-13.333 -3.33301 -27.168 -12.498 -41.501 -27.498s-25.166 -22.5 -32.499 -22.5c-14 0 -21 5.66699 -21 17s8.16699 28.666 24.5 51.999s31.5 35 45.5 35c7.33301 0 14.333 -5 21 -15s10 -18.833 10 -26.5s-2 -11.834 -6 -12.501z" />
    <glyph glyph-name="igrave" unicode="&#xec;" horiz-adv-x="217" 
d="M186 400l50 -1h10c-10.667 -8 -24.834 -29.667 -42.501 -65l-39.5 -80c-8.66699 -18 -18.5 -42.333 -29.5 -73s-16.5 -55.667 -16.5 -75s6.33301 -29 19 -29c8.66699 0 20.834 5.83301 36.501 17.5s28.5 24 38.5 37s21.167 29.5 33.5 49.5l32 52
c9 14.667 14.167 22 15.5 22c4 0 6 -6.16699 6 -18.5s-3.33301 -24.166 -10 -35.499c-24.667 -41.333 -47.167 -75.833 -67.5 -103.5s-43.5 -51.834 -69.5 -72.501s-49.667 -31 -71 -31c-37.333 0 -56 26 -56 78c0 80.667 27.667 170 83 268c23.333 40 49.333 60 78 60z
M179 550c-28.667 14 -48.4971 23.5 -59.4971 28.5s-16.5 7.83301 -16.5 8.5c0 4 6.66699 9.66699 20 17s22.666 11 27.999 11s9.33301 -0.666992 12 -2l53 -39l57 -42c15.333 -11.333 25.333 -18 30 -20c0 -2 -3.33301 -4.5 -10 -7.5s-10.834 -4.5 -12.501 -4.5
s-11.834 4.66699 -30.501 14z" />
    <glyph glyph-name="iacute" unicode="&#xed;" horiz-adv-x="217" 
d="M186 400l50 -1h10c-10.667 -8 -24.834 -29.667 -42.501 -65l-39.5 -80c-8.66699 -18 -18.5 -42.333 -29.5 -73s-16.5 -55.667 -16.5 -75s6.33301 -29 19 -29c8.66699 0 20.834 5.83301 36.501 17.5s28.5 24 38.5 37s21.167 29.5 33.5 49.5l32 52
c9 14.667 14.167 22 15.5 22c4 0 6 -6.16699 6 -18.5s-3.33301 -24.166 -10 -35.499c-24.667 -41.333 -47.167 -75.833 -67.5 -103.5s-43.5 -51.834 -69.5 -72.501s-49.667 -31 -71 -31c-37.333 0 -56 26 -56 78c0 80.667 27.667 170 83 268c23.333 40 49.333 60 78 60z
M365 587c-26.667 -11.333 -62 -28.166 -106 -50.499s-67 -33.5 -69 -33.5s-6.16699 1.66699 -12.5 5s-9.5 5.66602 -9.5 6.99902c6 3.33301 27.833 18.833 65.5 46.5l74.5 54.5c2.66699 1.33301 6.66699 2 12 2s14.5 -3.66699 27.5 -11s19.5 -13 19.5 -17
c0 -1.33301 -0.666992 -2.33301 -2 -3z" />
    <glyph glyph-name="icircumflex" unicode="&#xee;" horiz-adv-x="217" 
d="M186 400l50 -1h10c-10.667 -8 -24.834 -29.667 -42.501 -65l-39.5 -80c-8.66699 -18 -18.5 -42.333 -29.5 -73s-16.5 -55.667 -16.5 -75s6.33301 -29 19 -29c8.66699 0 20.834 5.83301 36.501 17.5s28.5 24 38.5 37s21.167 29.5 33.5 49.5l32 52
c9 14.667 14.167 22 15.5 22c4 0 6 -6.16699 6 -18.5s-3.33301 -24.166 -10 -35.499c-24.667 -41.333 -47.167 -75.833 -67.5 -103.5s-43.5 -51.834 -69.5 -72.501s-49.667 -31 -71 -31c-37.333 0 -56 26 -56 78c0 80.667 27.667 170 83 268c23.333 40 49.333 60 78 60z
M360 509l-0.000976562 -1c0 -2 -4.83301 -5.66699 -14.5 -11s-17.167 -8 -22.5 -8c-9.33301 0 -22.166 12 -38.499 36s-28.5 45 -36.5 63c-22 -21.333 -46.5 -42.5 -73.5 -63.5s-45.833 -31.5 -56.5 -31.5s-16 1 -16 3v1c64 52 112.667 95.333 146 130
c5.33301 6 10.833 9 16.5 9s13.667 -7.5 24 -22.5l37.5 -56c14.667 -22.333 26 -38.5 34 -48.5z" />
    <glyph glyph-name="idieresis" unicode="&#xef;" horiz-adv-x="217" 
d="M186 400l50 -1h10c-10.667 -8 -24.834 -29.667 -42.501 -65l-39.5 -80c-8.66699 -18 -18.5 -42.333 -29.5 -73s-16.5 -55.667 -16.5 -75s6.33301 -29 19 -29c8.66699 0 20.834 5.83301 36.501 17.5s28.5 24 38.5 37s21.167 29.5 33.5 49.5l32 52
c9 14.667 14.167 22 15.5 22c4 0 6 -6.16699 6 -18.5s-3.33301 -24.166 -10 -35.499c-24.667 -41.333 -47.167 -75.833 -67.5 -103.5s-43.5 -51.834 -69.5 -72.501s-49.667 -31 -71 -31c-37.333 0 -56 26 -56 78c0 80.667 27.667 170 83 268c23.333 40 49.333 60 78 60z
M366 559c-13.333 -3.33301 -27.168 -12.498 -41.501 -27.498s-25.166 -22.5 -32.499 -22.5c-14 0 -21 5.66699 -21 17s8.16699 28.666 24.5 51.999s31.5 35 45.5 35c7.33301 0 14.333 -5 21 -15s10 -18.833 10 -26.5s-2 -11.834 -6 -12.501zM178.998 559.002
c-13.333 -3.33301 -27.168 -12.498 -41.501 -27.498s-25.166 -22.5 -32.499 -22.5c-14 0 -21 5.66699 -21 17s8.16699 28.666 24.5 51.999s31.5 35 45.5 35c7.33301 0 14.333 -5 21 -15s10 -18.833 10 -26.5s-2 -11.834 -6 -12.501z" />
    <glyph glyph-name="eth" unicode="&#xf0;" horiz-adv-x="482" 
d="M416.5 469.5c21.667 -55 32.501 -108.497 32.501 -160.497s-10 -102.333 -30 -151s-51.667 -90.5 -95 -125.5s-90.833 -52.5 -142.5 -52.5s-90 17.167 -115 51.5s-37.5 76.833 -37.5 127.5s10.167 99 30.5 145s50 84.833 89 116.5s82.167 47.5 129.5 47.5
c9.33301 0 14 -1.83301 14 -5.5s-5.33301 -7.5 -16 -11.5c-28.667 -9.33301 -54.834 -30 -78.501 -62s-41.667 -67.833 -54 -107.5s-18.5 -77.834 -18.5 -114.501c0 -86.667 33.667 -130 101 -130c44 0 79.5 21.5 106.5 64.5s40.5 90.5 40.5 142.5
s-10.833 107.333 -32.5 166s-49.834 110.334 -84.501 155.001l-135 -87h-1c-1.33301 0 -2 3.66699 -2 11c0 29.333 4.33301 46.666 13 51.999l94 60c-46.667 48.667 -93.667 73 -141 73c-27.333 0 -41 -11.667 -41 -35c0 -11.333 5 -23.333 15 -36s15 -22.334 15 -29.001
s-3.5 -12.667 -10.5 -18s-16.833 -8 -29.5 -8s-24.667 6.83301 -36 20.5s-17 31.167 -17 52.5s10.833 40.666 32.5 57.999s55.167 26 100.5 26c65.333 0 124.333 -20.667 177 -62l88 58c2 0 3 -4 3 -12c0 -28 -4 -45 -12 -51l-43 -27
c38.667 -39.333 68.834 -86.5 90.501 -141.5z" />
    <glyph glyph-name="ntilde" unicode="&#xf1;" horiz-adv-x="436" 
d="M508 201c-24.667 -41.333 -47.165 -75.835 -67.498 -103.502s-43.5 -51.834 -69.5 -72.501s-49.667 -31 -71 -31c-39.333 0 -59 21.667 -59 65s25 130.333 75 261c2.66699 6 4 12.333 4 19c0 14 -8.83301 21 -26.5 21s-35 -5.5 -52 -16.5s-32.5 -26.667 -46.5 -47
s-26.667 -41 -38 -62s-21.833 -45.167 -31.5 -72.5s-17.334 -50.166 -23.001 -68.499s-11.334 -38 -17.001 -59s-8.83398 -32.5 -9.50098 -34.5h-97c0 14 29.333 94.333 88 241c24 68.667 36 116.667 36 144c0 6.66699 -1 11.667 -3 15h42c23.333 0 38.333 -2.33301 45 -7
s10 -11 10 -19s-3.66699 -24.333 -11 -49c56 53.333 112.333 80 169 80c38 0 57 -17.333 57 -52c0 -11.333 -1.66699 -22.666 -5 -33.999s-11.666 -34 -24.999 -68c-29.333 -74.667 -44 -124.667 -44 -150c0 -16 6 -24 18 -24c8.66699 0 20.834 6 36.501 18
s28.667 24.5 39 37.5s21.666 29.333 33.999 49l31.5 51.5c8.66699 14.667 13.667 22 15 22c4 0 6 -6.16699 6 -18.5s-3.33301 -24.166 -10 -35.499zM452.002 580.998c-28 -48 -54.6689 -71.999 -80.002 -71.999c-15.333 0 -37 6 -65 18s-50.167 18 -66.5 18
s-30.5 -5 -42.5 -15s-18.333 -15 -19 -15c-7.33301 0 -11 3.16699 -11 9.5s8.66699 19.166 26 38.499s34.166 29 50.499 29s39.833 -6.16699 70.5 -18.5s52.834 -18.5 66.501 -18.5s24.334 3.5 32.001 10.5s13.834 13.833 18.501 20.5s9 10 13 10c6 0 9 -2.66699 9 -8
c0 -2 -0.666992 -4.33301 -2 -7z" />
    <glyph glyph-name="ograve" unicode="&#xf2;" 
d="M517 246c2 4 4 5.99902 6 5.99902c4 0 6 -5 6 -15c0 -32 -12.833 -58.5 -38.5 -79.5s-49.667 -31.5 -72 -31.5s-41.5 6.33301 -57.5 19c-24 -47.333 -52.5 -84.666 -85.5 -111.999s-75.5 -41 -127.5 -41c-33.333 0 -60.5 10.167 -81.5 30.5s-31.5 51.333 -31.5 93
s9.5 84.667 28.5 129s47.667 82.5 86 114.5s81.166 48 128.499 48c79.333 0 119 -42 119 -126c0 -32 -7 -65.667 -21 -101c10 -14 24.333 -21 43 -21c34.667 0 67.334 29 98.001 87zM350 307.999c-2.66699 35.333 -18.668 53.001 -48.001 53.001
c-46 0 -91 -44.667 -135 -134c-24 -49.333 -36 -94 -36 -134s17.333 -61 52 -63c28.667 0 55.167 15.167 79.5 45.5s44.833 63.833 61.5 100.5c-22.667 19.333 -34 43.666 -34 72.999c0 18 4.83301 32.333 14.5 43s22.834 16 39.501 16h6zM249.999 546
c-28.667 14.667 -48.4971 24.333 -59.4971 29s-16.5 7.66699 -16.5 9c0 4 6.66699 9.66699 20 17s22.666 11 27.999 11s9.33301 -0.666992 12 -2l52 -38l58 -43c15.333 -11.333 25.333 -18 30 -20c0 -2 -3.33301 -4.5 -10 -7.5s-10.834 -4.5 -12.501 -4.5
s-11.834 4.66699 -30.501 14z" />
    <glyph glyph-name="oacute" unicode="&#xf3;" 
d="M517 246c2 4 4 5.99902 6 5.99902c4 0 6 -5 6 -15c0 -32 -12.833 -58.5 -38.5 -79.5s-49.667 -31.5 -72 -31.5s-41.5 6.33301 -57.5 19c-24 -47.333 -52.5 -84.666 -85.5 -111.999s-75.5 -41 -127.5 -41c-33.333 0 -60.5 10.167 -81.5 30.5s-31.5 51.333 -31.5 93
s9.5 84.667 28.5 129s47.667 82.5 86 114.5s81.166 48 128.499 48c79.333 0 119 -42 119 -126c0 -32 -7 -65.667 -21 -101c10 -14 24.333 -21 43 -21c34.667 0 67.334 29 98.001 87zM350 307.999c-2.66699 35.333 -18.668 53.001 -48.001 53.001
c-46 0 -91 -44.667 -135 -134c-24 -49.333 -36 -94 -36 -134s17.333 -61 52 -63c28.667 0 55.167 15.167 79.5 45.5s44.833 63.833 61.5 100.5c-22.667 19.333 -34 43.666 -34 72.999c0 18 4.83301 32.333 14.5 43s22.834 16 39.501 16h6zM430.999 581
c-26.667 -11.333 -62 -28.166 -106 -50.499s-67 -33.5 -69 -33.5s-6.16699 1.66699 -12.5 5s-9.5 5.66602 -9.5 6.99902c6 3.33301 27.833 18.833 65.5 46.5l74.5 54.5c2.66699 1.33301 6.66699 2 12 2s14.5 -3.66699 27.5 -11s19.5 -13 19.5 -17
c0 -1.33301 -0.666992 -2.33301 -2 -3z" />
    <glyph glyph-name="ocircumflex" unicode="&#xf4;" 
d="M517 246c2 4 4 5.99902 6 5.99902c4 0 6 -5 6 -15c0 -32 -12.833 -58.5 -38.5 -79.5s-49.667 -31.5 -72 -31.5s-41.5 6.33301 -57.5 19c-24 -47.333 -52.5 -84.666 -85.5 -111.999s-75.5 -41 -127.5 -41c-33.333 0 -60.5 10.167 -81.5 30.5s-31.5 51.333 -31.5 93
s9.5 84.667 28.5 129s47.667 82.5 86 114.5s81.166 48 128.499 48c79.333 0 119 -42 119 -126c0 -32 -7 -65.667 -21 -101c10 -14 24.333 -21 43 -21c34.667 0 67.334 29 98.001 87zM350 307.999c-2.66699 35.333 -18.668 53.001 -48.001 53.001
c-46 0 -91 -44.667 -135 -134c-24 -49.333 -36 -94 -36 -134s17.333 -61 52 -63c28.667 0 55.167 15.167 79.5 45.5s44.833 63.833 61.5 100.5c-22.667 19.333 -34 43.666 -34 72.999c0 18 4.83301 32.333 14.5 43s22.834 16 39.501 16h6zM436.999 502l-0.000976562 -1
c0 -2 -4.83301 -5.66699 -14.5 -11s-17.167 -8 -22.5 -8c-9.33301 0 -22.166 12 -38.499 36s-28.5 45 -36.5 63c-22 -21.333 -46.5 -42.5 -73.5 -63.5s-45.833 -31.5 -56.5 -31.5s-16 1 -16 3v1c64 52 112.667 95.333 146 130c5.33301 6 10.833 9 16.5 9
s13.667 -7.5 24 -22.5l37.5 -56c14.667 -22.333 26 -38.5 34 -48.5z" />
    <glyph glyph-name="otilde" unicode="&#xf5;" 
d="M517 246c2 4 4 5.99902 6 5.99902c4 0 6 -5 6 -15c0 -32 -12.833 -58.5 -38.5 -79.5s-49.667 -31.5 -72 -31.5s-41.5 6.33301 -57.5 19c-24 -47.333 -52.5 -84.666 -85.5 -111.999s-75.5 -41 -127.5 -41c-33.333 0 -60.5 10.167 -81.5 30.5s-31.5 51.333 -31.5 93
s9.5 84.667 28.5 129s47.667 82.5 86 114.5s81.166 48 128.499 48c79.333 0 119 -42 119 -126c0 -32 -7 -65.667 -21 -101c10 -14 24.333 -21 43 -21c34.667 0 67.334 29 98.001 87zM350 307.999c-2.66699 35.333 -18.668 53.001 -48.001 53.001
c-46 0 -91 -44.667 -135 -134c-24 -49.333 -36 -94 -36 -134s17.333 -61 52 -63c28.667 0 55.167 15.167 79.5 45.5s44.833 63.833 61.5 100.5c-22.667 19.333 -34 43.666 -34 72.999c0 18 4.83301 32.333 14.5 43s22.834 16 39.501 16h6zM447.999 575
c-28 -48 -54.6689 -71.999 -80.002 -71.999c-15.333 0 -37 6 -65 18s-50.167 18 -66.5 18s-30.5 -5 -42.5 -15s-18.333 -15 -19 -15c-7.33301 0 -11 3.16699 -11 9.5s8.66699 19.166 26 38.499s34.166 29 50.499 29s39.833 -6.16699 70.5 -18.5s52.834 -18.5 66.501 -18.5
s24.334 3.5 32.001 10.5s13.834 13.833 18.501 20.5s9 10 13 10c6 0 9 -2.66699 9 -8c0 -2 -0.666992 -4.33301 -2 -7z" />
    <glyph glyph-name="odieresis" unicode="&#xf6;" 
d="M517 246c2 4 4 5.99902 6 5.99902c4 0 6 -5 6 -15c0 -32 -12.833 -58.5 -38.5 -79.5s-49.667 -31.5 -72 -31.5s-41.5 6.33301 -57.5 19c-24 -47.333 -52.5 -84.666 -85.5 -111.999s-75.5 -41 -127.5 -41c-33.333 0 -60.5 10.167 -81.5 30.5s-31.5 51.333 -31.5 93
s9.5 84.667 28.5 129s47.667 82.5 86 114.5s81.166 48 128.499 48c79.333 0 119 -42 119 -126c0 -32 -7 -65.667 -21 -101c10 -14 24.333 -21 43 -21c34.667 0 67.334 29 98.001 87zM350 307.999c-2.66699 35.333 -18.668 53.001 -48.001 53.001
c-46 0 -91 -44.667 -135 -134c-24 -49.333 -36 -94 -36 -134s17.333 -61 52 -63c28.667 0 55.167 15.167 79.5 45.5s44.833 63.833 61.5 100.5c-22.667 19.333 -34 43.666 -34 72.999c0 18 4.83301 32.333 14.5 43s22.834 16 39.501 16h6zM479.999 550
c-13.333 -3.33301 -27.168 -12.498 -41.501 -27.498s-25.166 -22.5 -32.499 -22.5c-14 0 -21 5.66699 -21 17s8.16699 28.666 24.5 51.999s31.5 35 45.5 35c7.33301 0 14.333 -5 21 -15s10 -18.833 10 -26.5s-2 -11.834 -6 -12.501zM292.997 550.002
c-13.333 -3.33301 -27.168 -12.498 -41.501 -27.498s-25.166 -22.5 -32.499 -22.5c-14 0 -21 5.66699 -21 17s8.16699 28.666 24.5 51.999s31.5 35 45.5 35c7.33301 0 14.333 -5 21 -15s10 -18.833 10 -26.5s-2 -11.834 -6 -12.501z" />
    <glyph glyph-name="divide" unicode="&#xf7;" horiz-adv-x="737" 
d="M456 481c-23.333 -31.333 -37.001 -47 -41.001 -47c-7.33301 0 -16.166 4 -26.499 12s-15.5 16.5 -15.5 25.5s7.66699 18.167 23 27.5s32 14 50 14c11.333 0 17 -5.33301 17 -16c0 -6.66699 -2.33301 -12 -7 -16zM200.999 372h376c0.666992 0 1 -1.66699 1 -5
s-6.16699 -14.166 -18.5 -32.499s-21.833 -27.5 -28.5 -27.5h-376c-0.666992 0 -1 1.66699 -1 5s6.33301 14.166 19 32.499s22 27.5 28 27.5zM347.999 193c0 -6.66699 -1.83398 -11.667 -5.50098 -15s-8.5 -9 -14.5 -17c-16.667 -20.667 -26.334 -31 -29.001 -31
c-7.33301 0 -16.166 4 -26.499 12s-15.5 16.5 -15.5 25.5s7.83301 18.333 23.5 28s30.834 14.5 45.501 14.5s22 -5.66699 22 -17z" />
    <glyph glyph-name="oslash" unicode="&#xf8;" 
d="M517 246c2 4 3.99902 6.00098 5.99902 6.00098c4 0 6 -5 6 -15c0 -32 -12.833 -58.5 -38.5 -79.5s-49.667 -31.5 -72 -31.5s-41.5 6.33301 -57.5 19c-24 -48 -52.667 -85.5 -86 -112.5s-76.666 -40.5 -129.999 -40.5h-2l-65 -103c-2 -3.33301 -8.5 -5 -19.5 -5
s-16.5 0.666992 -16.5 2v1l69 110c-50.667 13.333 -76 52.333 -76 117c0 42.667 9.5 86.167 28.5 130.5s47.667 82.5 86 114.5s81.166 48 128.499 48c32 0 58 -7.66699 78 -23l55 87c2 3.33301 8.5 5 19.5 5s16.5 -0.666992 16.5 -2v-1l-70 -111
c13.333 -20.667 20 -47.334 20 -80.001s-7 -66.667 -21 -102c10 -14 24.333 -21 43 -21c34.667 0 67.334 29 98.001 87zM166.999 227.001c-24 -49.333 -35.999 -93 -35.999 -131c0 -20.667 4.33301 -36.667 13 -48l190 301c-6.66699 8 -17.334 12 -32.001 12
c-46 0 -91 -44.667 -135 -134zM324 176.001c-17.333 14 -28 31.333 -32 52l-124 -196c6.66699 -1.33301 11.667 -2 15 -2c28.667 0 55.167 15.167 79.5 45.5s44.833 63.833 61.5 100.5z" />
    <glyph glyph-name="ugrave" unicode="&#xf9;" 
d="M416 403l48 -0.996094c10 0 16.333 0.333008 19 1c-18.667 -12.667 -45.5 -56.834 -80.5 -132.501s-52.5 -130.167 -52.5 -163.5c0 -20 6.66699 -30 20 -30c8.66699 0 20.5 5.66699 35.5 17s27.833 23.833 38.5 37.5s22.167 30.5 34.5 50.5l32 52
c9 14.667 14.167 22 15.5 22c4 0 6 -6.33301 6 -19s-3.66699 -24.667 -11 -36c-82.667 -138 -151.667 -207 -207 -207c-37.333 0 -56 27.667 -56 83c0 17.333 1.33301 34 4 50c-62.667 -88.667 -122.334 -133 -179.001 -133c-16.667 0 -30.167 7 -40.5 21
s-15.5 34.667 -15.5 62s9.66699 72.5 29 135.5s43 114.833 71 155.5c6.66699 10 13.834 16.167 21.501 18.5s22.167 3.5 43.5 3.5h48c-16.667 -22.667 -34.667 -53.334 -54 -92.001c-44 -91.333 -66 -158.333 -66 -201c0 -25.333 9.16699 -38 27.5 -38
s40.166 17.667 65.499 53s52.5 81.166 81.5 137.499s45.833 88.166 50.5 95.499c24.667 38.667 48.334 58 71.001 58zM289 542.004c-28.667 14 -48.4971 23.5 -59.4971 28.5s-16.5 7.83301 -16.5 8.5c0 4 6.66699 9.66699 20 17s22.666 11 27.999 11
s9.33301 -0.666992 12 -2l53 -39l57 -42c15.333 -11.333 25.333 -18 30 -20c0 -2 -3.33301 -4.5 -10 -7.5s-10.834 -4.5 -12.501 -4.5s-11.834 4.66699 -30.501 14z" />
    <glyph glyph-name="uacute" unicode="&#xfa;" 
d="M416 403l48 -0.996094c10 0 16.333 0.333008 19 1c-18.667 -12.667 -45.5 -56.834 -80.5 -132.501s-52.5 -130.167 -52.5 -163.5c0 -20 6.66699 -30 20 -30c8.66699 0 20.5 5.66699 35.5 17s27.833 23.833 38.5 37.5s22.167 30.5 34.5 50.5l32 52
c9 14.667 14.167 22 15.5 22c4 0 6 -6.33301 6 -19s-3.66699 -24.667 -11 -36c-82.667 -138 -151.667 -207 -207 -207c-37.333 0 -56 27.667 -56 83c0 17.333 1.33301 34 4 50c-62.667 -88.667 -122.334 -133 -179.001 -133c-16.667 0 -30.167 7 -40.5 21
s-15.5 34.667 -15.5 62s9.66699 72.5 29 135.5s43 114.833 71 155.5c6.66699 10 13.834 16.167 21.501 18.5s22.167 3.5 43.5 3.5h48c-16.667 -22.667 -34.667 -53.334 -54 -92.001c-44 -91.333 -66 -158.333 -66 -201c0 -25.333 9.16699 -38 27.5 -38
s40.166 17.667 65.499 53s52.5 81.166 81.5 137.499s45.833 88.166 50.5 95.499c24.667 38.667 48.334 58 71.001 58zM459 577.004c-26.667 -11.333 -62 -28.166 -106 -50.499s-67 -33.5 -69 -33.5s-6.16699 1.66699 -12.5 5s-9.5 5.66602 -9.5 6.99902
c6 3.33301 27.833 18.833 65.5 46.5l74.5 54.5c2.66699 1.33301 6.66699 2 12 2s14.5 -3.66699 27.5 -11s19.5 -13 19.5 -17c0 -1.33301 -0.666992 -2.33301 -2 -3z" />
    <glyph glyph-name="ucircumflex" unicode="&#xfb;" 
d="M416 403l48 -0.996094c10 0 16.333 0.333008 19 1c-18.667 -12.667 -45.5 -56.834 -80.5 -132.501s-52.5 -130.167 -52.5 -163.5c0 -20 6.66699 -30 20 -30c8.66699 0 20.5 5.66699 35.5 17s27.833 23.833 38.5 37.5s22.167 30.5 34.5 50.5l32 52
c9 14.667 14.167 22 15.5 22c4 0 6 -6.33301 6 -19s-3.66699 -24.667 -11 -36c-82.667 -138 -151.667 -207 -207 -207c-37.333 0 -56 27.667 -56 83c0 17.333 1.33301 34 4 50c-62.667 -88.667 -122.334 -133 -179.001 -133c-16.667 0 -30.167 7 -40.5 21
s-15.5 34.667 -15.5 62s9.66699 72.5 29 135.5s43 114.833 71 155.5c6.66699 10 13.834 16.167 21.501 18.5s22.167 3.5 43.5 3.5h48c-16.667 -22.667 -34.667 -53.334 -54 -92.001c-44 -91.333 -66 -158.333 -66 -201c0 -25.333 9.16699 -38 27.5 -38
s40.166 17.667 65.499 53s52.5 81.166 81.5 137.499s45.833 88.166 50.5 95.499c24.667 38.667 48.334 58 71.001 58zM477 505.004l-0.000976562 -1c0 -2 -4.83301 -5.66699 -14.5 -11s-17.167 -8 -22.5 -8c-9.33301 0 -22.166 12 -38.499 36s-28.5 45 -36.5 63
c-22 -21.333 -46.5 -42.5 -73.5 -63.5s-45.833 -31.5 -56.5 -31.5s-16 1 -16 3v1c64 52 112.667 95.333 146 130c5.33301 6 10.833 9 16.5 9s13.667 -7.5 24 -22.5l37.5 -56c14.667 -22.333 26 -38.5 34 -48.5z" />
    <glyph glyph-name="udieresis" unicode="&#xfc;" 
d="M416 403l48 -0.996094c10 0 16.333 0.333008 19 1c-18.667 -12.667 -45.5 -56.834 -80.5 -132.501s-52.5 -130.167 -52.5 -163.5c0 -20 6.66699 -30 20 -30c8.66699 0 20.5 5.66699 35.5 17s27.833 23.833 38.5 37.5s22.167 30.5 34.5 50.5l32 52
c9 14.667 14.167 22 15.5 22c4 0 6 -6.33301 6 -19s-3.66699 -24.667 -11 -36c-82.667 -138 -151.667 -207 -207 -207c-37.333 0 -56 27.667 -56 83c0 17.333 1.33301 34 4 50c-62.667 -88.667 -122.334 -133 -179.001 -133c-16.667 0 -30.167 7 -40.5 21
s-15.5 34.667 -15.5 62s9.66699 72.5 29 135.5s43 114.833 71 155.5c6.66699 10 13.834 16.167 21.501 18.5s22.167 3.5 43.5 3.5h48c-16.667 -22.667 -34.667 -53.334 -54 -92.001c-44 -91.333 -66 -158.333 -66 -201c0 -25.333 9.16699 -38 27.5 -38
s40.166 17.667 65.499 53s52.5 81.166 81.5 137.499s45.833 88.166 50.5 95.499c24.667 38.667 48.334 58 71.001 58zM475 554.004c-13.333 -3.33301 -27.168 -12.498 -41.501 -27.498s-25.166 -22.5 -32.499 -22.5c-14 0 -21 5.66699 -21 17s8.16699 28.666 24.5 51.999
s31.5 35 45.5 35c7.33301 0 14.333 -5 21 -15s10 -18.833 10 -26.5s-2 -11.834 -6 -12.501zM287.998 554.006c-13.333 -3.33301 -27.168 -12.498 -41.501 -27.498s-25.166 -22.5 -32.499 -22.5c-14 0 -21 5.66699 -21 17s8.16699 28.666 24.5 51.999s31.5 35 45.5 35
c7.33301 0 14.333 -5 21 -15s10 -18.833 10 -26.5s-2 -11.834 -6 -12.501z" />
    <glyph glyph-name="yacute" unicode="&#xfd;" horiz-adv-x="425" 
d="M440 390l41.0029 -0.00292969c-20.667 -12.667 -41.667 -44 -63 -94c-17.333 -42 -32 -80.167 -44 -114.5l-22 -62.5l-18.5 -53.5c-9.66699 -28.333 -17.5 -50.166 -23.5 -65.499c-16.667 -46.667 -36 -83.667 -58 -111s-49.333 -49.166 -82 -65.499
s-65.667 -24.5 -99 -24.5s-61.833 6.5 -85.5 19.5s-35.5 33.5 -35.5 61.5c0 14.667 4.5 27.834 13.5 39.501s19.333 17.5 31 17.5s21.5 -2.66699 29.5 -8s13.667 -11.333 17 -18c-12 -4 -18 -18 -18 -42c0 -12.667 4.5 -22.834 13.5 -30.501s20.5 -11.5 34.5 -11.5
c54 0 99.333 48.333 136 145l57 152c-31.333 -39.333 -58.5 -68.833 -81.5 -88.5s-41 -31.5 -54 -35.5s-28.333 -6 -46 -6s-31.834 7.16699 -42.501 21.5s-15.834 35.333 -15.501 63s8.33301 67.167 24 118.5s33 92 52 122s38.667 49.333 59 58s48.166 13 83.499 13
c2.66699 0 4 -1.33301 4 -4s-2 -6 -6 -10c-27.333 -24 -55.166 -67 -83.499 -129s-42.5 -114.333 -42.5 -157c0 -22.667 6.33301 -34 19 -34c24 0 54.667 24 92 72s66 96 86 144l11.5 29c5 12.667 8.5 21.334 10.5 26.001s5.16699 11.167 9.5 19.5s8.16602 14 11.499 17
s7.83301 6.83301 13.5 11.5s11.5 7.66699 17.5 9c19.333 4 37.333 6 54 6zM464.003 570.997c-26.667 -11.333 -62 -28.166 -106 -50.499s-67 -33.5 -69 -33.5s-6.16699 1.66699 -12.5 5s-9.5 5.66602 -9.5 6.99902c6 3.33301 27.833 18.833 65.5 46.5l74.5 54.5
c2.66699 1.33301 6.66699 2 12 2s14.5 -3.66699 27.5 -11s19.5 -13 19.5 -17c0 -1.33301 -0.666992 -2.33301 -2 -3z" />
    <glyph glyph-name="thorn" unicode="&#xfe;" horiz-adv-x="394" 
d="M466 201c-45.333 -82 -90.168 -138.833 -134.501 -170.5s-96.166 -47.5 -155.499 -47.5s-94 12.333 -104 37l-3 11l-56 -175c-13.333 -39.333 -23.5 -64.833 -30.5 -76.5s-14.833 -19.167 -23.5 -22.5s-19.667 -5 -33 -5h-48c20 28.667 42 77.667 66 147
c6 16 14.833 40.833 26.5 74.5l27.5 77.5c4.66699 21.333 9.83398 38.666 15.501 51.999s15.834 45.166 30.501 95.499l44.5 145.5c15 46.667 32.5 94 52.5 142s43.333 86.667 70 116s54.667 44 84 44h30c-12 -7.33301 -28.333 -28.666 -49 -63.999
c-47.333 -81.333 -89.333 -186.333 -126 -315c25.333 38.667 53.666 71.167 84.999 97.5s60.666 39.5 87.999 39.5c44.667 0 67 -30.667 67 -92c0 -51.333 -15.667 -102.5 -47 -153.5s-69.333 -93.5 -114 -127.5h7h1c49.333 0 101.666 35.333 156.999 106
c8.66699 10.667 23.334 33.334 44.001 68.001s31.667 52 33 52c4 0 6 -6.16699 6 -18.5s-3.66699 -24.833 -11 -37.5zM277.998 319c-2 0.666992 -4.99902 0.99707 -8.99902 0.99707c-14 0 -29.333 -6.66699 -46 -20c-27.333 -21.333 -56.333 -56.666 -87 -105.999
s-46 -89.666 -46 -120.999s9.66699 -47 29 -47c23.333 0 49.166 17.333 77.499 52s51.5 72.834 69.5 114.501s27 72.5 27 92.5s-5 31.333 -15 34z" />
    <glyph glyph-name="ydieresis" unicode="&#xff;" horiz-adv-x="425" 
d="M440 390l41.0029 -0.00292969c-20.667 -12.667 -41.667 -44 -63 -94c-17.333 -42 -32 -80.167 -44 -114.5l-22 -62.5l-18.5 -53.5c-9.66699 -28.333 -17.5 -50.166 -23.5 -65.499c-16.667 -46.667 -36 -83.667 -58 -111s-49.333 -49.166 -82 -65.499
s-65.667 -24.5 -99 -24.5s-61.833 6.5 -85.5 19.5s-35.5 33.5 -35.5 61.5c0 14.667 4.5 27.834 13.5 39.501s19.333 17.5 31 17.5s21.5 -2.66699 29.5 -8s13.667 -11.333 17 -18c-12 -4 -18 -18 -18 -42c0 -12.667 4.5 -22.834 13.5 -30.501s20.5 -11.5 34.5 -11.5
c54 0 99.333 48.333 136 145l57 152c-31.333 -39.333 -58.5 -68.833 -81.5 -88.5s-41 -31.5 -54 -35.5s-28.333 -6 -46 -6s-31.834 7.16699 -42.501 21.5s-15.834 35.333 -15.501 63s8.33301 67.167 24 118.5s33 92 52 122s38.667 49.333 59 58s48.166 13 83.499 13
c2.66699 0 4 -1.33301 4 -4s-2 -6 -6 -10c-27.333 -24 -55.166 -67 -83.499 -129s-42.5 -114.333 -42.5 -157c0 -22.667 6.33301 -34 19 -34c24 0 54.667 24 92 72s66 96 86 144l11.5 29c5 12.667 8.5 21.334 10.5 26.001s5.16699 11.167 9.5 19.5s8.16602 14 11.499 17
s7.83301 6.83301 13.5 11.5s11.5 7.66699 17.5 9c19.333 4 37.333 6 54 6zM491.003 544.997c-13.333 -3.33301 -27.168 -12.498 -41.501 -27.498s-25.166 -22.5 -32.499 -22.5c-14 0 -21 5.66699 -21 17s8.16699 28.666 24.5 51.999s31.5 35 45.5 35
c7.33301 0 14.333 -5 21 -15s10 -18.833 10 -26.5s-2 -11.834 -6 -12.501zM304.001 544.999c-13.333 -3.33301 -27.168 -12.498 -41.501 -27.498s-25.166 -22.5 -32.499 -22.5c-14 0 -21 5.66699 -21 17s8.16699 28.666 24.5 51.999s31.5 35 45.5 35
c7.33301 0 14.333 -5 21 -15s10 -18.833 10 -26.5s-2 -11.834 -6 -12.501z" />
    <glyph glyph-name="hbar" unicode="&#x127;" horiz-adv-x="438" 
d="M510 201c-82 -138 -151.332 -207.002 -207.999 -207.002c-39.333 0 -59 22.667 -59 68c0 52.667 21 127.667 63 225c9.33301 24.667 14 41.667 14 51c0 13.333 -6 20 -18 20c-8 0 -21.5 -4.66699 -40.5 -14s-37.167 -23 -54.5 -41s-31.833 -38.833 -43.5 -62.5
s-21 -44.167 -28 -61.5s-14.167 -38.5 -21.5 -63.5s-13.833 -45.333 -19.5 -61s-11.5 -33.834 -17.5 -54.501h-97c18 46 43.833 119.5 77.5 220.5s62.5 180.333 86.5 238s47.5 106.334 70.5 146.001s49.333 72.834 79 99.501s61 40 94 40s49.5 -15.667 49.5 -47
c0 -22 -9 -51 -27 -87c-38.667 -76 -103.334 -164 -194.001 -264c36 26 64.5 43 85.5 51s41.167 12 60.5 12c38 0 57 -16.667 57 -50c0 -13.333 -2.33301 -25.666 -7 -36.999l-15.5 -39l-14 -36l-14.5 -38c-6 -16 -10.667 -29.667 -14 -41c-8.66699 -28 -13 -50.333 -13 -67
s5.66699 -25 17 -25c40 0 90 58 150 174c2 4.66699 4.5 7 7.5 7s4.5 -6.16699 4.5 -18.5s-3.33301 -24.833 -10 -37.5zM389.001 718.998c-23.333 0 -53.832 -37 -91.499 -111s-74.5 -159 -110.5 -255c91.333 107.333 153.666 195.333 186.999 264c18.667 42 28 69.5 28 82.5
s-4.33301 19.5 -13 19.5zM117.002 582.998l368.999 0.000976562l2 -1c0 -4 -7.16699 -11.5 -21.5 -22.5s-25.166 -16.5 -32.499 -16.5h-369c-0.666992 0 -1 0.333008 -1 1c0 3.33301 7 10.666 21 21.999s24.667 17 32 17z" />
    <glyph glyph-name="Itilde" unicode="&#x128;" horiz-adv-x="408" 
d="M217 698l225.999 0.00195312c-46 -35.333 -109.333 -144.666 -190 -327.999c-20.667 -46.667 -44.167 -107.834 -70.5 -183.501s-39.5 -130.834 -39.5 -165.501c0 -9.33301 1.33301 -16.333 4 -21h-129c18.667 80.667 58 192.667 118 336c80 190.667 131.667 299 155 325
c-56.667 -1.33301 -114.167 -12.833 -172.5 -34.5s-92.166 -47.5 -101.499 -77.5c-0.666992 -2 -2 -3 -4 -3c-6 0 -9 4.33301 -9 13c0 1.33301 0.666992 4.66602 2 9.99902c12.667 36.667 31 65 55 85s47.5 32.333 70.5 37s51.5 7 85.5 7zM521.999 828.002
c-28 -48 -54.6689 -71.999 -80.002 -71.999c-15.333 0 -37 6 -65 18s-50.167 18 -66.5 18s-30.5 -5 -42.5 -15s-18.333 -15 -19 -15c-7.33301 0 -11 3.16699 -11 9.5s8.66699 19.166 26 38.499s34.166 29 50.499 29s39.833 -6.16699 70.5 -18.5s52.834 -18.5 66.501 -18.5
s24.334 3.33301 32.001 10s13.834 13.5 18.501 20.5s9 10.5 13 10.5c6 0 9 -2.66699 9 -8c0 -2 -0.666992 -4.33301 -2 -7z" />
    <glyph glyph-name="itilde" unicode="&#x129;" horiz-adv-x="217" 
d="M186 400l50 -1h10c-10.667 -8 -24.834 -29.667 -42.501 -65l-39.5 -80c-8.66699 -18 -18.5 -42.333 -29.5 -73s-16.5 -55.667 -16.5 -75s6.33301 -29 19 -29c8.66699 0 20.834 5.83301 36.501 17.5s28.5 24 38.5 37s21.167 29.5 33.5 49.5l32 52
c9 14.667 14.167 22 15.5 22c4 0 6 -6.16699 6 -18.5s-3.33301 -24.166 -10 -35.499c-24.667 -41.333 -47.167 -75.833 -67.5 -103.5s-43.5 -51.834 -69.5 -72.501s-49.667 -31 -71 -31c-37.333 0 -56 26 -56 78c0 80.667 27.667 170 83 268c23.333 40 49.333 60 78 60z
M378 578c-28 -48 -54.6689 -71.999 -80.002 -71.999c-15.333 0 -37 6 -65 18s-50.167 18 -66.5 18s-30.5 -5 -42.5 -15s-18.333 -15 -19 -15c-7.33301 0 -11 3.16699 -11 9.5s8.66699 19.166 26 38.499s34.166 29 50.499 29s39.833 -6.16699 70.5 -18.5
s52.834 -18.5 66.501 -18.5s24.334 3.33301 32.001 10s13.834 13.5 18.501 20.5s9 10.5 13 10.5c6 0 9 -2.66699 9 -8c0 -2 -0.666992 -4.33301 -2 -7z" />
    <glyph glyph-name="dotlessi" unicode="&#x131;" horiz-adv-x="217" 
d="M186 400l50 -1h10c-10.667 -8 -24.834 -29.667 -42.501 -65l-39.5 -80c-8.66699 -18 -18.5 -42.333 -29.5 -73s-16.5 -55.667 -16.5 -75s6.33301 -29 19 -29c8.66699 0 20.834 5.83301 36.501 17.5s28.5 24 38.5 37s21.167 29.5 33.5 49.5l32 52
c9 14.667 14.167 22 15.5 22c4 0 6 -6.16699 6 -18.5s-3.33301 -24.166 -10 -35.499c-24.667 -41.333 -47.167 -75.833 -67.5 -103.5s-43.5 -51.834 -69.5 -72.501s-49.667 -31 -71 -31c-37.333 0 -56 26 -56 78c0 80.667 27.667 170 83 268c23.333 40 49.333 60 78 60z" />
    <glyph glyph-name="IJ" unicode="&#x132;" horiz-adv-x="752" 
d="M98 -50l-1.00293 -5.99902c0 -18.667 4.83301 -32.5 14.5 -41.5s21.5 -13.5 35.5 -13.5c34 0 68.167 20.833 102.5 62.5s74.333 108.5 120 200.5s77.5 160.333 95.5 205s36 85 54 121s40 72 66 108s49 58 69 66c-46 -10 -87.167 -24.333 -123.5 -43
s-58.166 -38.667 -65.499 -60c-0.666992 -2 -2 -3 -4 -3c-6 0 -9 4.33301 -9 13c0 1.33301 0.666992 4.66602 2 9.99902c12.667 36.667 31 65 55 85s47.5 32.333 70.5 37s51.5 7 85.5 7h47l40 -1c-36 -12 -68.333 -39.5 -97 -82.5s-60.667 -114.833 -96 -215.5
c-21.333 -72 -46.166 -142.833 -74.499 -212.5s-49.666 -119 -63.999 -148s-32.333 -60.833 -54 -95.5s-42.667 -62.667 -63 -84s-43.5 -39.333 -69.5 -54s-53.333 -22 -82 -22s-52.5 8.83301 -71.5 26.5s-28.5 41.167 -28.5 70.5c0 14 3.66699 28.667 11 44s19 24 35 26z
M216.997 698.001l225.999 0.00195312c-46 -35.333 -109.333 -144.666 -190 -327.999c-20.667 -46.667 -44.167 -107.834 -70.5 -183.501s-39.5 -130.834 -39.5 -165.501c0 -9.33301 1.33301 -16.333 4 -21h-129c18.667 80.667 58 192.667 118 336
c80 190.667 131.667 299 155 325c-56.667 -1.33301 -114.167 -12.833 -172.5 -34.5s-92.166 -47.5 -101.499 -77.5c-0.666992 -2 -2 -3 -4 -3c-6 0 -9 4.33301 -9 13c0 1.33301 0.666992 4.66602 2 9.99902c12.667 36.667 31 65 55 85s47.5 32.333 70.5 37s51.5 7 85.5 7z
" />
    <glyph glyph-name="ij" unicode="&#x133;" horiz-adv-x="432" 
d="M322 532h-4.00195c-13.333 0 -26.166 -5.66699 -38.499 -17s-21.166 -23 -26.499 -35c-17.333 6.66699 -26 18.667 -26 36s8 34.833 24 52.5s31.333 26.5 46 26.5s25.667 -3.33301 33 -10s11 -15.167 11 -25.5s-6.33301 -19.5 -19 -27.5zM185.998 400l50 -1h10
c-10.667 -8 -24.834 -29.667 -42.501 -65l-39.5 -80c-8.66699 -18 -18.5 -42.333 -29.5 -73s-16.5 -55.667 -16.5 -75s6.33301 -29 19 -29c8.66699 0 20.834 5.83301 36.501 17.5s28.5 24 38.5 37s21.167 29.5 33.5 49.5l32 52c9 14.667 14.167 22 15.5 22
c4 0 6 -6.16699 6 -18.5s-3.33301 -24.166 -10 -35.499c-24.667 -41.333 -47.167 -75.833 -67.5 -103.5s-43.5 -51.834 -69.5 -72.501s-49.667 -31 -71 -31c-37.333 0 -56 26 -56 78c0 80.667 27.667 170 83 268c23.333 40 49.333 60 78 60zM382.998 390
l40.0049 -0.00195312c-14.667 -8.66699 -26.334 -21.5 -35.001 -38.5l-20 -39c-4.66699 -9 -10.667 -23.167 -18 -42.5l-16 -44c-13.333 -33.333 -25 -64.666 -35 -93.999s-16.833 -49 -20.5 -59s-10.334 -26.667 -20.001 -50s-17.834 -41.333 -24.501 -54l-28 -51
c-12 -21.333 -23.333 -38 -34 -50s-23.834 -25.5 -39.501 -40.5s-31.167 -26.5 -46.5 -34.5c-38 -19.333 -73.333 -29 -106 -29c-67.333 0 -101 20.667 -101 62c0 16.667 5.16699 32.5 15.5 47.5s24.333 22.5 42 22.5s29.5 -7 35.5 -21c-6.66699 -4 -11.834 -11 -15.501 -21
s-5.5 -19.5 -5.5 -28.5s3.5 -16.667 10.5 -23s16.5 -9.5 28.5 -9.5c56 0.666992 106.333 54.334 151 161.001c16 38 37 95.333 63 172c47.333 142 79.333 222 96 240c16 16 43.667 24 83 24zM499.003 531.998h-4.00195c-13.333 0 -26.166 -5.66699 -38.499 -17
s-21.166 -23 -26.499 -35c-17.333 6.66699 -26 18.667 -26 36s8 34.833 24 52.5s31.333 26.5 46 26.5s25.667 -3.33301 33 -10s11 -15.167 11 -25.5s-6.33301 -19.5 -19 -27.5z" />
    <glyph glyph-name="Jcircumflex" unicode="&#x134;" horiz-adv-x="441" 
d="M-39 -3l-1.00195 -5.99707c0 -18.667 4.83301 -32.5 14.5 -41.5s21.5 -13.5 35.5 -13.5c80.667 0 178.667 142.667 294 428c2 5.33301 6.5 16.666 13.5 33.999s19.5 44 37.5 80s40.167 72.167 66.5 108.5s49.5 58.166 69.5 65.499c-19.333 5.33301 -53.666 8 -102.999 8
s-104.5 -10.667 -165.5 -32s-96.5 -47.666 -106.5 -78.999c-1.33301 -2 -2.66602 -3 -3.99902 -3c-6 0 -9 4.33301 -9 13c0 1.33301 0.666992 4.66602 2 9.99902c12.667 36.667 31 65 55 85s47.5 32.333 70.5 37s51.5 7 85.5 7h47l225 -1
c-39.333 -30 -66.666 -53 -81.999 -69s-31.333 -40.5 -48 -73.5s-32.334 -69.833 -47.001 -110.5s-27 -76.667 -37 -108l-27.5 -84c-8.33301 -24.667 -19.666 -55.334 -33.999 -92.001s-28.333 -69 -42 -97s-30.167 -57.333 -49.5 -88s-39 -56 -59 -76
c-44.667 -46 -92.334 -69 -143.001 -69c-31.333 0 -56.5 8.83301 -75.5 26.5s-28.5 41.167 -28.5 70.5c0 14 3.66699 28.667 11 44s19 24 35 26zM636.998 765.003l-0.000976562 -1c0 -2 -4.83301 -5.66699 -14.5 -11s-17.167 -8 -22.5 -8c-9.33301 0 -22.166 12 -38.499 36
s-28.5 45 -36.5 63c-22 -21.333 -46.5 -42.5 -73.5 -63.5s-45.833 -31.5 -56.5 -31.5s-16 1 -16 3v1c64 52 112.667 95.333 146 130c5.33301 6 10.833 9 16.5 9s13.667 -7.5 24 -22.5l37.5 -56c14.667 -22.333 26 -38.5 34 -48.5z" />
    <glyph glyph-name="jcircumflex" unicode="&#x135;" horiz-adv-x="215" 
d="M206 390l40.0049 -0.00195312c-14.667 -8.66699 -26.334 -21.5 -35.001 -38.5l-20 -39c-4.66699 -9 -10.667 -23.167 -18 -42.5l-17 -44c-12.667 -33.333 -24 -64.666 -34 -93.999s-16.833 -49 -20.5 -59s-10.334 -26.667 -20.001 -50s-17.834 -41.333 -24.501 -54
l-28 -51c-12 -21.333 -23.333 -38 -34 -50s-23.834 -25.5 -39.501 -40.5s-31.5 -26.5 -47.5 -34.5c-37.333 -19.333 -72.333 -29 -105 -29c-67.333 0 -101 20.667 -101 62c0 16.667 5.16699 32.5 15.5 47.5s24.333 22.5 42 22.5s29.5 -7 35.5 -21
c-6.66699 -4 -11.834 -11 -15.501 -21s-5.5 -19.5 -5.5 -28.5s3.5 -16.667 10.5 -23s16.5 -9.5 28.5 -9.5c56 0.666992 106.333 54.334 151 161.001c16 38 36.667 95.333 62 172c48 142 80.333 222 97 240c16 16 43.667 24 83 24zM345.005 504.998l-0.000976562 -1
c0 -2 -4.83301 -5.66699 -14.5 -11s-17.167 -8 -22.5 -8c-9.33301 0 -22.166 12 -38.499 36s-28.5 45 -36.5 63c-22 -21.333 -46.5 -42.5 -73.5 -63.5s-45.833 -31.5 -56.5 -31.5s-16 1 -16 3v1c64 52 112.667 95.333 146 130c5.33301 6 10.833 9 16.5 9
s13.667 -7.5 24 -22.5l37.5 -56c14.667 -22.333 26 -38.5 34 -48.5z" />
    <glyph glyph-name="kcommaaccent" unicode="&#x137;" horiz-adv-x="411" 
d="M482 199c-23.333 -39.333 -46.999 -75 -70.999 -107c-51.333 -66.667 -102 -100 -152 -100c-27.333 0 -47.833 13.667 -61.5 41s-20.5 57.666 -20.5 90.999c0 66.667 10 100 30 100c31.333 0 60.333 7.16699 87 21.5s40 33.166 40 56.499c0 18.667 -10.667 28 -32 28
c-46 0 -97 -50 -153 -150c-5.33301 -10 -16.5 -33.167 -33.5 -69.5s-32 -63.833 -45 -82.5s-25.833 -28 -38.5 -28h-61c20.667 38.667 51.167 116.834 91.5 234.501s70.166 196.5 89.499 236.5l12.5 26l16 33l17.5 34c8.66699 16.667 15.667 29 21 37l22 34.5
c9.33301 15 17.666 26.5 24.999 34.5l26 28.5c10 11 19.333 19.167 28 24.5c22.667 13.333 43.334 20 62.001 20c36.667 0 55 -16.667 55 -50c0 -46.667 -28.167 -108.5 -84.5 -185.5s-119.833 -149.833 -190.5 -218.5l-18 -50c32 41.333 68.333 77.5 109 108.5
s78 46.5 112 46.5c19.333 0 34.5 -4.66699 45.5 -14s16.5 -22 16.5 -38c0 -36.667 -16.167 -66.167 -48.5 -88.5s-69.5 -36.833 -111.5 -43.5c6 -69.333 15.667 -111.666 29 -126.999c6.66699 -7.33301 15 -11 25 -11s23.667 6 41 18s31.5 25.167 42.5 39.5
s22.667 31.5 35 51.5l32 52c9 14.667 14.167 22 15.5 22c4 0 6 -6.5 6 -19.5s-3.66699 -25.167 -11 -36.5zM384.001 717c-37.333 0 -102.667 -120 -196 -360c85.333 100 145.333 184.333 180 253c20 36 30 65.667 30 89c0 12 -4.66699 18 -14 18zM157 -64
c-18.667 -43.333 -43.832 -87.167 -75.499 -131.5s-55.834 -66.5 -72.501 -66.5c-4.66699 0 -9.33398 1.33301 -14.001 4c40.667 60.667 66.334 126 77.001 196c0.666992 8.66699 15 13 43 13s42 -4.33301 42 -13v-2z" />
    <glyph glyph-name="kgreenlandic" unicode="&#x138;" horiz-adv-x="566" 
d="M573 432c-62 0 -140.332 -41.335 -234.999 -124.002c39.333 -129.333 114.666 -231.333 225.999 -306c-16 -5.33301 -54.667 -8 -116 -8c-28.667 0 -63 32.833 -103 98.5s-64 122.834 -72 171.501c-12.667 -9.33301 -24.834 -22.5 -36.501 -39.5s-24.667 -48.333 -39 -94
s-21.5 -77.667 -21.5 -96s1.33301 -29.833 4 -34.5h-129c71.333 226 126.333 382 165 468s71.334 147.667 98.001 185c10.667 14.667 28 22 52 22c8.66699 0 21 -2.66699 37 -8s24 -13.666 24 -24.999s-14 -39.833 -42 -85.5l-87 -146
c-30 -51.667 -46.333 -91.167 -49 -118.5c30 30 74.167 65.167 132.5 105.5s105.5 60.5 141.5 60.5c13.333 0 26.333 -2.16699 39 -6.5s19 -9.83301 19 -16.5c0 -2 -2.66699 -3 -8 -3z" />
    <glyph glyph-name="Ldotaccent" unicode="&#x13f;" horiz-adv-x="570" 
d="M564 129c-18.667 -58 -45.999 -94.667 -81.999 -110c-19.333 -8 -37.5 -13.167 -54.5 -15.5s-38.833 -3.5 -65.5 -3.5h-303c-26.667 0 -40 18.667 -40 56c0 95.333 79.667 286.666 239 573.999c12 19.333 18.333 29.666 19 30.999
c-56.667 -1.33301 -114.167 -12.833 -172.5 -34.5s-92.166 -47.5 -101.499 -77.5c-0.666992 -2 -2 -3 -4 -3c-6 0 -9 4.33301 -9 13c0 1.33301 2.83301 10.333 8.5 27s16.167 34 31.5 52s32.666 31.333 51.999 40c32.667 13.333 73 20 121 20h227
c-27.333 -20.667 -62.5 -69.667 -105.5 -147s-85 -162.166 -126 -254.499s-61.5 -158.166 -61.5 -197.499c0 -43.333 23.667 -65 71 -65c193.333 0 308.666 38 345.999 114c1.33301 2 3 3 5 3c4.66699 0 7 -3.33301 7 -10c0 -1.33301 -0.666992 -5.33301 -2 -12z
M450.001 323c-3.33301 -3.33301 -9.33301 -10.334 -18 -21.001c-20.667 -26.667 -32.667 -40 -36 -40c-10 0 -21.667 5.16699 -35 15.5s-20 19.833 -20 28.5c0 14.667 10.167 28.334 30.5 41.001s41.833 19 64.5 19c16 0 24 -7.33301 24 -22
c0 -9.33301 -3.33301 -16.333 -10 -21z" />
    <glyph glyph-name="ldot" unicode="&#x140;" horiz-adv-x="400" 
d="M415 610c-24 -48.667 -60.6689 -103.832 -110.002 -165.499s-93.666 -111.167 -132.999 -148.5l-16 -46c-24.667 -72.667 -37 -124.667 -37 -156c0 -17.333 5.83301 -30.5 17.5 -39.5s26.5 -13.5 44.5 -13.5c54 0 107.167 19 159.5 57s95.833 89.333 130.5 154
c3.33301 6 6 9 8 9c4 0 6 -5.83301 6 -17.5s-4 -25.167 -12 -40.5c-34 -61.333 -84.333 -113.333 -151 -156s-134.334 -64 -203.001 -64c-32.667 0 -55.667 5.66699 -69 17s-20 30.666 -20 57.999c0 56 22.667 147.333 68 274c3.33301 10.667 11 33 23 67
s22.333 60.5 31 79.5l35 75.5c14.667 31.333 28.834 56.333 42.501 75s28.834 37.667 45.501 57c32.667 38.667 68 58 106 58s57 -17.333 57 -52c0 -26.667 -7.66699 -54 -23 -82zM393.998 719.002h-6.99902c-40.667 0 -105.667 -122 -195 -366
c91.333 107.333 153.666 195.333 186.999 264c18.667 42 28 69.5 28 82.5s-4.33301 19.5 -13 19.5zM377.999 323.002c-3.33301 -3.33301 -9.33301 -10.334 -18 -21.001c-20.667 -26.667 -32.667 -40 -36 -40c-10 0 -21.667 5.16699 -35 15.5s-20 19.833 -20 28.5
c0 14.667 10.167 28.334 30.5 41.001s41.833 19 64.5 19c16 0 24 -7.33301 24 -22c0 -9.33301 -3.33301 -16.333 -10 -21z" />
    <glyph glyph-name="Lslash" unicode="&#x141;" horiz-adv-x="593" 
d="M584 129c-18.667 -58 -45.999 -94.667 -81.999 -110c-19.333 -8 -37.5 -13.167 -54.5 -15.5s-38.833 -3.5 -65.5 -3.5h-303c-26.667 0 -40 18.667 -40 56c0 95.333 79.667 286.666 239 573.999c12 19.333 18.333 29.666 19 30.999
c-56.667 -1.33301 -114.167 -12.833 -172.5 -34.5s-92.166 -47.5 -101.499 -77.5c-0.666992 -2 -2 -3 -4 -3c-6 0 -9 4.33301 -9 13c0 1.33301 2.83301 10.333 8.5 27s16.167 34 31.5 52s32.666 31.333 51.999 40c32.667 13.333 73 20 121 20h227
c-27.333 -20.667 -62.5 -69.667 -105.5 -147s-85 -162.166 -126 -254.499s-61.5 -158.166 -61.5 -197.499c0 -43.333 23.667 -65 71 -65c193.333 0 308.666 38 345.999 114c1.33301 2 3 3 5 3c4.66699 0 7 -3.33301 7 -10c0 -1.33301 -0.666992 -5.33301 -2 -12zM11.001 267
h312.001v-1c0 -3.33301 -3.5 -11 -10.5 -23s-12.167 -18 -15.5 -18h-312c-0.666992 0 -1 1 -1 3s3.66699 9 11 21s12.666 18 15.999 18z" />
    <glyph glyph-name="lslash" unicode="&#x142;" horiz-adv-x="241" 
d="M-15 219l88 32.999c19.333 74.667 53.333 166 102 274c27.333 61.333 59.833 113 97.5 155s74.5 63 110.5 63s54 -15.667 54 -47c0 -45.333 -30.667 -110 -92 -194s-120.666 -153 -177.999 -207l-4 -10l127 47c0.666992 0 1 -2 1 -6s-1.5 -11.167 -4.5 -21.5
s-5.83301 -15.833 -8.5 -16.5l-131 -49c-19.333 -63.333 -29 -112 -29 -146c0 -20 7.33301 -30 22 -30s32.167 8.33301 52.5 25s35.166 31.167 44.499 43.5s20.333 28.833 33 49.5c30 49.333 45.667 74 47 74c4 0 6 -5.33301 6 -16c0 -26.667 -27.333 -76 -82 -148
c-18 -24 -41.5 -46.333 -70.5 -67s-56.167 -31 -81.5 -31c-37.333 0 -56 25.333 -56 76c0 30.667 8.66699 76 26 136l-86 -32c-0.666992 0 -1 1.83301 -1 5.5s1.33301 10.834 4 21.501s5.66699 16.667 9 18zM389 718.999c-23.333 0 -53.832 -37 -91.499 -111
s-74.5 -159 -110.5 -255c91.333 107.333 153.666 195.333 186.999 264c18.667 42 28 69.5 28 82.5s-4.33301 19.5 -13 19.5z" />
    <glyph glyph-name="Nacute" unicode="&#x143;" horiz-adv-x="703" 
d="M858 697c-26.667 -17.333 -64.167 -73.334 -112.5 -168.001s-91.333 -193.5 -129 -296.5s-56.5 -174.5 -56.5 -214.5c0 -8.66699 0.666992 -14.667 2 -18h-63c-2 38.667 -8.83301 72.5 -20.5 101.5l-26.5 65l-31 71.5l-39 90
c-34.667 80.667 -54.334 149.334 -59.001 206.001c-44 -98 -87.333 -201.667 -130 -311s-64 -180.666 -64 -213.999c0 -4.66699 0.333008 -7.66699 1 -9h-92c38 97.333 92.333 225.666 163 384.999s113.667 254 129 284c-60.667 0 -119.834 -12 -177.501 -36
s-91.5 -52 -101.5 -84c-0.666992 -2 -2 -3 -4 -3c-5.33301 0 -8 4.33301 -8 13c0 1.33301 2.66699 10.333 8 27s15.5 34 30.5 52s32.5 31.333 52.5 40c32.667 13.333 73 20 121 20h169c-9.33301 -15.333 -14 -34 -14 -56c0 -49.333 19 -118.666 57 -207.999
c34.667 -83.333 55.167 -136.5 61.5 -159.5s10.333 -38.167 12 -45.5s2.83398 -16 3.50098 -26s1.33398 -16.333 2.00098 -19c8.66699 21.333 83 192.666 223 513.999c1.33301 3.33301 7.5 5 18.5 5s25.5 -1 43.5 -3s28.333 -3 31 -3zM728 809.999
c-26.667 -11.333 -62 -28.166 -106 -50.499s-67 -33.5 -69 -33.5s-6.16699 1.66699 -12.5 5s-9.5 5.66602 -9.5 6.99902c6 3.33301 27.833 18.833 65.5 46.5l74.5 54.5c2.66699 1.33301 6.66699 2 12 2s14.5 -3.66699 27.5 -11s19.5 -13 19.5 -17
c0 -1.33301 -0.666992 -2.33301 -2 -3z" />
    <glyph glyph-name="nacute" unicode="&#x144;" horiz-adv-x="436" 
d="M508 201c-24.667 -41.333 -47.165 -75.835 -67.498 -103.502s-43.5 -51.834 -69.5 -72.501s-49.667 -31 -71 -31c-39.333 0 -59 21.667 -59 65s25 130.333 75 261c2.66699 6 4 12.333 4 19c0 14 -8.83301 21 -26.5 21s-35 -5.5 -52 -16.5s-32.5 -26.667 -46.5 -47
s-26.667 -41 -38 -62s-21.833 -45.167 -31.5 -72.5s-17.334 -50.166 -23.001 -68.499s-11.334 -38 -17.001 -59s-8.83398 -32.5 -9.50098 -34.5h-97c0 14 29.333 94.333 88 241c24 68.667 36 116.667 36 144c0 6.66699 -1 11.667 -3 15h42c23.333 0 38.333 -2.33301 45 -7
s10 -11 10 -19s-3.66699 -24.333 -11 -49c56 53.333 112.333 80 169 80c38 0 57 -17.333 57 -52c0 -11.333 -1.66699 -22.666 -5 -33.999s-11.666 -34 -24.999 -68c-29.333 -74.667 -44 -124.667 -44 -150c0 -16 6 -24 18 -24c8.66699 0 20.834 6 36.501 18
s28.667 24.5 39 37.5s21.666 29.333 33.999 49l31.5 51.5c8.66699 14.667 13.667 22 15 22c4 0 6 -6.16699 6 -18.5s-3.33301 -24.166 -10 -35.499zM448.002 577.998c-26.667 -11.333 -62 -28.166 -106 -50.499s-67 -33.5 -69 -33.5s-6.16699 1.66699 -12.5 5
s-9.5 5.66602 -9.5 6.99902c6 3.33301 27.833 18.833 65.5 46.5l74.5 54.5c2.66699 1.33301 6.66699 2 12 2s14.5 -3.66699 27.5 -11s19.5 -13 19.5 -17c0 -1.33301 -0.666992 -2.33301 -2 -3z" />
    <glyph glyph-name="OE" unicode="&#x152;" horiz-adv-x="1118" 
d="M997 698l108.997 5.00195c20.667 0 32.167 -4.16699 34.5 -12.5s3.5 -14.5 3.5 -18.5c0 -23.333 -8.16699 -52.833 -24.5 -88.5s-28 -53.5 -35 -53.5s-10.5 2.66699 -10.5 8l8 60c0 20.667 -8.33301 37 -25 49s-36.667 18 -60 18s-40.666 -1.66699 -51.999 -5
s-20.333 -10.333 -27 -21c-48.667 -72.667 -93 -155.334 -133 -248.001h261l1 -1c0 -4.66699 -4.66699 -13.834 -14 -27.501s-17 -20.5 -23 -20.5h-247c-18 -44 -35.667 -93.333 -53 -148s-26 -90.834 -26 -108.501s5.33301 -30.667 16 -39s28.667 -12.5 54 -12.5
c192.667 0 308 38 346 114c1.33301 2 3 3 5 3c5.33301 0 8 -3.66699 8 -11c0 -2 -2.66699 -11.5 -8 -28.5s-14.666 -34.667 -27.999 -53s-29.666 -31.5 -48.999 -39.5s-37.5 -13.167 -54.5 -15.5s-38.833 -3.5 -65.5 -3.5h-302c-20.667 0 -31 16 -31 48
c0 12 2.33301 31 7 57c-94.667 -91.333 -205 -137 -331 -137c-165.333 0 -248 73 -248 219c0 66 13.833 130.833 41.5 194.5s64.167 119.334 109.5 167.001s99 86.167 161 115.5s126.667 44 194 44s121.5 -14.333 162.5 -43s67.5 -67.667 79.5 -117
c20 44.667 36.667 78 50 100c1.33301 6.66699 1.83301 15.167 1.5 25.5s0.5 17 2.5 20s6.66699 4.5 14 4.5h178zM675.997 499.002c0 108.667 -48.667 163 -146 163c-70.667 0 -138.167 -24.333 -202.5 -73s-115 -109.667 -152 -183s-55.5 -146.666 -55.5 -219.999
c0 -52.667 11.667 -95.334 35 -128.001s60.5 -49 111.5 -49s102.167 15.333 153.5 46s95.333 69.834 132 117.501s66.5 100.667 89.5 159s34.5 114.166 34.5 167.499z" />
    <glyph glyph-name="oe" unicode="&#x153;" horiz-adv-x="648" 
d="M721 202c-22.667 -36 -41.0029 -63.6689 -55.0029 -83.002s-32 -40.333 -54 -63c-42.667 -44 -95.667 -66 -159 -66c-37.333 0 -66.666 8 -87.999 24s-34.666 37.667 -39.999 65l-1 4c-45.333 -60.667 -104 -91 -176 -91c-33.333 0 -60.5 10 -81.5 30s-31.5 51 -31.5 93
s9.5 85.167 28.5 129.5s47.667 82.5 86 114.5s78.5 48 120.5 48c76.667 0 118.667 -34 126 -102c54 64 116 96 186 96c56.667 0 85 -21 85 -63c0 -30.667 -15.167 -60.5 -45.5 -89.5s-64.666 -51.667 -102.999 -68s-72.5 -25.5 -102.5 -27.5c-2.66699 -12.667 -4 -26 -4 -40
c0 -54.667 23.667 -82 71 -82c52.667 0 107.667 35.667 165 107c7.33301 8.66699 17.333 23.334 30 44.001c30 49.333 45.667 74 47 74c4 0 6 -6.16699 6 -18.5s-3.33301 -24.166 -10 -35.499zM609.997 302.998c8 12 11.998 24.333 11.998 37c0 18.667 -9.66699 28 -29 28
c-31.333 0 -64.666 -19.5 -99.999 -58.5s-58.666 -81.833 -69.999 -128.5c32 6.66699 65.833 20 101.5 40s64.167 47.333 85.5 82zM182.995 29.998c47.333 0 94.332 48.667 140.999 146c20 41.333 30 82.333 30 123s-17.333 61 -52 61c-26.667 0 -51.667 -13.667 -75 -41
s-45.166 -61.833 -65.499 -103.5s-30.5 -83 -30.5 -124s17.333 -61.5 52 -61.5z" />
    <glyph glyph-name="Racute" unicode="&#x154;" horiz-adv-x="666" 
d="M645 562c0 -39.333 -11.668 -73.9971 -35.001 -103.997c-41.333 -54.667 -105 -90 -191 -106l-32 -6c33.333 -116 103.333 -230.667 210 -344c-10 -2 -25.333 -3 -46 -3l-77 3c-26.667 0 -54.834 26.167 -84.501 78.5s-53.167 105.666 -70.5 159.999s-26 90.5 -26 108.5
c0 10 4.66699 15.333 14 16c156.667 19.333 237.334 80.666 242.001 183.999c0 36.667 -10.833 65 -32.5 85s-57.167 31.333 -106.5 34c-52 -70 -109.667 -182 -173 -336c-62.667 -156.667 -94 -260 -94 -310c0 -10 1.33301 -17.333 4 -22h-129
c18.667 80.667 58 192.667 118 336c80 190.667 131.667 299 155 325c-56.667 -1.33301 -114.167 -12.833 -172.5 -34.5s-92.166 -47.5 -101.499 -77.5c-0.666992 -2 -2 -3 -4 -3c-6 0 -9 4.33301 -9 13c0 1.33301 0.666992 4.66602 2 9.99902c12.667 36.667 31 65 55 85
s47.5 32.333 70.5 37s51.5 7 85.5 7h243c61.333 0 107.5 -12.833 138.5 -38.5s46.5 -58.167 46.5 -97.5zM625.999 810.003c-26.667 -11.333 -62 -28.166 -106 -50.499s-67 -33.5 -69 -33.5s-6.16699 1.66699 -12.5 5s-9.5 5.66602 -9.5 6.99902
c6 3.33301 27.833 18.833 65.5 46.5l74.5 54.5c2.66699 1.33301 6.66699 2 12 2s14.5 -3.66699 27.5 -11s19.5 -13 19.5 -17c0 -1.33301 -0.666992 -2.33301 -2 -3z" />
    <glyph glyph-name="Rcommaaccent" unicode="&#x156;" horiz-adv-x="666" 
d="M645 562c0 -39.333 -11.668 -73.9971 -35.001 -103.997c-41.333 -54.667 -105 -90 -191 -106l-32 -6c33.333 -116 103.333 -230.667 210 -344c-10 -2 -25.333 -3 -46 -3l-77 3c-26.667 0 -54.834 26.167 -84.501 78.5s-53.167 105.666 -70.5 159.999s-26 90.5 -26 108.5
c0 10 4.66699 15.333 14 16c156.667 19.333 237.334 80.666 242.001 183.999c0 36.667 -10.833 65 -32.5 85s-57.167 31.333 -106.5 34c-52 -70 -109.667 -182 -173 -336c-62.667 -156.667 -94 -260 -94 -310c0 -10 1.33301 -17.333 4 -22h-129
c18.667 80.667 58 192.667 118 336c80 190.667 131.667 299 155 325c-56.667 -1.33301 -114.167 -12.833 -172.5 -34.5s-92.166 -47.5 -101.499 -77.5c-0.666992 -2 -2 -3 -4 -3c-6 0 -9 4.33301 -9 13c0 1.33301 0.666992 4.66602 2 9.99902c12.667 36.667 31 65 55 85
s47.5 32.333 70.5 37s51.5 7 85.5 7h243c61.333 0 107.5 -12.833 138.5 -38.5s46.5 -58.167 46.5 -97.5z" />
    <glyph glyph-name="rcommaaccent" unicode="&#x157;" horiz-adv-x="336" 
d="M304 402l50.9971 -1.00293h10c-10 -7.33301 -24.167 -29 -42.5 -65l-41 -81.5c-9 -18.333 -19 -43 -30 -74s-16.5 -56.167 -16.5 -75.5s6.66699 -29 20 -29c8.66699 0.666992 20.834 6.83398 36.501 18.501s28.667 24 39 37s21.666 29.667 33.999 50l32 53
c9 15 14.167 22.5 15.5 22.5c4.66699 0 7 -6.16699 7 -18.5s-3.33301 -24.166 -10 -35.499c-28.667 -47.333 -52.334 -83.666 -71.001 -108.999s-41.167 -48.5 -67.5 -69.5s-50.166 -31.5 -71.499 -31.5c-38 0 -57 28 -57 84c0 38 7.33301 81 22 129
s36.334 94.333 65.001 139c-23.333 -18.667 -46.666 -28 -69.999 -28c-7.33301 0 -15 1.66699 -23 5c-47.333 -93.333 -72.833 -140 -76.5 -140s-5.5 5.5 -5.5 16.5s4.16699 26.333 12.5 46s17.333 38.5 27 56.5s14.834 28 15.501 30c-24 12 -36 31.333 -36 58
c0 13.333 4.16699 25.333 12.5 36s19.833 16 34.5 16s26.667 -4.66699 36 -14c-1.33301 -4 -2 -10 -2 -18c0 -18 6.5 -32.167 19.5 -42.5s28.833 -15.5 47.5 -15.5c5.33301 0 9.33301 0.333008 12 1c23.333 33.333 47 50 71 50zM120.997 -71.0029
c-18.667 -43.333 -43.832 -87.167 -75.499 -131.5s-55.834 -66.5 -72.501 -66.5c-4.66699 0 -9.33398 1.33301 -14.001 4c40.667 60.667 66.334 126 77.001 196c0.666992 8.66699 15 13 43 13s42 -4.33301 42 -13v-2z" />
    </font>
</defs>
</svg>
